<?xml version="1.0" encoding="utf-8"?>
<!-- Generator: Adobe Illustrator 19.0.0, SVG Export Plug-In . SVG Version: 6.00 Build 0)  -->
<svg version="1.1" id="Layer_1" xmlns="http://www.w3.org/2000/svg" xmlns:xlink="http://www.w3.org/1999/xlink" x="0px" y="0px"
	 viewBox="0 0 612 792" style="enable-background:new 0 0 612 792;" xml:space="preserve">
<style type="text/css">
	.st0{fill:#212121;}
	.st1{fill:#FEDD00;}
	.st2{fill:#FBEF9C;}
	.st3{fill:#FABB15;}
	.st4{fill:#FBBA14;}
	.st5{fill:#2E313A;}
	.st6{fill:#535353;}
	.st7{fill:#515151;}
	.st8{fill:#505050;}
	.st9{fill:#4C4C4C;}
	.st10{fill:#FFFFFF;}
	.st11{fill:#FEFEFE;}
	.st12{fill:#FBFBFB;}
	.st13{fill:#F9F9F9;}
	.st14{fill:#F8F7F7;}
	.st15{fill:#F6F5F5;}
	.st16{fill:#F1F1F0;}
	.st17{fill:#F4F4F4;}
	.st18{fill:#E4E4E4;}
	.st19{fill:#DBDADA;}
	.st20{fill:#525252;}
</style>
<g id="XMLID_408_">
	<g id="XMLID_310_">
		<g id="XMLID_325_">
			<g id="XMLID_62_">
				<path id="XMLID_64_" class="st0" d="M345.9,387c0.5,0,0.9,0,1.7,0c-18.4,33.8-36.6,67.4-55,101.4c0.3-5.1,0.6-9.7,0.9-14.2
					c0.8-12.5,1.6-25,2.4-37.5c0.1-2,0.2-3.9,0.4-5.9c0.1-0.9-0.1-1.2-0.6-1.1c-0.3,0-0.6,0-0.9,0c-11,0-21.9,0-33.2,0
					c23.2-42,46.3-83.8,69.4-125.5c0,2.2-0.6,4.1-1,6c-5.8,25-11.6,50.1-17.4,75.1c-0.4,1.8,0,1.8,0.9,1.7
					C324.2,387,335.1,387,345.9,387z M340.5,392c-3.2,0-6-0.2-8.9,0.1c-3,0-5.9-0.1-8.9-0.1c-4.8-0.1-9.7-0.1-14.5-0.1
					c-0.1-0.4-0.3-0.5-0.5-0.5c0-0.2,0-0.4,0.1-0.6c3.7-15.9,7.4-31.7,11-47.6c1-4.3,2.1-8.5,2.9-13c0-0.3,0.1-0.8-0.2-0.7
					c-0.4,0.1-0.7,0.6-0.6,1.4l0,0c-0.3-0.2-0.3,0.2-0.4,0.4c-0.2,0.4-0.6,0.6-0.5,1.2c-0.4-0.1-0.5,0.3-0.5,0.8
					c-0.4,0.1-0.5,0.6-0.7,1c-14.9,27-29.9,54-44.8,81c-1.6,3-3.3,5.9-5.1,9.2c3.1,0,5.9,0,8.7,0c0.6,0,1.2,0.1,1.8,0.1
					c6.9,0,13.8,0,20.7,0.1c-0.8,12.5-1.6,24.9-2.4,37.4c-0.2,2.8-0.6,5.6-0.4,8.5c-0.1,0.3-0.4,0.6-0.2,1c0.2,0.3,0.4,0,0.5-0.3
					c0.5-0.9,0.9-1.8,1.4-2.8c0.4-0.4,0.7-0.9,0.8-1.5h0c0.3-0.5,0.6-0.9,0.9-1.4c11.8-21.7,23.5-43.4,35.3-65
					C337.4,397.8,338.9,395.1,340.5,392z"/>
			</g>
			<g id="XMLID_63_">
			</g>
		</g>
		<path id="XMLID_321_" class="st1" d="M299,468.4c-0.5,0.9-0.9,1.9-1.4,2.8c-0.1,0.2-0.3,0.6-0.5,0.3c-0.3-0.4,0.1-0.7,0.1-1
			c0.4-0.5,0.5-1.2,0.6-1.9c2.7-10.7,5.3-21.4,7.9-32.1c1-3.9,1.9-8.1,2.9-11.9c-3,0-5.8,0-8.7,0c-6.9,0-13.8,0-20.7,0
			c-0.6,0-1.2,0-1.8,0c1.2-2.7,2.4-5.4,3.6-8c5.8-12.6,11.7-25.2,17.5-37.7c5.9-12.6,11.7-25.2,17.5-37.9c1.1-2.4,2.6-4.5,3.2-7.5
			l0,0c0.4,0.1,0.5-0.3,0.5-0.8l0,0c0.2-0.2,0.3-0.3,0.5-0.5l0.1,0.1c0,1-0.4,1.9-0.7,2.7c-3.2,8.7-6.3,17.3-9.5,26
			c-2.3,6.3-4.7,12.6-7,19c-1.3,3.6-2.6,7.2-3.9,10.8c-0.2,0.6-0.6,1.5,0.3,1.4c2.7-0.1,5.3,0.2,8-0.2c0.2,0,0.4-0.1,0.6-0.1
			c4.8,0,9.7,0.1,14.5,0.1c3,0,5.9,0.1,8.9,0.1c-0.1,0.9-0.5,1.5-0.8,2.2c-2.7,6.1-5.4,12.3-8,18.4c-3.2,7.3-6.3,14.7-9.5,22.1
			c-4.4,10.1-8.7,20.1-13.1,30.1c-0.3,0.6-0.6,1.1-0.4,2l0,0C299,466.8,298.9,467.5,299,468.4z"/>
		<path id="XMLID_320_" class="st2" d="M319.3,333.3c-0.6,2.9-2.1,5-3.2,7.5c-5.8,12.7-11.7,25.3-17.5,37.9
			c-5.8,12.6-11.7,25.2-17.5,37.8c-1.2,2.7-2.4,5.1-3.6,8.1c-2.8,0-5.6,0-8.7,0c1.8-3,3.4-6.3,5.1-9.2c14.9-27,29.9-54,44.8-81
			C318.8,334,318.9,333.4,319.3,333.3z"/>
		<path id="XMLID_319_" class="st3" d="M299.8,466.9c-0.2-0.8,0.2-1.4,0.4-2c4.4-10,8.8-20.1,13.1-30.1c3.2-7.3,6.3-14.7,9.5-22.1
			c2.7-6.1,5.3-12.3,8-18.4c0.3-0.7,0.7-1.3,0.8-2.2c2.9-0.3,5.7-0.1,8.9-0.1c-1.6,3-3.1,5.7-4.5,8.4c-11.8,21.7-23.5,43.4-35.3,65
			C300.4,466,300.1,466.4,299.8,466.9z"/>
		<path id="XMLID_318_" class="st4" d="M307.6,392c-2.7,0.4-5.3,0.1-8,0.2c-0.9,0-0.5-0.9-0.3-1.4c1.3-3.6,2.6-7.2,3.9-10.8
			c2.3-6.3,4.7-12.6,7-19c3.2-8.7,6.3-17.3,9.5-26c0.3-0.9,0.7-1.7,0.7-2.7c0.5-0.1,0.5-0.7,0.4-1.3c0,0,0,0,0,0
			c0.3-0.2,0.5-0.5,0.8-0.7c-0.7,4.5-1.9,8.7-2.9,13c-3.6,15.9-7.3,31.8-11,47.6c0,0.2,0,0.4-0.1,0.6
			C307.6,391.6,307.6,391.8,307.6,392z"/>
		<path id="XMLID_317_" class="st2" d="M300,424.6c2.8,0,5.7,0,8.7,0c-1,3.8-1.9,8-2.9,11.9c-2.6,10.7-5.3,21.4-7.9,32.1
			c-0.2,0.7-0.3,1.4-0.6,1.9c-0.2-2.9,0.2-5.7,0.4-8.5C298.4,449.5,299.2,437.3,300,424.6z"/>
		<path id="XMLID_316_" class="st1" d="M321.6,330.2c-0.3,0.2-0.5,0.5-0.8,0.7c-0.1-0.8,0.2-1.3,0.6-1.4
			C321.7,329.4,321.6,329.9,321.6,330.2z"/>
		<path id="XMLID_315_" class="st3" d="M299,468.4c0-0.9,0.1-1.6,0.8-1.5C299.6,467.5,299.3,468,299,468.4z"/>
		<path id="XMLID_314_" class="st1" d="M320.8,330.9c0.1,0.6,0.1,1.2-0.4,1.3l-0.1-0.1c0-0.3,0-0.5,0-0.8
			C320.4,331,320.5,330.7,320.8,330.9z"/>
		<path id="XMLID_313_" class="st2" d="M320.3,331.3c0,0.3,0,0.5,0,0.8c-0.2,0.2-0.3,0.3-0.5,0.5
			C319.7,331.8,320.1,331.7,320.3,331.3z"/>
		<path id="XMLID_312_" class="st2" d="M319.8,332.5c0,0.5-0.1,0.9-0.5,0.8C319.4,332.9,319.4,332.4,319.8,332.5z"/>
		<path id="XMLID_311_" class="st5" d="M307.6,392c0-0.2,0-0.4,0.1-0.6c0.2,0,0.4,0.1,0.5,0.5C308,391.9,307.8,392,307.6,392z"/>
	</g>
	<g id="XMLID_253_">
		<g id="XMLID_322_">
			<g id="XMLID_59_">
				<path id="XMLID_61_" class="st0" d="M330.3,394.8c2.1,0.5,2.4,2.4,2.3,4.3c-0.3,1.2-0.4,2.4-0.4,3.7c-0.6,3.9-2.9,6.6-5.7,9.1
					c-3.2,2.9-7,4.9-10.6,7.2c-3.8,2.5-7,5.5-9.4,9.6c-2.7,4.7-6.2,8.9-11.4,11.1c-12.8,5.6-25.9,6.3-39.1,2c-1.6-0.5-3-1.2-4-2.5
					c-1.3-1.7-0.1-3,0.4-4.4c1.4-4.1,4.2-6.9,8.3-8.2c2.1-0.7,3.5-1.8,4.5-3.6c3.5-6.5,7.2-13,8.7-20.4c0.1-0.4,0.2-0.9,0.6-0.9
					c1.7,0,1.9-1.5,2.5-2.5c1.3-2.3,2.6-4.6,3.9-6.9c1-1.8,2.5-3,4.6-3.5c2.1-0.5,4.2-0.5,6.2-0.7c0.6,0.8,1.5,0.8,2.3,1
					c2.1,0.8,3.4,2.4,4.2,4.4c0.9,2.4,1.1,4.8,0.7,7.3c-0.1,0.6-0.4,1.3,0,2.1c1.2-0.8,1.3-2,1.3-3.2c0-4.1-1.2-7.7-4.8-10.1
					c-0.1-0.2-0.2-0.3-0.3-0.5c0-0.4,0.3-0.4,0.6-0.5c0.3,0.1,0.7,0,0.9,0.2c2.8,2.5,4.6,0.3,6.5-1.2c0.9-0.7,1.2-1.9,1.7-2.8
					c1.8-3.4,4.6-5.4,8.5-5.8c0.5,0.2,0.9,0.4,1.4,0.5c1.8,0.5,3.2,1.6,4.1,3.3c1.6,3,0.5,5.7-0.9,8.6c3.2-1.6,4-2.9,3.7-5.2
					c-0.2-1.2-0.9-2.1-1.6-3.1c-0.6-0.8-1.7-1.3-1.7-2.5c0.2-0.3,0.3-0.4,0.7-0.3c2.5,1.9,4.2,4.1,5.2,7.3
					C324.9,390.7,326.5,393.8,330.3,394.8z"/>
			</g>
			<g id="XMLID_60_">
			</g>
		</g>
		<path id="XMLID_282_" class="st6" d="M350.4,410.5c0.1,0.2,0.2,0.4,0.4,0.5c0.3-0.2,0.9-0.4,0.6-0.9
			C351,409.7,350.8,410.4,350.4,410.5z"/>
		<g id="XMLID_402_">
			<g id="XMLID_56_">
				<path id="XMLID_58_" class="st0" d="M359.8,381.1c0.3-0.4,0.7-0.7,1.4-0.7c-0.4,0.8-0.9,1-1.4,1.3
					C359.8,381.5,359.8,381.3,359.8,381.1z"/>
			</g>
			<g id="XMLID_57_">
			</g>
		</g>
		<g id="XMLID_395_">
			<g id="XMLID_52_">
				<path id="XMLID_55_" class="st0" d="M338.4,377.6c0.5-0.3,1-0.4,1.7,0.1c-0.5,0.1-0.9,0.2-1.3,0.3
					C338.7,377.9,338.5,377.7,338.4,377.6z"/>
				<path id="XMLID_54_" class="st0" d="M324.6,371.5c0.4-0.3,0.9-0.6,1.6-0.3c-0.4,0.5-0.6,0.8-1.2,0.7
					C324.8,371.8,324.7,371.7,324.6,371.5z"/>
			</g>
			<g id="XMLID_53_">
			</g>
		</g>
		<g id="XMLID_338_">
			<g id="XMLID_24_">
				<path id="XMLID_51_" class="st0" d="M359.8,381.1c0.2,0.2,0.2,0.4,0,0.6c-2.9,3.2-4.6,7.1-6.1,11c-2.8,7.3-8.3,11.4-15.2,14.2
					c-0.4,0.2-0.8,0.2-0.7-0.4c7.3-3.4,12.2-8.9,15.4-16.2c0.1-0.3,0.3-0.7-0.3-0.4c-1.4,1.4-2.6,2.8-3.7,4.4
					c-0.3,0.4-0.5,1.1-1.2,1c-0.7-0.2-0.8-0.9-0.8-1.5c0-0.9,0.1-1.7,0.2-3.2c-2.6,3.1-4.2,6.5-7.8,7.8c2.3-2,3.5-4.8,5.2-7.2
					c1.7-2.4,3.8-4.3,6.7-5.2c-1,2.2-2.7,4.1-3,6.8c1.2-0.6,1.7-1.4,2.2-2.2C353.4,387.1,356,383.6,359.8,381.1z"/>
				<path id="XMLID_50_" class="st0" d="M352.7,360.3c-0.1,0.8-0.5,1.1-1.1,1.3C351.6,360.9,352.1,360.6,352.7,360.3z"/>
				<path id="XMLID_49_" class="st0" d="M351.4,373c0.8-1.1,2-1.8,3.8-2.1c-3.9,4-6.5,8.6-11.2,11.1c-0.3,0.1-0.5,0.4-0.7,0.6
					c-0.3,0.5-1.1,0.9-0.5,1.5c0.4,0.5,1.2,0.3,1.7-0.1c0.5-0.3,0.9-0.7,1.3-1.1c0.8-0.7,1.6-1.3,2.6-1.4c-1.4,1.7-3,3.2-4.2,5.1
					c-1.5,2.4-3.6,4.3-5.9,5.8c-1.9,1.2-3.3,1.7-5,1.6c2.2-3.2,6.9-3.4,8.7-7.2c-1.9-0.5-2.2-1.1-1.6-2.9c0.3-0.9,0.8-1.8,1.6-2.4
					c0.4-0.3,1.1-0.6,0.8-1.4c-0.9,0.6-1.9,0.6-2.9,0.7c-0.4,0.1-0.8,0.2-0.7-0.5c0.9-0.5,1.8-1.2,2.8-1.5
					C345.9,378,349.1,376.2,351.4,373z"/>
				<path id="XMLID_48_" class="st7" d="M351.6,361.6C351.6,361.6,351.6,361.6,351.6,361.6L351.6,361.6L351.6,361.6z"/>
				<path id="XMLID_47_" class="st8" d="M351.6,361.6L351.6,361.6C351.6,361.6,351.6,361.6,351.6,361.6
					C351.6,361.6,351.6,361.6,351.6,361.6z"/>
				<path id="XMLID_46_" class="st0" d="M350.4,410.5c0.4,0,0.6,0.1,0.4,0.5c-2.2,2.2-4.8,3.8-7.8,4.2c-4.9,0.7-9.5,2.2-13.9,4.3
					c-0.9,0.4-2,0.8-2.1,2.1c-0.6,0.6-1.3,0.1-1.9,0.2c-1.3-0.8-0.5-1.6,0.1-2.2c0.2-0.2,0.3-0.3,0.5-0.5c1.2-1,2.7-1.6,4.3-1.9
					c3-0.7,6-1.2,9-2.1c0.5-0.4,1.2-0.3,1.6-0.9c0.1-0.5,0.6-0.3,0.9-0.4C344.8,413.6,347.7,412.2,350.4,410.5z"/>
				<path id="XMLID_45_" class="st0" d="M351.5,361.6c-0.9,2.2-2.7,3.6-4.8,4.4c-2.7,1.1-4.9,2.9-6.4,5.3c-0.4,0.1-0.5,0-0.3-0.3
					c0.2-0.5,0.3-1.1,0.6-1.6c1-2.2,2.1-4.5,4.6-5.2C347.4,363.6,349.6,362.8,351.5,361.6z"/>
				<path id="XMLID_44_" class="st0" d="M340.3,401.2c0.4-0.3,0.8-0.7,1.4-0.4c-0.2,0.5-0.6,0.7-1,0.8
					C340.7,401.3,340.4,401.3,340.3,401.2z"/>
				<path id="XMLID_43_" class="st9" d="M340.7,401.6c-0.1-0.1-0.2-0.3-0.4-0.4C340.4,401.3,340.7,401.3,340.7,401.6z"/>
				<path id="XMLID_42_" class="st0" d="M340.3,401.2c0.1,0.1,0.3,0.3,0.4,0.4c-1.4,2-3,3.7-5.6,3.9
					C337.1,404.4,338.1,402,340.3,401.2z"/>
				<path id="XMLID_41_" class="st0" d="M340.3,360.4c-0.1,0.6-0.2,1.1-0.9,0.9C339.5,360.7,339.9,360.6,340.3,360.4z"/>
				<path id="XMLID_40_" class="st0" d="M331.6,421.5c2.4-0.9,4.5-2.6,7.3-2.4c-2.2,1-3.7,2.9-5.2,4.6c-4.5,5.2-9.8,9.3-16.4,11.4
					c-3.2,1-6.5,1-9.8,1.2c-0.4,0.1-0.9,0.2-0.8-0.5c1.9-0.6,3.8-1.1,5.7-1.8c1-0.3,2.1-0.7,3.1-1.1c0.8-0.3,1.7-1.8,2.6-0.1
					c0.1,0.1,0.6,0,0.9-0.1c5.2-2.2,10.3-4.6,13.2-9.9c0.7-1.2-0.2-0.8-0.7-0.8v0C331.5,421.8,331.6,421.6,331.6,421.5z"/>
				<path id="XMLID_39_" class="st0" d="M338.4,377.6c0.4-0.1,0.5,0.1,0.4,0.4c-3.8,1.3-7.4,2.9-10,6c-0.7-0.1-0.4-0.5-0.3-0.9
					c0.4-1.2,0.9-2.4,2.1-3.1C333,378.7,335.6,377.7,338.4,377.6z"/>
				<path id="XMLID_38_" class="st0" d="M336.2,386.9c0.6,0.8,0.7,0.9-0.1,1.3c-1.3,0.7-2.6,1.4-4.1,1.5c-0.4,0.1-0.8,0.2-0.7-0.4
					c2-0.6,2.9-2.8,4.8-3.8C336.1,386.1,336,386.6,336.2,386.9z"/>
				<path id="XMLID_37_" class="st0" d="M332.6,399.1c0.2,1.3,0,2.5-0.4,3.7C331.8,401.5,332,400.3,332.6,399.1z"/>
				<path id="XMLID_36_" class="st0" d="M331.2,367.2c2.8-1.6,5.3-3.6,8-5.5c-5.2,7.3-11.7,12.8-21.1,14.4c0.5-0.9,1.2-1.1,1.9-1.5
					c1.6-1,3.6-1.4,5-2.7c0.1-0.1,0.3-0.2,0.1-0.4c-0.1-0.1-0.3-0.1-0.5,0c-2.6,0.4-5,2-8,1.7c0.5-0.5,0.9-0.9,1.3-1.3
					c0.4-1.1,1.4-1.6,2.5-2c0.1-0.1,0.1-0.1,0.2-0.2c0.1,0.1,0.1,0.1,0.1,0.2c-0.1,0.9,0.2,1.2,1.1,1
					C325.1,370.3,328.2,368.9,331.2,367.2z"/>
				<path id="XMLID_35_" class="st0" d="M331.6,421.5c0,0.2,0,0.3-0.1,0.5C331.4,421.8,331.4,421.6,331.6,421.5z"/>
				<path id="XMLID_34_" class="st0" d="M329.3,421.9c0.8-0.2,1.5-0.3,2.3-0.4c-0.2,0.2-0.2,0.3-0.1,0.5v0c-0.7,0.4-1.5,0.4-2.3,0.3
					c0.1-0.1,0.1-0.1,0.1-0.2C329.3,422,329.3,421.9,329.3,421.9L329.3,421.9z"/>
				<path id="XMLID_33_" class="st0" d="M331.3,414.9c0,0.1,0,0.2-0.1,0.3c-0.4,0.5-0.9,0.6-1.5,0.6c-1.4,0.1-2.5,0.9-3.7,1.6
					c-0.4,0.2-0.7,0.4-1,0.7c-2.5,1.8-4.5,4.3-7.4,5.5c-0.7,0.3-0.7,0.7-0.1,1.1c0.8,0.6,1.6,1.1,2.4,1.7c0.5,0.4,1.1,0.9,0.4,1.5
					c-2.1,1.6-4.5,2.5-7,3c1.2-1,2.5-1.8,3.7-2.7c1.3-1,1-2.4-0.5-3c-0.6-0.2-1.6,0-1.6-0.9c0-0.7,0.7-1.1,1.3-1.4
					c2.8-1.7,5.6-3.5,8.2-5.5c1.9-1.5,4.2-2.5,6.7-2.5C331.3,414.7,331.3,414.8,331.3,414.9z"/>
				<path id="XMLID_32_" class="st0" d="M329.3,422.1c0,0.1,0,0.2-0.1,0.2c0-0.1,0-0.2,0.1-0.3C329.3,421.9,329.3,422,329.3,422.1z"
					/>
				<path id="XMLID_31_" class="st0" d="M329.3,421.9L329.3,421.9c0,0.1-0.1,0.2-0.1,0.3c-1.4,0-2.8,0.6-4.1-0.4
					c0.7,0.2,1.4,0.8,1.9-0.2C327.8,421.8,328.5,421.8,329.3,421.9z"/>
				<path id="XMLID_30_" class="st0" d="M325.2,421.9c0.6,0,1.3,0.4,1.9-0.2C326.5,422.6,325.8,422.1,325.2,421.9z"/>
				<path id="XMLID_29_" class="st0" d="M318.8,380.2c-0.2,0.2-0.4,0.3-0.6,0.4c-0.8-0.1-1.8,0-1.3-1.3
					C317.7,379.3,318.4,379.6,318.8,380.2z"/>
				<path id="XMLID_28_" class="st0" d="M317.6,370.9c0,0.1-0.1,0.2-0.1,0.3c-0.4,0.2-0.8,0.5-1.3,0.6c-6.1,1.3-10.6,4.8-14,9.9
					c0,0.1-0.1,0.1-0.2,0.1c-0.4,0-0.6-0.1-0.4-0.5c1.6-4.1,4.1-7.5,8.6-8.7c2.3-0.7,4.6-1.1,6.9-1.8
					C317.4,370.6,317.5,370.7,317.6,370.9z"/>
				<path id="XMLID_27_" class="st0" d="M317,379.3c0,0.1-0.1,0.2-0.1,0.2c-0.8,0.8-1.7-0.5-2.5,0.2c-0.6,0-0.9-0.4-1.1-0.9
					C314.5,378.5,315.8,378.4,317,379.3z"/>
				<path id="XMLID_26_" class="st0" d="M311.6,431.3c0.1,0,0.3,0.2,0.3,0.3c0,0.2-0.1,0.3-0.3,0.4c-0.1,0.1-0.3,0.1-0.4,0.1
					c-0.1,0-0.3-0.2-0.6-0.4C311.1,431.5,311.3,431.3,311.6,431.3C311.6,431.3,311.6,431.3,311.6,431.3z"/>
			</g>
			<g id="XMLID_25_">
			</g>
		</g>
		<path id="XMLID_275_" class="st10" d="M266.9,426.8c0.4,0.1,0.7,0.1,1.1,0.2c0.2,0.4,1.2-0.2,1,0.7c-2.6,0.4-5.5-0.3-8.3,1
			c8.8,2.9,17.3,3.4,26,1.2c2.3-0.6,4.3-1.9,6.2-3.3c1.7-1.3,3.5-1.9,5.5-1c1.5,0.7,2-0.6,2.5-1.5c0.9-1.8,1.8-3.5,2.9-5.2
			c1.6-2.5,4.1-4.1,6.3-5.9c0.1-0.4,0-0.6-0.4-0.5c-1.9,0.9-3.6,2.1-5.3,3.4c-0.4,0.3-0.8,0.7-1.3,0.4c-0.5-0.3-0.3-0.9-0.1-1.4
			c0.5-1.7,1.2-3.3,2.1-4.7c0.6-0.9,0.3-1.3-0.6-1.6c-2-0.5-4-0.7-6.1-0.3c-1,0.2-1.6,0.8-2.2,1.6c-1.1,1.6-2.2,3.2-2.8,5
			c-1.3,3.9-4.3,6.3-7.2,8.7c-0.6,0.5-1.1,0.3-1.7,0.2c-2.4-0.5-4.8-1.1-6.5,1.5c-0.4,0.6-1.1,0.8-1.8,0.7c-2.3-0.2-4.7-0.5-7-0.7
			c-1-0.1-1.2-0.4-0.5-1.2c0.3-0.3,0.6-0.7,0.7-1.1c0.2-0.4,1.1-0.9,0.1-1.3c-0.6-0.2-1.3-1-1.9,0c-0.9,1.3-1.2,3-2.9,3.7
			c-0.5,0.2,0.3,0.6,0.6,0.9C265.7,427,266.3,426.9,266.9,426.8z"/>
		<path id="XMLID_274_" class="st11" d="M255.7,433.8c-0.2,0.1-0.3,0.2-0.5,0.3c-1.2,0.5-2.4,1.2-2.3,2.4c0.1,1.3,1.6,1.2,2.7,1.4
			c3,0.5,5.7,1.5,8.4,2.8c3,1.4,6.3,1.3,9.5,1.3c8.6-0.1,16.4-2.7,23.6-7.4c3.8-2.4,5.6-6.1,7.7-9.8c1.1-1.9,1.9-3.9,3-5.7
			c1-1.6,2.2-2.8,4.4-2.7c2.2,0.2,4-1.6,5.9-2.6c4.9-2.5,8.5-6.3,10.2-11.8c0.9-3,0.7-3.6-1.9-5.9c-0.5,2.3-1.1,4.4-2.2,6.4
			c-1.9,3.5-4.9,6.1-8,8.4c-1.8,1.3-3.5,2.6-5.3,3.7c-4.2,2.5-7.1,6-8.7,10.5c-1.9,5.3-5.7,8.5-10.7,10.6c-6.8,3-13.8,4.7-21.3,4
			c-1.9-0.2-3.9-0.3-5.2-2c-1.7-2.1-3.9-2.9-6.4-3.4c-0.4-0.1-0.8-0.3-1.2-0.4C256.8,433.5,256.3,433.5,255.7,433.8z"/>
		<path id="XMLID_273_" class="st11" d="M283.4,403.6c1.2,0.2,2.4,0.5,3.6,0.7c2.8,0.6,4.2-0.3,5-3c1.4-4.6,0.5-5.8-4.3-5.9
			c-4.5-0.1-6.7,1.4-8.3,5.6c-0.3,0.6,1,2.3,2,2.4C282.1,403.5,282.7,403.6,283.4,403.6C283.4,403.6,283.4,403.6,283.4,403.6z"/>
		<path id="XMLID_272_" class="st11" d="M312,380.3c-3.1,0-4.8,1.9-6.1,4.4c-0.6,1.3-1.3,2.5-2,3.9c0.7,0.3,1.4,0.3,2.2,0.1
			c1.4-0.4,2.9-0.7,4.3-0.9c1.5-0.2,3.2-0.2,4.3,1.1c1,1.1,1.4,0.4,1.9-0.4c2-3.3,0.6-6.5-3.4-8C313,380,312.5,380,312,380.3z"/>
		<path id="XMLID_271_" class="st1" d="M317.2,402.5c-1.9,0.6-3.7,1.1-5.7,1c0.9-2.1,2.6-3.7,2.9-6c-3.3,3-6.4,6.2-10.5,8.8
			c2,0.2,3.6,0.4,5.4,0.6c-1.8,2.6-3.7,4.9-5.1,7.7C313.5,408.5,316.1,406,317.2,402.5z"/>
		<path id="XMLID_270_" class="st12" d="M280.1,420.9c-2.2-0.7-4.4-0.9-6.6-0.9c-0.6,0-0.9,0.2-1.1,0.7c-0.5,1.1-1.1,2.2-1.7,3.5
			c2.1,0.2,4,0.4,5.9,0.7c0.7,0.1,1-0.4,1.3-0.8C278.6,423.1,279.6,422.2,280.1,420.9z"/>
		<path id="XMLID_269_" class="st13" d="M318.3,380.7c-0.4-0.5-1.4-0.4-1.3-1.4c-0.4,0.2-0.7,0.5-1.1,0.1c-0.6-0.5-1.1-0.3-1.5,0.4
			c4.5,1.2,6,5.9,3.5,10.5c-0.3,0.5-1.3,1.1-0.6,1.7c0.5,0.4,1.2-0.3,1.8-0.7c4-2.8,4.3-5.1,0.9-8.9
			C319.4,381.8,318.8,381.2,318.3,380.7z"/>
		<path id="XMLID_268_" class="st14" d="M295.2,389.2c-0.5,0.2-1.1-0.4-1.5,0.2c4.4,1.4,6.1,8.4,4,13.9c2.2,0.2,2.2,0.2,2.7-1.9
			C301.5,396.2,299.3,391,295.2,389.2z"/>
		<path id="XMLID_267_" class="st15" d="M274.2,417c2.4,0.5,4.9,0.5,7.2,1.2c1,0.3,1.2-1,1.4-1.6c0.3-0.7-0.5-0.7-0.9-0.7
			c-2-0.3-4-0.6-6-0.7C274.8,415,274.8,415,274.2,417z"/>
		<path id="XMLID_266_" class="st15" d="M278.2,408.1c2.7,0.1,5.2,0.4,7.6,1c1.2,0.3,1.4-0.5,1.6-1.2c0.3-1.1-0.7-0.8-1.2-0.9
			c-1.8-0.3-3.6-0.4-5.3-0.7C279.5,406,278.6,406.3,278.2,408.1z"/>
		<path id="XMLID_265_" class="st16" d="M313.4,393.9c-3,2.7-6.1,5.5-10.1,6.7c-0.6,0.2-1,0.7-0.8,1.2c0.3,0.6,0.9,0.2,1.3,0
			c4-1.5,7.2-4.3,10-7.4C314,394,313.8,393.9,313.4,393.9z"/>
		<path id="XMLID_264_" class="st17" d="M283.3,411.4c-1.5-0.2-3-0.3-4.5-0.5c-0.6-0.2-1.2-0.6-1.8,0c-0.9,0.9-1,1.4,0.5,1.5
			c2.2,0.1,4.3,0.5,6.4,1.1c0.7,0.2,1-0.1,1.3-0.6c0.4-0.7-0.3-0.8-0.5-1.1C284.3,411.2,283.8,411.3,283.3,411.4z"/>
		<path id="XMLID_263_" class="st18" d="M309.7,412.5c0.1,0.2,0.3,0.3,0.4,0.5c0.8-0.5,1.6-1.1,2.4-1.6
			C311.3,411.2,310.5,411.9,309.7,412.5z"/>
		<path id="XMLID_262_" class="st19" d="M313.4,393.9c0.1,0.2,0.3,0.4,0.4,0.6c0.1,0,0.1,0,0.2-0.1c0.4-0.6,1.7-1.4,1.2-1.8
			C314.3,392,313.9,393.4,313.4,393.9z"/>
		<g id="XMLID_369_">
			<g id="XMLID_4_">
				<path id="XMLID_23_" class="st0" d="M340.2,414.3c0,1-0.7,0.5-1.2,0.5c-0.6-0.1-1.2,0.1-1.8-0.3
					C338.2,413.7,339.2,414,340.2,414.3z"/>
				<path id="XMLID_22_" class="st0" d="M337.8,406.5c0.1,0.3,0.4,0.4,0.7,0.4c-0.8,0.5-1.6,0.8-2.8,0.8
					C336.4,406.8,337.1,406.6,337.8,406.5z"/>
				<path id="XMLID_21_" class="st20" d="M337.3,414.5C337.3,414.5,337.3,414.5,337.3,414.5L337.3,414.5L337.3,414.5z"/>
				<path id="XMLID_20_" class="st9" d="M337.3,414.5L337.3,414.5C337.3,414.5,337.2,414.5,337.3,414.5
					C337.2,414.5,337.2,414.5,337.3,414.5z"/>
				<path id="XMLID_19_" class="st0" d="M333.5,414.7c1.2-0.5,2.4-0.8,3.7-0.2c-1.2,0.6-2.4,0.8-3.7,0.4L333.5,414.7z"/>
				<path id="XMLID_18_" class="st0" d="M333.5,414.7l0,0.1c-0.7,1-1.6,0.2-2.3,0.3c0-0.1,0-0.3,0-0.4
					C332,414.6,332.7,414.2,333.5,414.7z"/>
				<path id="XMLID_17_" class="st0" d="M317.2,370.7c0.5-0.4,1-0.7,1.6-0.6c-0.3,0.6-0.7,0.9-1.4,0.9
					C317.4,370.9,317.3,370.8,317.2,370.7z"/>
				<path id="XMLID_16_" class="st0" d="M313.8,380.2c0.2,0.1-0.3,0.2-0.4,0.3c-0.4-0.1-0.9-0.1-1.3-0.2c0-0.1-0.1-0.1-0.1-0.2
					c0-0.1,0-0.2,0.1-0.2C312.6,380,313.2,380,313.8,380.2z"/>
				<path id="XMLID_15_" class="st0" d="M306.7,435.9c0.1,0.3,0.5,0.4,0.8,0.5c-0.5,0.2-1.2,0.5-1.5,0
					C305.7,436,306.3,435.8,306.7,435.9z"/>
				<path id="XMLID_14_" class="st0" d="M301.7,381.2c0.1,0.2,0.3,0.4,0.4,0.5c-0.4,0.4-0.6,1-1.6,0.9
					C301,382.1,301.3,381.7,301.7,381.2z"/>
				<path id="XMLID_13_" class="st0" d="M295.7,388.5c-0.2,0.1-0.3,0.2-0.5,0.4c-0.9-0.8-2.3-0.1-3.2-0.9
					C293.2,388.1,294.4,388.1,295.7,388.5z"/>
				<path id="XMLID_12_" class="st0" d="M295.1,388.9c0,0.1,0.1,0.2,0.1,0.3c-0.4,0.5-1-0.1-1.5,0.2c-0.9-0.1-1.9-0.1-2.1-1.4
					l0.2-0.1l0.2,0.1C292.8,389,294.1,388.4,295.1,388.9z"/>
				<path id="XMLID_11_" class="st0" d="M291.9,388c1,0.7,2.3,0.1,3.2,0.9C294.1,388.4,292.8,389,291.9,388z"/>
				<path id="XMLID_10_" class="st0" d="M287.3,399.6c0.4,0,1-0.1,0.9,0.6c-0.1,0.5-0.3,1-0.9,0.9c-1.1-0.1-2.1-0.2-3.1-0.3
					c-0.5-0.1-0.7-0.5-0.6-1c0.1-0.9,0.7-0.7,1.2-0.6C285.5,399.9,286.3,400,287.3,399.6z"/>
				<path id="XMLID_9_" class="st0" d="M287.3,399.6c-0.9,0.1-1.8,0.1-2.6-0.3C285.6,399.2,286.4,399.2,287.3,399.6z"/>
				<path id="XMLID_8_" class="st0" d="M284.7,399.2c0.8,0.4,1.7,0.4,2.6,0.3C286.3,400,285.5,399.9,284.7,399.2z"/>
				<path id="XMLID_7_" class="st0" d="M285,411.3c0.3,0,0.2,0.2,0,0.3c-0.1,0.1-0.2,0.1-0.4,0.1c-0.4-0.1-0.9-0.2-1.3-0.3
					C283.8,410.9,284.4,411.2,285,411.3z"/>
				<path id="XMLID_6_" class="st0" d="M278.8,410.9c-0.6,0-1.2,0-1.8,0C277.6,410.1,278.2,410.4,278.8,410.9z"/>
				<path id="XMLID_5_" class="st0" d="M269.2,427.1c0.3,0.1,0.9,0,0.7,0.5c-0.1,0.4-0.6,0.2-1,0.1c-0.4-0.3-0.7-0.5-1-0.7
					C268.4,427,268.8,427,269.2,427.1z"/>
				<path id="XMLID_67_" class="st0" d="M265.2,426.5c0.6,0.1,1.1,0.2,1.7,0.3c-0.9,0.5-1.7,0.1-2.5-0.3
					C264.7,426.5,264.9,426.5,265.2,426.5z"/>
				<path id="XMLID_68_" class="st0" d="M258.2,433.6c0,0.1,0,0.2,0,0.3c-0.3,0-0.6,0-0.8,0.1c-0.6-0.1-1.1-0.1-1.7-0.2
					c0-0.1-0.1-0.1-0.1-0.2c0-0.1,0-0.2,0.1-0.2C256.5,433.5,257.4,433.6,258.2,433.6z"/>
			</g>
			<g id="XMLID_69_">
			</g>
		</g>
	</g>
</g>
</svg>
