<?xml version="1.0" encoding="utf-8"?>
<!-- Generator: Adobe Illustrator 19.0.0, SVG Export Plug-In . SVG Version: 6.00 Build 0)  -->
<svg version="1.1" id="Layer_1" xmlns="http://www.w3.org/2000/svg" xmlns:xlink="http://www.w3.org/1999/xlink" x="0px" y="0px"
	 viewBox="0 0 110.2 184.7" style="enable-background:new 0 0 110.2 184.7;" xml:space="preserve">
<style type="text/css">
	.st0{fill:#212121;}
	.st1{fill:#FEDD00;}
	.st2{fill:#FBEF9C;}
	.st3{fill:#FABB15;}
	.st4{fill:#FBBA14;}
	.st5{fill:#2E313A;}
	.st6{fill:#535353;}
	.st7{fill:#515151;}
	.st8{fill:#505050;}
	.st9{fill:#4C4C4C;}
	.st10{fill:#FFFFFF;}
	.st11{fill:#FEFEFE;}
	.st12{fill:#FBFBFB;}
	.st13{fill:#F9F9F9;}
	.st14{fill:#F8F7F7;}
	.st15{fill:#F6F5F5;}
	.st16{fill:#F1F1F0;}
	.st17{fill:#F4F4F4;}
	.st18{fill:#E4E4E4;}
	.st19{fill:#DBDADA;}
	.st20{fill:#525252;}
</style>
<g id="XMLID_408_">
	<g id="XMLID_310_">
		<g id="XMLID_325_">
			<g id="XMLID_62_">
				<path id="XMLID_64_" class="st0" d="M94.6,83.1c0.5,0,0.9,0,1.7,0c-18.4,33.8-36.6,67.4-55,101.4c0.3-5.1,0.6-9.7,0.9-14.2
					c0.8-12.5,1.6-25,2.4-37.5c0.1-2,0.2-3.9,0.4-5.9c0.1-0.9-0.1-1.2-0.6-1.1c-0.3,0-0.6,0-0.9,0c-11,0-21.9,0-33.2,0
					C33.5,83.7,56.6,42,79.7,0.3c0,2.2-0.6,4.1-1,6c-5.8,25-11.6,50.1-17.4,75.1c-0.4,1.8,0,1.8,0.9,1.7C73,83,83.8,83,94.6,83.1z
					 M89.3,88.1c-3.2,0-6-0.2-8.9,0.1c-3,0-5.9-0.1-8.9-0.1c-4.8-0.1-9.7-0.1-14.5-0.1c-0.1-0.4-0.3-0.5-0.5-0.5
					c0-0.2,0-0.4,0.1-0.6c3.7-15.9,7.4-31.7,11-47.6c1-4.3,2.1-8.5,2.9-13c0-0.3,0.1-0.8-0.2-0.7c-0.4,0.1-0.7,0.6-0.6,1.4l0,0
					c-0.3-0.2-0.3,0.2-0.4,0.4c-0.2,0.4-0.6,0.6-0.5,1.2c-0.4-0.1-0.5,0.3-0.5,0.8c-0.4,0.1-0.5,0.6-0.7,1c-14.9,27-29.9,54-44.8,81
					c-1.6,3-3.3,5.9-5.1,9.2c3.1,0,5.9,0,8.7,0c0.6,0,1.2,0.1,1.8,0.1c6.9,0,13.8,0,20.7,0.1c-0.8,12.5-1.6,24.9-2.4,37.4
					c-0.2,2.8-0.6,5.6-0.4,8.5c-0.1,0.3-0.4,0.6-0.2,1c0.2,0.3,0.4,0,0.5-0.3c0.5-0.9,0.9-1.8,1.4-2.8c0.4-0.4,0.7-0.9,0.8-1.5h0
					c0.3-0.5,0.6-0.9,0.9-1.4c11.8-21.7,23.5-43.4,35.3-65C86.2,93.8,87.6,91.1,89.3,88.1z"/>
			</g>
			<g id="XMLID_63_">
			</g>
		</g>
		<path id="XMLID_321_" class="st1" d="M47.7,164.5c-0.5,0.9-0.9,1.9-1.4,2.8c-0.1,0.2-0.3,0.6-0.5,0.3c-0.3-0.4,0.1-0.7,0.1-1
			c0.4-0.5,0.5-1.2,0.6-1.9c2.7-10.7,5.3-21.4,7.9-32.1c1-3.9,1.9-8.1,2.9-11.9c-3,0-5.8,0-8.7,0c-6.9,0-13.8,0-20.7,0
			c-0.6,0-1.2,0-1.8,0c1.2-2.7,2.4-5.4,3.6-8c5.8-12.6,11.7-25.2,17.5-37.7c5.9-12.6,11.7-25.2,17.5-37.9c1.1-2.4,2.6-4.5,3.2-7.5
			l0,0c0.4,0.1,0.5-0.3,0.5-0.8l0,0c0.2-0.2,0.3-0.3,0.5-0.5l0.1,0.1c0,1-0.4,1.9-0.7,2.7c-3.2,8.7-6.3,17.3-9.5,26
			c-2.3,6.3-4.7,12.6-7,19c-1.3,3.6-2.6,7.2-3.9,10.8c-0.2,0.6-0.6,1.5,0.3,1.4c2.7-0.1,5.3,0.2,8-0.2c0.2,0,0.4-0.1,0.6-0.1
			c4.8,0,9.7,0.1,14.5,0.1c3,0,5.9,0.1,8.9,0.1c-0.1,0.9-0.5,1.5-0.8,2.2c-2.7,6.1-5.4,12.3-8,18.4c-3.2,7.3-6.3,14.7-9.5,22.1
			C57.7,140.9,53.3,151,49,161c-0.3,0.6-0.6,1.1-0.4,2l0,0C47.8,162.8,47.7,163.6,47.7,164.5z"/>
		<path id="XMLID_320_" class="st2" d="M68.1,29.4c-0.6,2.9-2.1,5-3.2,7.5c-5.8,12.7-11.7,25.3-17.5,37.9
			c-5.8,12.6-11.7,25.2-17.5,37.8c-1.2,2.7-2.4,5.1-3.6,8.1c-2.8,0-5.6,0-8.7,0c1.8-3,3.4-6.3,5.1-9.2c14.9-27,29.9-54,44.8-81
			C67.6,30,67.7,29.4,68.1,29.4z"/>
		<path id="XMLID_319_" class="st3" d="M48.5,162.9c-0.2-0.8,0.2-1.4,0.4-2c4.4-10,8.8-20.1,13.1-30.1c3.2-7.3,6.3-14.7,9.5-22.1
			c2.7-6.1,5.3-12.3,8-18.4c0.3-0.7,0.7-1.3,0.8-2.2c2.9-0.3,5.7-0.1,8.9-0.1c-1.6,3-3.1,5.7-4.5,8.4c-11.8,21.7-23.5,43.4-35.3,65
			C49.2,162.1,48.8,162.5,48.5,162.9z"/>
		<path id="XMLID_318_" class="st4" d="M56.4,88.1c-2.7,0.4-5.3,0.1-8,0.2c-0.9,0-0.5-0.9-0.3-1.4c1.3-3.6,2.6-7.2,3.9-10.8
			c2.3-6.3,4.7-12.6,7-19c3.2-8.7,6.3-17.3,9.5-26c0.3-0.9,0.7-1.7,0.7-2.7c0.5-0.1,0.5-0.7,0.4-1.3c0,0,0,0,0,0
			c0.3-0.2,0.5-0.5,0.8-0.7c-0.7,4.5-1.9,8.7-2.9,13c-3.6,15.9-7.3,31.8-11,47.6c0,0.2,0,0.4-0.1,0.6C56.4,87.7,56.4,87.9,56.4,88.1
			z"/>
		<path id="XMLID_317_" class="st2" d="M48.7,120.6c2.8,0,5.7,0,8.7,0c-1,3.8-1.9,8-2.9,11.9c-2.6,10.7-5.3,21.4-7.9,32.1
			c-0.2,0.7-0.3,1.4-0.6,1.9c-0.2-2.9,0.2-5.7,0.4-8.5C47.1,145.6,47.9,133.4,48.7,120.6z"/>
		<path id="XMLID_316_" class="st1" d="M70.4,26.3c-0.3,0.2-0.5,0.5-0.8,0.7c-0.1-0.8,0.2-1.3,0.6-1.4
			C70.5,25.4,70.4,25.9,70.4,26.3z"/>
		<path id="XMLID_315_" class="st3" d="M47.7,164.5c0-0.9,0.1-1.6,0.8-1.5C48.4,163.6,48.1,164.1,47.7,164.5z"/>
		<path id="XMLID_314_" class="st1" d="M69.6,26.9c0.1,0.6,0.1,1.2-0.4,1.3l-0.1-0.1c0-0.3,0-0.5,0-0.8
			C69.2,27.1,69.3,26.7,69.6,26.9z"/>
		<path id="XMLID_313_" class="st2" d="M69.1,27.4c0,0.3,0,0.5,0,0.8c-0.2,0.2-0.3,0.3-0.5,0.5C68.5,27.9,68.9,27.7,69.1,27.4z"/>
		<path id="XMLID_312_" class="st2" d="M68.6,28.6c0,0.5-0.1,0.9-0.5,0.8C68.1,28.9,68.2,28.5,68.6,28.6z"/>
		<path id="XMLID_311_" class="st5" d="M56.4,88.1c0-0.2,0-0.4,0.1-0.6c0.2,0,0.4,0.1,0.5,0.5C56.7,88,56.6,88,56.4,88.1z"/>
	</g>
	<g id="XMLID_253_">
		<g id="XMLID_322_">
			<g id="XMLID_59_">
				<path id="XMLID_61_" class="st0" d="M79.1,90.9c2.1,0.5,2.4,2.4,2.3,4.3c-0.3,1.2-0.4,2.4-0.4,3.7c-0.6,3.9-2.9,6.6-5.7,9.1
					c-3.2,2.9-7,4.9-10.6,7.2c-3.8,2.5-7,5.5-9.4,9.6c-2.7,4.7-6.2,8.9-11.4,11.1c-12.8,5.6-25.9,6.3-39.2,2c-1.6-0.5-3-1.2-4-2.5
					c-1.3-1.7-0.1-3,0.4-4.4c1.4-4.1,4.2-6.9,8.3-8.2c2.1-0.7,3.5-1.8,4.5-3.6c3.5-6.5,7.2-13,8.7-20.4c0.1-0.4,0.2-0.9,0.6-0.9
					c1.7,0,1.9-1.5,2.5-2.5c1.3-2.3,2.6-4.6,3.9-6.9c1-1.8,2.5-3,4.6-3.5c2.1-0.5,4.2-0.5,6.2-0.7c0.6,0.8,1.5,0.8,2.3,1
					c2.1,0.8,3.4,2.4,4.2,4.4c0.9,2.4,1.1,4.8,0.7,7.3c-0.1,0.6-0.4,1.3,0,2.1c1.2-0.8,1.3-2,1.3-3.2c0-4.1-1.2-7.7-4.8-10.1
					c-0.1-0.2-0.2-0.3-0.3-0.5c0-0.4,0.3-0.4,0.6-0.5c0.3,0.1,0.7,0,0.9,0.2c2.8,2.5,4.6,0.3,6.5-1.2c0.9-0.7,1.2-1.9,1.7-2.8
					c1.8-3.4,4.6-5.4,8.5-5.8c0.5,0.2,0.9,0.4,1.4,0.5c1.8,0.5,3.2,1.6,4.1,3.3c1.6,3,0.5,5.7-0.9,8.6c3.2-1.6,4-2.9,3.7-5.2
					c-0.2-1.2-0.9-2.1-1.6-3.1c-0.6-0.8-1.7-1.3-1.7-2.5c0.2-0.3,0.3-0.4,0.7-0.3c2.5,1.9,4.2,4.1,5.2,7.3
					C73.7,86.8,75.2,89.9,79.1,90.9z"/>
			</g>
			<g id="XMLID_60_">
			</g>
		</g>
		<path id="XMLID_282_" class="st6" d="M99.2,106.6c0.1,0.2,0.2,0.4,0.4,0.5c0.3-0.2,0.9-0.4,0.6-0.9
			C99.8,105.8,99.5,106.4,99.2,106.6z"/>
		<g id="XMLID_402_">
			<g id="XMLID_56_">
				<path id="XMLID_58_" class="st0" d="M108.6,77.2c0.3-0.4,0.7-0.7,1.4-0.7c-0.4,0.8-0.9,1-1.4,1.3
					C108.6,77.6,108.6,77.4,108.6,77.2z"/>
			</g>
			<g id="XMLID_57_">
			</g>
		</g>
		<g id="XMLID_395_">
			<g id="XMLID_52_">
				<path id="XMLID_55_" class="st0" d="M87.2,73.7c0.5-0.3,1-0.4,1.7,0.1c-0.5,0.1-0.9,0.2-1.3,0.3C87.4,73.9,87.3,73.8,87.2,73.7z
					"/>
				<path id="XMLID_54_" class="st0" d="M73.3,67.6c0.4-0.3,0.9-0.6,1.6-0.3c-0.4,0.5-0.6,0.8-1.2,0.7
					C73.6,67.9,73.4,67.8,73.3,67.6z"/>
			</g>
			<g id="XMLID_53_">
			</g>
		</g>
		<g id="XMLID_338_">
			<g id="XMLID_24_">
				<path id="XMLID_51_" class="st0" d="M108.6,77.2c0.2,0.2,0.2,0.4,0,0.6c-2.9,3.2-4.6,7.1-6.1,11c-2.8,7.3-8.3,11.4-15.2,14.2
					c-0.4,0.2-0.8,0.2-0.7-0.4c7.3-3.4,12.2-8.9,15.4-16.2c0.1-0.3,0.3-0.7-0.3-0.4c-1.4,1.3-2.6,2.8-3.7,4.4
					c-0.3,0.4-0.5,1.1-1.2,1C96,91.1,96,90.4,96,89.8c0-0.9,0.1-1.7,0.2-3.2c-2.6,3.1-4.2,6.5-7.8,7.8c2.3-2,3.5-4.8,5.2-7.2
					c1.7-2.4,3.8-4.3,6.7-5.2c-1,2.2-2.7,4.1-3,6.8c1.2-0.6,1.7-1.4,2.2-2.2C102.2,83.2,104.8,79.6,108.6,77.2z"/>
				<path id="XMLID_50_" class="st0" d="M101.5,56.4c-0.1,0.8-0.5,1.1-1.1,1.3C100.4,56.9,100.8,56.6,101.5,56.4z"/>
				<path id="XMLID_49_" class="st0" d="M100.2,69c0.8-1.1,2-1.8,3.8-2.1c-3.9,4-6.5,8.6-11.2,11.1c-0.3,0.1-0.5,0.4-0.7,0.6
					c-0.3,0.5-1.1,0.9-0.5,1.5c0.4,0.5,1.2,0.3,1.7-0.1c0.5-0.3,0.9-0.7,1.3-1.1c0.8-0.7,1.6-1.3,2.6-1.4c-1.4,1.7-3,3.2-4.2,5.1
					c-1.5,2.4-3.6,4.3-5.9,5.8c-1.9,1.2-3.3,1.7-5,1.6c2.2-3.2,6.9-3.4,8.7-7.2c-1.9-0.5-2.2-1.1-1.6-2.9c0.3-0.9,0.8-1.8,1.6-2.4
					c0.4-0.3,1.1-0.6,0.8-1.4c-0.9,0.6-1.9,0.6-2.9,0.7c-0.4,0.1-0.8,0.2-0.7-0.5c0.9-0.5,1.8-1.2,2.8-1.5
					C94.7,74.1,97.8,72.3,100.2,69z"/>
				<path id="XMLID_48_" class="st7" d="M100.4,57.6C100.4,57.7,100.4,57.7,100.4,57.6L100.4,57.6L100.4,57.6z"/>
				<path id="XMLID_47_" class="st8" d="M100.3,57.6L100.3,57.6C100.3,57.7,100.3,57.7,100.3,57.6C100.3,57.7,100.3,57.7,100.3,57.6
					z"/>
				<path id="XMLID_46_" class="st0" d="M99.2,106.6c0.4,0,0.6,0.1,0.4,0.5c-2.2,2.2-4.8,3.8-7.8,4.2c-4.9,0.7-9.5,2.2-13.9,4.3
					c-0.9,0.4-2,0.8-2.1,2.1c-0.6,0.6-1.3,0.1-1.9,0.2c-1.3-0.8-0.5-1.6,0.1-2.2c0.2-0.2,0.3-0.3,0.5-0.5c1.2-1,2.7-1.6,4.3-1.9
					c3-0.7,6-1.2,9-2.1c0.5-0.4,1.2-0.3,1.6-0.9c0.1-0.5,0.6-0.3,0.9-0.4C93.6,109.7,96.5,108.3,99.2,106.6z"/>
				<path id="XMLID_45_" class="st0" d="M100.3,57.7c-0.9,2.2-2.7,3.6-4.8,4.4c-2.7,1.1-4.9,2.9-6.4,5.3c-0.4,0.1-0.5,0-0.3-0.3
					c0.2-0.5,0.3-1.1,0.6-1.6c1-2.2,2.1-4.5,4.6-5.2C96.2,59.7,98.3,58.9,100.3,57.7z"/>
				<path id="XMLID_44_" class="st0" d="M89.1,97.2c0.4-0.3,0.8-0.7,1.4-0.4c-0.2,0.5-0.6,0.7-1,0.8C89.4,97.4,89.2,97.3,89.1,97.2z
					"/>
				<path id="XMLID_43_" class="st9" d="M89.4,97.6c-0.1-0.1-0.2-0.3-0.4-0.4C89.2,97.3,89.4,97.4,89.4,97.6z"/>
				<path id="XMLID_42_" class="st0" d="M89.1,97.2c0.1,0.1,0.3,0.3,0.4,0.4c-1.3,2-3,3.7-5.6,3.9C85.9,100.5,86.9,98.1,89.1,97.2z"
					/>
				<path id="XMLID_41_" class="st0" d="M89.1,56.4c-0.1,0.6-0.2,1.1-0.9,0.9C88.3,56.8,88.7,56.6,89.1,56.4z"/>
				<path id="XMLID_40_" class="st0" d="M80.4,117.6c2.4-0.9,4.5-2.6,7.3-2.4c-2.2,1-3.7,2.9-5.2,4.6c-4.5,5.2-9.8,9.3-16.4,11.4
					c-3.2,1-6.5,1-9.8,1.2c-0.4,0.1-0.9,0.2-0.8-0.5c1.9-0.6,3.8-1.1,5.7-1.8c1-0.3,2.1-0.7,3.1-1.1c0.8-0.3,1.7-1.8,2.6-0.1
					c0.1,0.1,0.6,0,0.9-0.1c5.2-2.2,10.3-4.6,13.2-9.9c0.7-1.2-0.2-0.8-0.7-0.8v0C80.3,117.9,80.3,117.7,80.4,117.6z"/>
				<path id="XMLID_39_" class="st0" d="M87.2,73.7c0.4-0.1,0.5,0.1,0.4,0.4c-3.8,1.3-7.4,2.9-10,6c-0.7-0.1-0.4-0.5-0.3-0.9
					c0.4-1.2,0.9-2.4,2.1-3.1C81.8,74.8,84.3,73.8,87.2,73.7z"/>
				<path id="XMLID_38_" class="st0" d="M84.9,82.9c0.6,0.8,0.7,0.9-0.1,1.3c-1.3,0.7-2.6,1.4-4.1,1.5c-0.4,0.1-0.8,0.2-0.7-0.4
					c2-0.6,2.9-2.8,4.8-3.8C84.8,82.2,84.7,82.7,84.9,82.9z"/>
				<path id="XMLID_37_" class="st0" d="M81.4,95.2c0.2,1.3,0,2.5-0.4,3.7C80.6,97.6,80.7,96.4,81.4,95.2z"/>
				<path id="XMLID_36_" class="st0" d="M79.9,63.3c2.8-1.6,5.3-3.6,8-5.5c-5.2,7.3-11.7,12.8-21.1,14.4c0.5-0.9,1.2-1.1,1.9-1.5
					c1.6-1,3.6-1.4,5-2.7c0.1-0.1,0.3-0.2,0.1-0.4c-0.1-0.1-0.3-0.1-0.5,0c-2.6,0.4-5,2-8,1.7c0.5-0.5,0.9-0.9,1.3-1.3
					c0.4-1.1,1.4-1.6,2.5-2c0.1-0.1,0.1-0.1,0.2-0.2c0.1,0.1,0.1,0.1,0.1,0.2c-0.1,0.9,0.2,1.2,1.1,1C73.9,66.3,77,65,79.9,63.3z"/>
				<path id="XMLID_35_" class="st0" d="M80.4,117.6c0,0.2,0,0.3-0.1,0.5C80.2,117.9,80.2,117.7,80.4,117.6z"/>
				<path id="XMLID_34_" class="st0" d="M78,118c0.8-0.2,1.5-0.3,2.3-0.4c-0.2,0.2-0.2,0.3-0.1,0.5v0c-0.7,0.4-1.5,0.4-2.3,0.3
					c0.1-0.1,0.1-0.1,0.1-0.2C78.1,118,78.1,118,78,118L78,118z"/>
				<path id="XMLID_33_" class="st0" d="M80.1,110.9c0,0.1,0,0.2-0.1,0.3c-0.4,0.5-0.9,0.6-1.5,0.6c-1.4,0.1-2.5,0.9-3.7,1.6
					c-0.4,0.2-0.7,0.4-1,0.7c-2.5,1.8-4.5,4.3-7.4,5.5c-0.7,0.3-0.7,0.7-0.1,1.1c0.8,0.6,1.6,1.1,2.4,1.7c0.5,0.4,1.1,0.9,0.4,1.5
					c-2.1,1.6-4.5,2.5-7,3c1.2-1,2.5-1.8,3.7-2.7c1.3-1,1-2.4-0.5-3c-0.6-0.2-1.6,0-1.6-0.9c0-0.7,0.7-1.1,1.3-1.4
					c2.8-1.7,5.6-3.5,8.2-5.5c1.9-1.5,4.2-2.5,6.7-2.5C80,110.8,80.1,110.9,80.1,110.9z"/>
				<path id="XMLID_32_" class="st0" d="M78.1,118.1c0,0.1,0,0.2-0.1,0.2c0-0.1,0-0.2,0.1-0.3C78.1,118,78.1,118,78.1,118.1z"/>
				<path id="XMLID_31_" class="st0" d="M78,118L78,118c0,0.1-0.1,0.2-0.1,0.3c-1.4,0-2.8,0.6-4.1-0.4c0.7,0.2,1.3,0.8,1.9-0.2
					C76.6,117.9,77.3,117.9,78,118z"/>
				<path id="XMLID_30_" class="st0" d="M73.9,117.9c0.6,0,1.3,0.4,1.9-0.2C75.3,118.7,74.6,118.2,73.9,117.9z"/>
				<path id="XMLID_29_" class="st0" d="M67.6,76.3c-0.2,0.2-0.4,0.3-0.6,0.4c-0.8-0.1-1.8,0-1.3-1.3C66.5,75.4,67.1,75.7,67.6,76.3
					z"/>
				<path id="XMLID_28_" class="st0" d="M66.4,67c0,0.1-0.1,0.2-0.1,0.3c-0.4,0.2-0.8,0.5-1.3,0.6c-6.1,1.3-10.6,4.8-14,9.9
					c0,0.1-0.1,0.1-0.2,0.1c-0.4,0-0.6-0.1-0.4-0.5c1.6-4.1,4.1-7.5,8.6-8.7c2.3-0.7,4.6-1.1,6.9-1.8C66.2,66.7,66.3,66.8,66.4,67z"
					/>
				<path id="XMLID_27_" class="st0" d="M65.7,75.4c0,0.1-0.1,0.2-0.1,0.2c-0.8,0.8-1.7-0.5-2.5,0.2c-0.6,0-0.9-0.4-1.1-0.9
					C63.3,74.6,64.6,74.5,65.7,75.4z"/>
				<path id="XMLID_26_" class="st0" d="M60.4,127.3c0.1,0,0.3,0.2,0.3,0.3c0,0.2-0.1,0.3-0.3,0.4c-0.1,0.1-0.3,0.1-0.4,0.1
					c-0.1,0-0.3-0.2-0.6-0.4C59.8,127.5,60.1,127.4,60.4,127.3C60.4,127.3,60.4,127.3,60.4,127.3z"/>
			</g>
			<g id="XMLID_25_">
			</g>
		</g>
		<path id="XMLID_275_" class="st10" d="M15.7,122.9c0.4,0.1,0.7,0.1,1.1,0.2c0.2,0.4,1.2-0.2,1,0.7c-2.6,0.4-5.5-0.3-8.3,1
			c8.8,2.9,17.3,3.4,26,1.2c2.3-0.6,4.3-1.9,6.2-3.3c1.7-1.3,3.5-1.9,5.5-1c1.5,0.7,2-0.6,2.5-1.5c0.9-1.8,1.8-3.5,2.9-5.2
			c1.6-2.5,4.1-4.1,6.3-5.9c0.1-0.4,0-0.6-0.4-0.5c-1.9,0.9-3.6,2.1-5.3,3.4c-0.4,0.3-0.8,0.7-1.3,0.4c-0.5-0.3-0.3-0.9-0.1-1.4
			c0.5-1.7,1.2-3.3,2.1-4.7c0.6-0.9,0.3-1.3-0.6-1.6c-2-0.5-4-0.7-6.1-0.3c-1,0.2-1.6,0.8-2.2,1.6c-1.1,1.6-2.2,3.2-2.8,5
			c-1.3,3.9-4.3,6.3-7.2,8.7c-0.6,0.5-1.1,0.3-1.7,0.2c-2.4-0.5-4.8-1.1-6.5,1.5c-0.4,0.6-1.1,0.8-1.8,0.7c-2.3-0.2-4.7-0.5-7-0.7
			c-1-0.1-1.2-0.4-0.5-1.2c0.3-0.3,0.6-0.7,0.7-1.1c0.2-0.4,1.1-0.9,0.1-1.3c-0.6-0.2-1.3-1-1.9,0c-0.9,1.3-1.2,3-2.9,3.7
			c-0.5,0.2,0.3,0.6,0.6,0.9C14.4,123.1,15.1,123,15.7,122.9z"/>
		<path id="XMLID_274_" class="st11" d="M4.5,129.9c-0.2,0.1-0.3,0.2-0.5,0.3c-1.2,0.5-2.4,1.2-2.3,2.4c0.1,1.3,1.6,1.2,2.7,1.4
			c3,0.5,5.7,1.5,8.4,2.8c3,1.4,6.3,1.3,9.5,1.3c8.6-0.1,16.4-2.7,23.6-7.4c3.8-2.4,5.6-6.1,7.7-9.8c1.1-1.9,1.9-3.9,3-5.7
			c1-1.6,2.2-2.8,4.4-2.7c2.2,0.2,4-1.6,5.9-2.6c4.9-2.5,8.5-6.3,10.2-11.8c0.9-3,0.7-3.6-1.9-5.9c-0.5,2.3-1.1,4.4-2.2,6.4
			c-1.9,3.5-4.9,6.1-8,8.4c-1.8,1.3-3.5,2.6-5.3,3.7c-4.2,2.5-7.1,6-8.7,10.5c-1.9,5.3-5.7,8.5-10.7,10.6c-6.8,3-13.8,4.7-21.3,4
			c-1.9-0.2-3.9-0.3-5.2-2c-1.7-2.1-3.9-2.9-6.4-3.4c-0.4-0.1-0.8-0.3-1.2-0.4C5.6,129.6,5.1,129.6,4.5,129.9z"/>
		<path id="XMLID_273_" class="st11" d="M32.2,99.6c1.2,0.2,2.4,0.5,3.6,0.7c2.8,0.6,4.2-0.3,5-3c1.4-4.6,0.5-5.8-4.3-5.9
			c-4.5-0.1-6.7,1.4-8.3,5.6c-0.3,0.6,1,2.3,2,2.4C30.8,99.6,31.5,99.6,32.2,99.6C32.2,99.7,32.2,99.7,32.2,99.6z"/>
		<path id="XMLID_272_" class="st11" d="M60.8,76.4c-3.1,0-4.8,1.9-6.1,4.4c-0.6,1.3-1.3,2.5-2,3.9c0.7,0.3,1.4,0.3,2.2,0.1
			c1.4-0.4,2.9-0.7,4.3-0.9c1.5-0.2,3.2-0.2,4.3,1.1c1,1.1,1.4,0.4,1.9-0.4c2-3.3,0.6-6.5-3.4-8C61.7,76.1,61.3,76.1,60.8,76.4z"/>
		<path id="XMLID_271_" class="st1" d="M66,98.6c-1.9,0.6-3.7,1.1-5.7,1c0.9-2.1,2.6-3.7,2.9-6c-3.3,3-6.4,6.2-10.5,8.8
			c2,0.2,3.6,0.4,5.4,0.6c-1.8,2.6-3.7,4.9-5.1,7.7C62.2,104.6,64.9,102.1,66,98.6z"/>
		<path id="XMLID_270_" class="st12" d="M28.8,117c-2.2-0.7-4.4-0.9-6.6-0.9c-0.6,0-0.9,0.2-1.1,0.7c-0.5,1.1-1.1,2.2-1.7,3.5
			c2.1,0.2,4,0.4,5.9,0.7c0.7,0.1,1-0.4,1.3-0.8C27.4,119.2,28.4,118.3,28.8,117z"/>
		<path id="XMLID_269_" class="st13" d="M67,76.7c-0.4-0.5-1.4-0.4-1.3-1.4c-0.4,0.2-0.7,0.5-1.1,0.1c-0.6-0.5-1.1-0.3-1.5,0.4
			c4.5,1.2,6,5.9,3.5,10.5c-0.3,0.5-1.3,1.1-0.6,1.7c0.5,0.4,1.2-0.3,1.8-0.7c4-2.8,4.3-5.1,0.9-8.9C68.1,77.9,67.6,77.3,67,76.7z"
			/>
		<path id="XMLID_268_" class="st14" d="M44,85.2c-0.5,0.2-1.1-0.4-1.5,0.2c4.4,1.4,6.1,8.4,4,13.9c2.2,0.2,2.2,0.2,2.7-1.9
			C50.3,92.2,48.1,87,44,85.2z"/>
		<path id="XMLID_267_" class="st15" d="M23,113c2.4,0.5,4.9,0.5,7.2,1.2c1,0.3,1.2-1,1.4-1.6c0.3-0.7-0.5-0.7-0.9-0.7
			c-2-0.3-4-0.6-6-0.7C23.6,111,23.6,111.1,23,113z"/>
		<path id="XMLID_266_" class="st15" d="M27,104.2c2.7,0.1,5.2,0.4,7.6,1c1.2,0.3,1.4-0.5,1.6-1.2c0.3-1.1-0.7-0.8-1.2-0.9
			c-1.8-0.3-3.6-0.4-5.3-0.7C28.3,102,27.3,102.4,27,104.2z"/>
		<path id="XMLID_265_" class="st16" d="M62.1,89.9c-3,2.7-6.1,5.5-10.1,6.7c-0.6,0.2-1,0.7-0.8,1.2c0.3,0.6,0.9,0.2,1.3,0
			c4-1.5,7.2-4.3,10-7.4C62.7,90.1,62.6,89.9,62.1,89.9z"/>
		<path id="XMLID_264_" class="st17" d="M32.1,107.4c-1.5-0.2-3-0.3-4.5-0.5c-0.6-0.2-1.2-0.6-1.8,0c-0.9,0.9-1,1.4,0.5,1.5
			c2.2,0.1,4.3,0.5,6.4,1.1c0.7,0.2,1-0.1,1.3-0.6c0.4-0.7-0.3-0.8-0.5-1.1C33,107.2,32.5,107.4,32.1,107.4z"/>
		<path id="XMLID_263_" class="st18" d="M58.4,108.6c0.1,0.2,0.3,0.3,0.4,0.5c0.8-0.5,1.6-1.1,2.4-1.6
			C60,107.3,59.2,107.9,58.4,108.6z"/>
		<path id="XMLID_262_" class="st19" d="M62.1,89.9c0.1,0.2,0.3,0.4,0.4,0.6c0.1,0,0.1,0,0.2-0.1c0.4-0.6,1.7-1.4,1.2-1.8
			C63.1,88.1,62.7,89.4,62.1,89.9z"/>
		<g id="XMLID_369_">
			<g id="XMLID_4_">
				<path id="XMLID_23_" class="st0" d="M89,110.3c0,1-0.7,0.5-1.2,0.5c-0.6-0.1-1.2,0.1-1.8-0.3C87,109.7,88,110.1,89,110.3z"/>
				<path id="XMLID_22_" class="st0" d="M86.6,102.5c0.1,0.3,0.4,0.4,0.7,0.4c-0.8,0.5-1.6,0.8-2.8,0.8
					C85.2,102.9,85.9,102.7,86.6,102.5z"/>
				<path id="XMLID_21_" class="st20" d="M86,110.5C86,110.5,86,110.5,86,110.5L86,110.5L86,110.5z"/>
				<path id="XMLID_20_" class="st9" d="M86,110.5L86,110.5C86,110.6,86,110.6,86,110.5C86,110.5,86,110.5,86,110.5z"/>
				<path id="XMLID_19_" class="st0" d="M82.3,110.8c1.2-0.5,2.4-0.8,3.7-0.2c-1.2,0.6-2.4,0.8-3.7,0.4L82.3,110.8z"/>
				<path id="XMLID_18_" class="st0" d="M82.3,110.8l0,0.1c-0.7,1-1.6,0.2-2.3,0.3c0-0.1,0-0.3,0-0.4
					C80.8,110.7,81.5,110.3,82.3,110.8z"/>
				<path id="XMLID_17_" class="st0" d="M66,66.8c0.5-0.4,1-0.7,1.6-0.6c-0.3,0.6-0.7,0.9-1.3,0.9C66.2,67,66.1,66.9,66,66.8z"/>
				<path id="XMLID_16_" class="st0" d="M62.5,76.3c0.2,0.1-0.3,0.2-0.4,0.3c-0.4-0.1-0.9-0.1-1.3-0.2c0-0.1-0.1-0.1-0.1-0.2
					c0-0.1,0-0.2,0.1-0.2C61.4,76.1,62,76.1,62.5,76.3z"/>
				<path id="XMLID_15_" class="st0" d="M55.5,131.9c0.1,0.3,0.5,0.4,0.8,0.5c-0.5,0.2-1.2,0.5-1.5,0
					C54.5,132,55.1,131.9,55.5,131.9z"/>
				<path id="XMLID_14_" class="st0" d="M50.5,77.3c0.1,0.2,0.3,0.4,0.4,0.5c-0.4,0.4-0.6,1-1.6,0.9C49.8,78.2,50.1,77.7,50.5,77.3z
					"/>
				<path id="XMLID_13_" class="st0" d="M44.4,84.6c-0.2,0.1-0.3,0.2-0.5,0.4c-0.9-0.8-2.3-0.1-3.2-0.9
					C41.9,84.2,43.2,84.2,44.4,84.6z"/>
				<path id="XMLID_12_" class="st0" d="M43.9,84.9c0,0.1,0.1,0.2,0.1,0.3c-0.4,0.5-1-0.1-1.5,0.2c-0.9-0.1-1.9-0.1-2.1-1.3l0.2-0.1
					l0.2,0.1C41.6,85,42.9,84.5,43.9,84.9z"/>
				<path id="XMLID_11_" class="st0" d="M40.7,84.1c1,0.7,2.3,0.1,3.2,0.9C42.9,84.5,41.6,85,40.7,84.1z"/>
				<path id="XMLID_10_" class="st0" d="M36,95.6c0.4,0,1-0.1,0.9,0.6c-0.1,0.5-0.3,1-0.9,0.9c-1.1-0.1-2.1-0.2-3.1-0.3
					c-0.5-0.1-0.7-0.5-0.6-1c0.1-0.9,0.7-0.7,1.2-0.6C34.2,96,35.1,96,36,95.6z"/>
				<path id="XMLID_9_" class="st0" d="M36,95.6c-0.9,0.1-1.8,0.1-2.6-0.3C34.3,95.2,35.2,95.3,36,95.6z"/>
				<path id="XMLID_8_" class="st0" d="M33.5,95.3c0.8,0.4,1.7,0.4,2.6,0.3C35.1,96,34.2,96,33.5,95.3z"/>
				<path id="XMLID_7_" class="st0" d="M33.8,107.4c0.3,0,0.2,0.2,0,0.3c-0.1,0.1-0.2,0.1-0.4,0.1c-0.4-0.1-0.9-0.2-1.3-0.3
					C32.6,107,33.2,107.3,33.8,107.4z"/>
				<path id="XMLID_6_" class="st0" d="M27.6,106.9c-0.6,0-1.2,0-1.8,0C26.4,106.2,27,106.4,27.6,106.9z"/>
				<path id="XMLID_5_" class="st0" d="M18,123.2c0.3,0.1,0.9,0,0.7,0.5c-0.1,0.4-0.6,0.2-1,0.1c-0.4-0.3-0.7-0.5-1-0.7
					C17.2,123.1,17.6,123.1,18,123.2z"/>
				<path id="XMLID_67_" class="st0" d="M13.9,122.6c0.6,0.1,1.1,0.2,1.7,0.3c-0.9,0.5-1.7,0.1-2.5-0.3
					C13.4,122.6,13.7,122.6,13.9,122.6z"/>
				<path id="XMLID_68_" class="st0" d="M7,129.7c0,0.1,0,0.2,0,0.3c-0.3,0-0.6,0-0.8,0.1c-0.6-0.1-1.1-0.1-1.7-0.2
					c0-0.1-0.1-0.1-0.1-0.2c0-0.1,0-0.2,0.1-0.2C5.3,129.6,6.1,129.6,7,129.7z"/>
			</g>
			<g id="XMLID_69_">
			</g>
		</g>
	</g>
</g>
</svg>
