<?xml version="1.0" encoding="utf-8"?>
<!-- Generator: Adobe Illustrator 19.0.0, SVG Export Plug-In . SVG Version: 6.00 Build 0)  -->
<svg version="1.1" id="Layer_1" xmlns="http://www.w3.org/2000/svg" xmlns:xlink="http://www.w3.org/1999/xlink" x="0px" y="0px"
	 viewBox="0 0 105.8 58.1" style="enable-background:new 0 0 105.8 58.1;" xml:space="preserve">
<style type="text/css">
	.st0{fill:#212121;}
	.st1{fill:#FEDD00;}
	.st2{fill:#FBEF9C;}
	.st3{fill:#FABB15;}
	.st4{fill:#FBBA14;}
	.st5{fill:#2E313A;}
	.st6{fill:#535353;}
	.st7{fill:#515151;}
	.st8{fill:#505050;}
	.st9{fill:#4C4C4C;}
	.st10{fill:#FFFFFF;}
	.st11{fill:#FEFEFE;}
	.st12{fill:#FBFBFB;}
	.st13{fill:#F9F9F9;}
	.st14{fill:#F8F7F7;}
	.st15{fill:#F6F5F5;}
	.st16{fill:#F1F1F0;}
	.st17{fill:#F4F4F4;}
	.st18{fill:#E4E4E4;}
	.st19{fill:#DBDADA;}
	.st20{fill:#525252;}
	.st21{fill:#414042;stroke:#414042;stroke-width:0.5;stroke-miterlimit:10;}
</style>
<g id="XMLID_408_">
	<g id="XMLID_310_">
		<g id="XMLID_325_">
			<g id="XMLID_62_">
				<path id="XMLID_64_" class="st0" d="M29.7,26.1c0.1,0,0.3,0,0.5,0c-5.7,10.6-11.4,21.1-17.2,31.7c0.1-1.6,0.2-3,0.3-4.4
					c0.3-3.9,0.5-7.8,0.8-11.7c0-0.6,0.1-1.2,0.1-1.8c0-0.3,0-0.4-0.2-0.4c-0.1,0-0.2,0-0.3,0c-3.4,0-6.9,0-10.4,0
					c7.3-13.1,14.5-26.2,21.7-39.2c0,0.7-0.2,1.3-0.3,1.9c-1.8,7.8-3.6,15.6-5.4,23.5c-0.1,0.5,0,0.5,0.3,0.5
					C23,26.1,26.4,26.1,29.7,26.1z M28.1,27.7c-1,0-1.9-0.1-2.8,0c-0.9,0-1.9,0-2.8,0c-1.5,0-3,0-4.5,0c0-0.1-0.1-0.2-0.2-0.2
					c0-0.1,0-0.1,0-0.2c1.1-5,2.3-9.9,3.4-14.9c0.3-1.3,0.7-2.7,0.9-4.1c0-0.1,0-0.3-0.1-0.2c-0.1,0-0.2,0.2-0.2,0.4l0,0
					c-0.1-0.1-0.1,0-0.1,0.1c-0.1,0.1-0.2,0.2-0.2,0.4c-0.1,0-0.1,0.1-0.2,0.2c-0.1,0-0.2,0.2-0.2,0.3c-4.7,8.4-9.3,16.9-14,25.3
					c-0.5,0.9-1,1.9-1.6,2.9c1,0,1.9,0,2.7,0c0.2,0,0.4,0,0.6,0c2.2,0,4.3,0,6.5,0c-0.3,3.9-0.5,7.8-0.7,11.7
					c-0.1,0.9-0.2,1.8-0.1,2.6c0,0.1-0.1,0.2,0,0.3c0.1,0.1,0.1,0,0.2-0.1c0.1-0.3,0.3-0.6,0.4-0.9c0.1-0.1,0.2-0.3,0.3-0.5h0
					c0.1-0.1,0.2-0.3,0.3-0.4c3.7-6.8,7.4-13.5,11-20.3C27.1,29.5,27.6,28.7,28.1,27.7z"/>
			</g>
			<g id="XMLID_63_">
			</g>
		</g>
		<path id="XMLID_321_" class="st1" d="M15.1,51.6c-0.1,0.3-0.3,0.6-0.4,0.9c0,0.1-0.1,0.2-0.2,0.1c-0.1-0.1,0-0.2,0-0.3
			c0.1-0.2,0.1-0.4,0.2-0.6c0.8-3.3,1.7-6.7,2.5-10c0.3-1.2,0.6-2.4,0.9-3.7c-0.9,0-1.8,0-2.7,0c-2.2,0-4.3,0-6.5,0
			c-0.2,0-0.4,0-0.6,0c0.4-0.8,0.8-1.7,1.1-2.5c1.8-3.9,3.6-7.9,5.5-11.8c1.8-3.9,3.7-7.9,5.5-11.9c0.3-0.8,0.8-1.4,1-2.3l0,0
			c0.1,0,0.2-0.1,0.2-0.3l0,0c0,0,0.1-0.1,0.1-0.1l0,0c0,0.3-0.1,0.6-0.2,0.9c-1,2.7-2,5.4-3,8.1c-0.7,2-1.5,4-2.2,5.9
			c-0.4,1.1-0.8,2.2-1.2,3.4c-0.1,0.2-0.2,0.5,0.1,0.5c0.8,0,1.7,0.1,2.5,0c0.1,0,0.1,0,0.2,0c1.5,0,3,0,4.5,0c0.9,0,1.9,0,2.8,0
			c0,0.3-0.2,0.5-0.2,0.7c-0.8,1.9-1.7,3.8-2.5,5.7c-1,2.3-2,4.6-3,6.9c-1.4,3.1-2.7,6.3-4.1,9.4c-0.1,0.2-0.2,0.4-0.1,0.6l0,0
			C15.1,51.1,15.1,51.3,15.1,51.6z"/>
		<path id="XMLID_320_" class="st2" d="M21.5,9.4c-0.2,0.9-0.6,1.6-1,2.3c-1.8,4-3.7,7.9-5.5,11.9c-1.8,3.9-3.6,7.9-5.5,11.8
			c-0.4,0.8-0.8,1.7-1.1,2.5c-0.9,0-1.8,0-2.7,0c0.6-1,1.1-1.9,1.6-2.9c4.7-8.4,9.3-16.9,14-25.3C21.3,9.6,21.3,9.4,21.5,9.4z"/>
		<path id="XMLID_319_" class="st3" d="M15.3,51.1c-0.1-0.3,0.1-0.4,0.1-0.6c1.4-3.1,2.7-6.3,4.1-9.4c1-2.3,2-4.6,3-6.9
			c0.8-1.9,1.7-3.8,2.5-5.7c0.1-0.2,0.2-0.4,0.2-0.7c0.9-0.1,1.8,0,2.8,0c-0.5,0.9-1,1.8-1.4,2.6c-3.7,6.8-7.4,13.6-11,20.3
			C15.5,50.8,15.4,50.9,15.3,51.1z"/>
		<path id="XMLID_318_" class="st4" d="M17.8,27.7c-0.8,0.1-1.7,0-2.5,0c-0.3,0-0.2-0.3-0.1-0.5c0.4-1.1,0.8-2.3,1.2-3.4
			c0.7-2,1.5-4,2.2-5.9c1-2.7,2-5.4,3-8.1c0.1-0.3,0.2-0.5,0.2-0.9c0.2,0,0.2-0.2,0.1-0.4l0,0c0.1-0.1,0.2-0.1,0.3-0.2
			c-0.2,1.4-0.6,2.7-0.9,4.1c-1.1,5-2.3,9.9-3.4,14.9c0,0.1,0,0.1,0,0.2C17.8,27.6,17.8,27.6,17.8,27.7z"/>
		<path id="XMLID_317_" class="st2" d="M15.4,37.9c0.9,0,1.8,0,2.7,0c-0.3,1.3-0.6,2.5-0.9,3.7c-0.8,3.3-1.7,6.7-2.5,10
			c-0.1,0.2-0.1,0.4-0.2,0.6c-0.1-0.9,0.1-1.8,0.1-2.6C14.9,45.7,15.2,41.8,15.4,37.9z"/>
		<path id="XMLID_316_" class="st1" d="M22.2,8.4c-0.1,0.1-0.2,0.1-0.3,0.2c0-0.2,0.1-0.4,0.2-0.4C22.2,8.1,22.2,8.3,22.2,8.4z"/>
		<path id="XMLID_315_" class="st3" d="M15.1,51.6c0-0.3,0-0.5,0.3-0.5C15.3,51.3,15.2,51.4,15.1,51.6z"/>
		<path id="XMLID_314_" class="st1" d="M21.9,8.6c0,0.2,0,0.4-0.1,0.4l0,0c0-0.1,0-0.2,0-0.2C21.8,8.6,21.8,8.5,21.9,8.6z"/>
		<path id="XMLID_313_" class="st2" d="M21.8,8.7c0,0.1,0,0.2,0,0.2c0,0-0.1,0.1-0.1,0.1C21.6,8.9,21.7,8.8,21.8,8.7z"/>
		<path id="XMLID_312_" class="st2" d="M21.6,9.1c0,0.2,0,0.3-0.2,0.3C21.5,9.2,21.5,9.1,21.6,9.1z"/>
		<path id="XMLID_311_" class="st5" d="M17.8,27.7c0-0.1,0-0.1,0-0.2c0.1,0,0.1,0,0.2,0.2C17.9,27.7,17.8,27.7,17.8,27.7z"/>
	</g>
	<g id="XMLID_253_">
		<g id="XMLID_322_">
			<g id="XMLID_59_">
				<path id="XMLID_61_" class="st0" d="M24.9,28.6c0.7,0.2,0.8,0.7,0.7,1.4c-0.1,0.4-0.1,0.8-0.1,1.1c-0.2,1.2-0.9,2.1-1.8,2.8
					c-1,0.9-2.2,1.5-3.3,2.3c-1.2,0.8-2.2,1.7-2.9,3c-0.8,1.5-1.9,2.8-3.6,3.5c-4,1.8-8.1,2-12.2,0.6c-0.5-0.2-0.9-0.4-1.2-0.8
					c-0.4-0.5,0-0.9,0.1-1.4c0.4-1.3,1.3-2.1,2.6-2.6c0.6-0.2,1.1-0.6,1.4-1.1c1.1-2,2.3-4.1,2.7-6.4c0-0.1,0.1-0.3,0.2-0.3
					c0.5,0,0.6-0.5,0.8-0.8c0.4-0.7,0.8-1.5,1.2-2.2c0.3-0.6,0.8-0.9,1.4-1.1c0.6-0.2,1.3-0.2,2-0.2c0.2,0.2,0.5,0.2,0.7,0.3
					c0.7,0.2,1.1,0.7,1.3,1.4c0.3,0.7,0.4,1.5,0.2,2.3c0,0.2-0.1,0.4,0,0.6c0.4-0.3,0.4-0.6,0.4-1c0-1.3-0.4-2.4-1.5-3.1
					c0,0-0.1-0.1-0.1-0.2c0-0.1,0.1-0.1,0.2-0.2c0.1,0,0.2,0,0.3,0.1c0.9,0.8,1.4,0.1,2-0.4c0.3-0.2,0.4-0.6,0.5-0.9
					c0.6-1.1,1.4-1.7,2.6-1.8c0.1,0.1,0.3,0.1,0.4,0.2c0.6,0.2,1,0.5,1.3,1c0.5,0.9,0.1,1.8-0.3,2.7c1-0.5,1.3-0.9,1.2-1.6
					c-0.1-0.4-0.3-0.7-0.5-1c-0.2-0.2-0.5-0.4-0.5-0.8c0-0.1,0.1-0.1,0.2-0.1c0.8,0.6,1.3,1.3,1.6,2.3
					C23.2,27.3,23.7,28.3,24.9,28.6z"/>
			</g>
			<g id="XMLID_60_">
			</g>
		</g>
		<path id="XMLID_282_" class="st6" d="M31.2,33.5c0,0.1,0.1,0.1,0.1,0.2c0.1-0.1,0.3-0.1,0.2-0.3C31.4,33.2,31.3,33.4,31.2,33.5z"
			/>
		<g id="XMLID_402_">
			<g id="XMLID_56_">
				<path id="XMLID_58_" class="st0" d="M34.1,24.3c0.1-0.1,0.2-0.2,0.4-0.2c-0.1,0.2-0.3,0.3-0.4,0.4
					C34.1,24.4,34.1,24.4,34.1,24.3z"/>
			</g>
			<g id="XMLID_57_">
			</g>
		</g>
		<g id="XMLID_395_">
			<g id="XMLID_52_">
				<path id="XMLID_55_" class="st0" d="M27.4,23.2c0.2-0.1,0.3-0.1,0.5,0c-0.2,0-0.3,0.1-0.4,0.1C27.5,23.3,27.5,23.2,27.4,23.2z"
					/>
				<path id="XMLID_54_" class="st0" d="M23.1,21.3c0.1-0.1,0.3-0.2,0.5-0.1c-0.1,0.1-0.2,0.3-0.4,0.2
					C23.2,21.4,23.1,21.3,23.1,21.3z"/>
			</g>
			<g id="XMLID_53_">
			</g>
		</g>
		<g id="XMLID_338_">
			<g id="XMLID_24_">
				<path id="XMLID_51_" class="st0" d="M34.1,24.3c0.1,0.1,0.1,0.1,0,0.2c-0.9,1-1.4,2.2-1.9,3.4c-0.9,2.3-2.6,3.6-4.8,4.4
					c-0.1,0.1-0.2,0.1-0.2-0.1c2.3-1,3.8-2.8,4.8-5.1c0-0.1,0.1-0.2-0.1-0.1c-0.4,0.4-0.8,0.9-1.1,1.4c-0.1,0.1-0.2,0.4-0.4,0.3
					c-0.2-0.1-0.2-0.3-0.2-0.5c0-0.3,0-0.5,0.1-1c-0.8,1-1.3,2-2.4,2.4c0.7-0.6,1.1-1.5,1.6-2.2c0.5-0.7,1.2-1.3,2.1-1.6
					c-0.3,0.7-0.8,1.3-0.9,2.1c0.4-0.2,0.5-0.4,0.7-0.7C32.1,26.2,32.9,25.1,34.1,24.3z"/>
				<path id="XMLID_50_" class="st0" d="M31.9,17.8c0,0.2-0.2,0.4-0.4,0.4C31.5,18,31.7,17.9,31.9,17.8z"/>
				<path id="XMLID_49_" class="st0" d="M31.5,21.7c0.2-0.3,0.6-0.6,1.2-0.7c-1.2,1.2-2,2.7-3.5,3.5c-0.1,0-0.2,0.1-0.2,0.2
					c-0.1,0.1-0.3,0.3-0.2,0.5c0.1,0.1,0.4,0.1,0.5,0c0.1-0.1,0.3-0.2,0.4-0.3c0.2-0.2,0.5-0.4,0.8-0.4c-0.4,0.5-0.9,1-1.3,1.6
					c-0.5,0.8-1.1,1.3-1.9,1.8c-0.6,0.4-1,0.5-1.6,0.5c0.7-1,2.2-1.1,2.7-2.2c-0.6-0.1-0.7-0.3-0.5-0.9c0.1-0.3,0.2-0.6,0.5-0.8
					c0.1-0.1,0.4-0.2,0.3-0.4c-0.3,0.2-0.6,0.2-0.9,0.2c-0.1,0-0.3,0.1-0.2-0.1c0.3-0.2,0.6-0.4,0.9-0.5
					C29.8,23.3,30.7,22.8,31.5,21.7z"/>
				<path id="XMLID_48_" class="st7" d="M31.5,18.2C31.5,18.2,31.5,18.2,31.5,18.2L31.5,18.2L31.5,18.2z"/>
				<path id="XMLID_47_" class="st8" d="M31.5,18.2L31.5,18.2C31.5,18.2,31.5,18.2,31.5,18.2C31.5,18.2,31.5,18.2,31.5,18.2z"/>
				<path id="XMLID_46_" class="st0" d="M31.2,33.5c0.1,0,0.2,0,0.1,0.2c-0.7,0.7-1.5,1.2-2.4,1.3c-1.5,0.2-3,0.7-4.3,1.3
					c-0.3,0.1-0.6,0.2-0.7,0.7c-0.2,0.2-0.4,0-0.6,0c-0.4-0.3-0.2-0.5,0-0.7c0.1-0.1,0.1-0.1,0.2-0.1c0.4-0.3,0.8-0.5,1.3-0.6
					c0.9-0.2,1.9-0.4,2.8-0.7c0.1-0.1,0.4-0.1,0.5-0.3c0-0.2,0.2-0.1,0.3-0.1C29.4,34.4,30.3,34,31.2,33.5z"/>
				<path id="XMLID_45_" class="st0" d="M31.5,18.2c-0.3,0.7-0.8,1.1-1.5,1.4c-0.8,0.4-1.5,0.9-2,1.7c-0.1,0-0.1,0-0.1-0.1
					c0.1-0.2,0.1-0.3,0.2-0.5c0.3-0.7,0.7-1.4,1.5-1.6C30.2,18.8,30.9,18.6,31.5,18.2z"/>
				<path id="XMLID_44_" class="st0" d="M28,30.6c0.1-0.1,0.2-0.2,0.4-0.1c-0.1,0.2-0.2,0.2-0.3,0.3C28.1,30.6,28.1,30.6,28,30.6z"
					/>
				<path id="XMLID_43_" class="st9" d="M28.1,30.7c0,0-0.1-0.1-0.1-0.1C28.1,30.6,28.1,30.6,28.1,30.7z"/>
				<path id="XMLID_42_" class="st0" d="M28,30.6c0,0,0.1,0.1,0.1,0.1c-0.4,0.6-0.9,1.1-1.7,1.2C27,31.6,27.3,30.8,28,30.6z"/>
				<path id="XMLID_41_" class="st0" d="M28,17.8c0,0.2,0,0.3-0.3,0.3C27.8,17.9,27.9,17.9,28,17.8z"/>
				<path id="XMLID_40_" class="st0" d="M25.3,36.9c0.7-0.3,1.4-0.8,2.3-0.7c-0.7,0.3-1.1,0.9-1.6,1.5c-1.4,1.6-3,2.9-5.1,3.5
					c-1,0.3-2,0.3-3.1,0.4c-0.1,0-0.3,0.1-0.2-0.2c0.6-0.2,1.2-0.3,1.8-0.5c0.3-0.1,0.6-0.2,1-0.4c0.2-0.1,0.5-0.6,0.8,0
					c0,0,0.2,0,0.3,0c1.6-0.7,3.2-1.4,4.1-3.1c0.2-0.4-0.1-0.2-0.2-0.3v0C25.3,37,25.3,37,25.3,36.9z"/>
				<path id="XMLID_39_" class="st0" d="M27.4,23.2c0.1,0,0.2,0,0.1,0.1c-1.2,0.4-2.3,0.9-3.1,1.9c-0.2,0-0.1-0.2-0.1-0.3
					c0.1-0.4,0.3-0.8,0.7-1C25.7,23.5,26.5,23.2,27.4,23.2z"/>
				<path id="XMLID_38_" class="st0" d="M26.7,26.1c0.2,0.3,0.2,0.3,0,0.4c-0.4,0.2-0.8,0.4-1.3,0.5c-0.1,0-0.2,0.1-0.2-0.1
					c0.6-0.2,0.9-0.9,1.5-1.2C26.7,25.8,26.6,26,26.7,26.1z"/>
				<path id="XMLID_37_" class="st0" d="M25.6,29.9c0.1,0.4,0,0.8-0.1,1.1C25.4,30.7,25.4,30.3,25.6,29.9z"/>
				<path id="XMLID_36_" class="st0" d="M25.1,19.9c0.9-0.5,1.7-1.1,2.5-1.7c-1.6,2.3-3.7,4-6.6,4.5c0.1-0.3,0.4-0.3,0.6-0.5
					c0.5-0.3,1.1-0.4,1.6-0.8c0,0,0.1-0.1,0-0.1c0,0-0.1,0-0.1,0c-0.8,0.1-1.6,0.6-2.5,0.5c0.2-0.2,0.3-0.3,0.4-0.4
					c0.1-0.4,0.4-0.5,0.8-0.6c0,0,0,0,0,0c0,0,0,0,0,0.1c0,0.3,0.1,0.4,0.4,0.3C23.3,20.9,24.2,20.5,25.1,19.9z"/>
				<path id="XMLID_35_" class="st0" d="M25.3,36.9c0,0,0,0.1,0,0.1C25.2,37,25.2,37,25.3,36.9z"/>
				<path id="XMLID_34_" class="st0" d="M24.6,37c0.2,0,0.5-0.1,0.7-0.1c0,0-0.1,0.1,0,0.1v0c-0.2,0.1-0.5,0.1-0.7,0.1
					C24.6,37.1,24.6,37.1,24.6,37C24.6,37.1,24.6,37,24.6,37L24.6,37z"/>
				<path id="XMLID_33_" class="st0" d="M25.2,34.8C25.2,34.9,25.2,34.9,25.2,34.8c-0.2,0.2-0.3,0.3-0.5,0.3c-0.4,0-0.8,0.3-1.2,0.5
					c-0.1,0.1-0.2,0.1-0.3,0.2c-0.8,0.6-1.4,1.3-2.3,1.7c-0.2,0.1-0.2,0.2,0,0.3c0.2,0.2,0.5,0.4,0.7,0.5c0.2,0.1,0.4,0.3,0.1,0.5
					c-0.6,0.5-1.4,0.8-2.2,0.9c0.4-0.3,0.8-0.6,1.2-0.8c0.4-0.3,0.3-0.7-0.2-0.9c-0.2-0.1-0.5,0-0.5-0.3c0-0.2,0.2-0.3,0.4-0.4
					c0.9-0.5,1.7-1.1,2.6-1.7C23.7,35.1,24.4,34.8,25.2,34.8C25.2,34.8,25.2,34.8,25.2,34.8z"/>
				<path id="XMLID_32_" class="st0" d="M24.6,37.1C24.6,37.1,24.6,37.1,24.6,37.1C24.5,37.1,24.5,37.1,24.6,37.1
					C24.6,37,24.6,37.1,24.6,37.1z"/>
				<path id="XMLID_31_" class="st0" d="M24.6,37L24.6,37c0,0,0,0.1,0,0.1c-0.4,0-0.9,0.2-1.3-0.1c0.2,0.1,0.4,0.2,0.6,0
					C24.1,37,24.3,37,24.6,37z"/>
				<path id="XMLID_30_" class="st0" d="M23.3,37c0.2,0,0.4,0.1,0.6,0C23.7,37.3,23.5,37.1,23.3,37z"/>
				<path id="XMLID_29_" class="st0" d="M21.3,24c-0.1,0-0.1,0.1-0.2,0.1c-0.3,0-0.6,0-0.4-0.4C20.9,23.7,21.1,23.8,21.3,24z"/>
				<path id="XMLID_28_" class="st0" d="M20.9,21.1C20.9,21.1,20.9,21.2,20.9,21.1c-0.2,0.1-0.3,0.2-0.4,0.3
					c-1.9,0.4-3.3,1.5-4.4,3.1c0,0,0,0-0.1,0c-0.1,0-0.2,0-0.1-0.2c0.5-1.3,1.3-2.3,2.7-2.7c0.7-0.2,1.5-0.3,2.2-0.6
					C20.8,21,20.9,21,20.9,21.1z"/>
				<path id="XMLID_27_" class="st0" d="M20.7,23.7C20.7,23.8,20.7,23.8,20.7,23.7c-0.3,0.3-0.6-0.1-0.8,0.1c-0.2,0-0.3-0.1-0.3-0.3
					C20,23.5,20.4,23.5,20.7,23.7z"/>
				<path id="XMLID_26_" class="st0" d="M19,40C19.1,40,19.1,40,19,40c0.1,0.2,0,0.2,0,0.2c0,0-0.1,0-0.1,0c0,0-0.1,0-0.2-0.1
					C18.9,40,19,40,19,40C19,40,19,40,19,40z"/>
			</g>
			<g id="XMLID_25_">
			</g>
		</g>
		<path id="XMLID_275_" class="st10" d="M5.1,38.6c0.1,0,0.2,0,0.3,0c0.1,0.1,0.4-0.1,0.3,0.2C4.9,39,4,38.8,3.1,39.2
			c2.7,0.9,5.4,1.1,8.1,0.4c0.7-0.2,1.3-0.6,1.9-1c0.5-0.4,1.1-0.6,1.7-0.3c0.5,0.2,0.6-0.2,0.8-0.5c0.3-0.5,0.6-1.1,0.9-1.6
			c0.5-0.8,1.3-1.3,2-1.8c0-0.1,0-0.2-0.1-0.2c-0.6,0.3-1.1,0.7-1.6,1.1c-0.1,0.1-0.3,0.2-0.4,0.1c-0.2-0.1-0.1-0.3,0-0.4
			c0.2-0.5,0.4-1,0.7-1.5c0.2-0.3,0.1-0.4-0.2-0.5c-0.6-0.2-1.3-0.2-1.9-0.1c-0.3,0.1-0.5,0.3-0.7,0.5c-0.4,0.5-0.7,1-0.9,1.6
			c-0.4,1.2-1.3,2-2.3,2.7c-0.2,0.1-0.3,0.1-0.5,0.1c-0.7-0.1-1.5-0.3-2,0.5c-0.1,0.2-0.3,0.3-0.6,0.2c-0.7-0.1-1.5-0.1-2.2-0.2
			c-0.3,0-0.4-0.1-0.1-0.4c0.1-0.1,0.2-0.2,0.2-0.3c0.1-0.1,0.3-0.3,0-0.4c-0.2-0.1-0.4-0.3-0.6,0C5,37.5,4.9,38,4.3,38.2
			c-0.1,0.1,0.1,0.2,0.2,0.3C4.7,38.6,4.9,38.6,5.1,38.6z"/>
		<path id="XMLID_274_" class="st11" d="M1.6,40.8c0,0-0.1,0.1-0.1,0.1c-0.4,0.1-0.7,0.4-0.7,0.8C0.7,42,1.2,42,1.5,42
			c0.9,0.1,1.8,0.5,2.6,0.9c0.9,0.4,2,0.4,3,0.4c2.7,0,5.1-0.9,7.4-2.3c1.2-0.8,1.8-1.9,2.4-3.1c0.3-0.6,0.6-1.2,0.9-1.8
			c0.3-0.5,0.7-0.9,1.4-0.8c0.7,0,1.2-0.5,1.8-0.8c1.5-0.8,2.7-2,3.2-3.7c0.3-0.9,0.2-1.1-0.6-1.9c-0.1,0.7-0.3,1.4-0.7,2
			c-0.6,1.1-1.5,1.9-2.5,2.6c-0.5,0.4-1.1,0.8-1.7,1.2c-1.3,0.8-2.2,1.9-2.7,3.3c-0.6,1.7-1.8,2.6-3.3,3.3c-2.1,0.9-4.3,1.5-6.6,1.3
			c-0.6-0.1-1.2-0.1-1.6-0.6c-0.5-0.6-1.2-0.9-2-1.1c-0.1,0-0.3-0.1-0.4-0.1C1.9,40.7,1.8,40.7,1.6,40.8z"/>
		<path id="XMLID_273_" class="st11" d="M10.2,31.3c0.4,0.1,0.8,0.1,1.1,0.2c0.9,0.2,1.3-0.1,1.6-0.9c0.4-1.4,0.2-1.8-1.4-1.8
			c-1.4,0-2.1,0.4-2.6,1.7c-0.1,0.2,0.3,0.7,0.6,0.8C9.8,31.3,10,31.3,10.2,31.3C10.2,31.3,10.2,31.3,10.2,31.3z"/>
		<path id="XMLID_272_" class="st11" d="M19.2,24c-1,0-1.5,0.6-1.9,1.4c-0.2,0.4-0.4,0.8-0.6,1.2c0.2,0.1,0.4,0.1,0.7,0
			c0.4-0.1,0.9-0.2,1.4-0.3c0.5-0.1,1-0.1,1.3,0.3c0.3,0.3,0.4,0.1,0.6-0.1c0.6-1,0.2-2-1.1-2.5C19.5,24,19.3,23.9,19.2,24z"/>
		<path id="XMLID_271_" class="st1" d="M20.8,31c-0.6,0.2-1.2,0.3-1.8,0.3c0.3-0.7,0.8-1.2,0.9-1.9c-1,0.9-2,1.9-3.3,2.7
			c0.6,0.1,1.1,0.1,1.7,0.2c-0.6,0.8-1.2,1.5-1.6,2.4C19.6,32.9,20.5,32.1,20.8,31z"/>
		<path id="XMLID_270_" class="st12" d="M9.2,36.7c-0.7-0.2-1.4-0.3-2.1-0.3c-0.2,0-0.3,0.1-0.3,0.2c-0.2,0.3-0.3,0.7-0.5,1.1
			c0.7,0.1,1.2,0.1,1.8,0.2c0.2,0,0.3-0.1,0.4-0.2C8.7,37.4,9,37.1,9.2,36.7z"/>
		<path id="XMLID_269_" class="st13" d="M21.1,24.1C21,24,20.7,24,20.7,23.7c-0.1,0-0.2,0.2-0.4,0c-0.2-0.2-0.4-0.1-0.5,0.1
			c1.4,0.4,1.9,1.8,1.1,3.3c-0.1,0.2-0.4,0.3-0.2,0.5c0.2,0.1,0.4-0.1,0.6-0.2c1.3-0.9,1.3-1.6,0.3-2.8
			C21.5,24.5,21.3,24.3,21.1,24.1z"/>
		<path id="XMLID_268_" class="st14" d="M13.9,26.8c-0.2,0-0.3-0.1-0.5,0.1c1.4,0.5,1.9,2.6,1.3,4.3c0.7,0.1,0.7,0,0.8-0.6
			C15.9,29,15.2,27.4,13.9,26.8z"/>
		<path id="XMLID_267_" class="st15" d="M7.4,35.5c0.8,0.1,1.5,0.1,2.3,0.4c0.3,0.1,0.4-0.3,0.4-0.5c0.1-0.2-0.2-0.2-0.3-0.2
			C9.2,35,8.5,35,7.9,34.9C7.5,34.9,7.5,34.9,7.4,35.5z"/>
		<path id="XMLID_266_" class="st15" d="M8.6,32.7c0.8,0,1.6,0.1,2.4,0.3c0.4,0.1,0.4-0.2,0.5-0.4c0.1-0.3-0.2-0.3-0.4-0.3
			c-0.6-0.1-1.1-0.1-1.7-0.2C9,32.1,8.7,32.2,8.6,32.7z"/>
		<path id="XMLID_265_" class="st16" d="M19.6,28.3c-0.9,0.9-1.9,1.7-3.2,2.1c-0.2,0.1-0.3,0.2-0.2,0.4c0.1,0.2,0.3,0.1,0.4,0
			c1.3-0.5,2.2-1.3,3.1-2.3C19.8,28.3,19.7,28.3,19.6,28.3z"/>
		<path id="XMLID_264_" class="st17" d="M10.2,33.7c-0.5-0.1-0.9-0.1-1.4-0.2c-0.2-0.1-0.4-0.2-0.6,0C8,33.8,7.9,34,8.4,34
			c0.7,0,1.3,0.2,2,0.3c0.2,0.1,0.3,0,0.4-0.2c0.1-0.2-0.1-0.2-0.2-0.3C10.5,33.7,10.3,33.7,10.2,33.7z"/>
		<path id="XMLID_263_" class="st18" d="M18.4,34.1c0,0.1,0.1,0.1,0.1,0.2c0.3-0.2,0.5-0.3,0.8-0.5C18.9,33.7,18.7,33.9,18.4,34.1z"
			/>
		<path id="XMLID_262_" class="st19" d="M19.6,28.3c0,0.1,0.1,0.1,0.1,0.2c0,0,0,0,0.1,0c0.1-0.2,0.5-0.4,0.4-0.6
			C19.9,27.7,19.8,28.1,19.6,28.3z"/>
		<g id="XMLID_369_">
			<g id="XMLID_4_">
				<path id="XMLID_23_" class="st0" d="M28,34.6c0,0.3-0.2,0.2-0.4,0.2c-0.2,0-0.4,0-0.6-0.1C27.4,34.5,27.7,34.6,28,34.6z"/>
				<path id="XMLID_22_" class="st0" d="M27.2,32.2c0,0.1,0.1,0.1,0.2,0.1c-0.2,0.1-0.5,0.3-0.9,0.3C26.8,32.3,27,32.3,27.2,32.2z"
					/>
				<path id="XMLID_21_" class="st20" d="M27.1,34.7C27.1,34.7,27.1,34.7,27.1,34.7L27.1,34.7L27.1,34.7z"/>
				<path id="XMLID_20_" class="st9" d="M27.1,34.7L27.1,34.7C27.1,34.7,27,34.7,27.1,34.7C27,34.7,27,34.7,27.1,34.7z"/>
				<path id="XMLID_19_" class="st0" d="M25.9,34.8c0.4-0.1,0.7-0.3,1.1-0.1C26.7,34.9,26.3,35,25.9,34.8L25.9,34.8z"/>
				<path id="XMLID_18_" class="st0" d="M25.9,34.8L25.9,34.8c-0.2,0.3-0.5,0.1-0.7,0.1c0,0,0-0.1,0-0.1
					C25.4,34.8,25.6,34.6,25.9,34.8z"/>
				<path id="XMLID_17_" class="st0" d="M20.8,21c0.1-0.1,0.3-0.2,0.5-0.2c-0.1,0.2-0.2,0.3-0.4,0.3C20.8,21.1,20.8,21.1,20.8,21z"
					/>
				<path id="XMLID_16_" class="st0" d="M19.7,24c0,0-0.1,0.1-0.1,0.1c-0.1,0-0.3,0-0.4,0c0,0,0,0,0-0.1c0,0,0,0,0,0
					C19.3,24,19.5,23.9,19.7,24z"/>
				<path id="XMLID_15_" class="st0" d="M17.5,41.4c0,0.1,0.1,0.1,0.2,0.2c-0.2,0.1-0.4,0.1-0.5,0C17.2,41.4,17.4,41.4,17.5,41.4z"
					/>
				<path id="XMLID_14_" class="st0" d="M15.9,24.3c0,0.1,0.1,0.1,0.1,0.2c-0.1,0.1-0.2,0.3-0.5,0.3C15.7,24.6,15.8,24.5,15.9,24.3z
					"/>
				<path id="XMLID_13_" class="st0" d="M14.1,26.6c-0.1,0-0.1,0.1-0.2,0.1c-0.3-0.2-0.7,0-1-0.3C13.3,26.5,13.7,26.5,14.1,26.6z"/>
				<path id="XMLID_12_" class="st0" d="M13.9,26.7C13.9,26.7,13.9,26.8,13.9,26.7c-0.1,0.3-0.3,0-0.4,0.1c-0.3,0-0.6,0-0.7-0.4l0,0
					l0,0C13.2,26.7,13.6,26.6,13.9,26.7z"/>
				<path id="XMLID_11_" class="st0" d="M12.9,26.4c0.3,0.2,0.7,0,1,0.3C13.6,26.6,13.2,26.7,12.9,26.4z"/>
				<path id="XMLID_10_" class="st0" d="M11.4,30.1c0.1,0,0.3,0,0.3,0.2c0,0.1-0.1,0.3-0.3,0.3c-0.3,0-0.7-0.1-1-0.1
					c-0.2,0-0.2-0.1-0.2-0.3c0-0.3,0.2-0.2,0.4-0.2C10.9,30.2,11.1,30.2,11.4,30.1z"/>
				<path id="XMLID_9_" class="st0" d="M11.4,30.1c-0.3,0-0.5,0-0.8-0.1C10.9,29.9,11.2,30,11.4,30.1z"/>
				<path id="XMLID_8_" class="st0" d="M10.6,30c0.3,0.1,0.5,0.1,0.8,0.1C11.1,30.2,10.9,30.2,10.6,30z"/>
				<path id="XMLID_7_" class="st0" d="M10.7,33.7C10.8,33.7,10.8,33.8,10.7,33.7c0,0.1-0.1,0.1-0.1,0.1c-0.1,0-0.3-0.1-0.4-0.1
					C10.4,33.6,10.5,33.7,10.7,33.7z"/>
				<path id="XMLID_6_" class="st0" d="M8.8,33.6c-0.2,0-0.4,0-0.6,0C8.4,33.4,8.6,33.4,8.8,33.6z"/>
				<path id="XMLID_5_" class="st0" d="M5.8,38.7c0.1,0,0.3,0,0.2,0.2c0,0.1-0.2,0.1-0.3,0c-0.1-0.1-0.2-0.2-0.3-0.2
					C5.5,38.6,5.7,38.6,5.8,38.7z"/>
				<path id="XMLID_67_" class="st0" d="M4.5,38.5c0.2,0,0.4,0.1,0.5,0.1c-0.3,0.1-0.5,0-0.8-0.1C4.4,38.5,4.4,38.5,4.5,38.5z"/>
				<path id="XMLID_68_" class="st0" d="M2.4,40.7C2.4,40.7,2.4,40.8,2.4,40.7c-0.1,0.1-0.2,0.1-0.3,0.1c-0.2,0-0.3,0-0.5-0.1
					c0,0,0,0,0,0c0,0,0,0,0,0C1.8,40.7,2.1,40.7,2.4,40.7z"/>
			</g>
			<g id="XMLID_69_">
			</g>
		</g>
	</g>
</g>
<g id="XMLID_246_">
	<path id="XMLID_247_" class="st21" d="M35.3,25.5 M35.3,26.2 M35.3,23.8 M35.3,24.7 M35.3,24.8"/>
</g>
<g id="XMLID_1_">
	<g id="XMLID_138_">
		<g id="XMLID_70_">
			<path id="XMLID_163_" class="st0" d="M105.2,25.5l-0.1,0.2l-0.1-0.1l-0.3,0.2l0.1,0.3h-0.1c-0.1,0-0.2,0.1-0.2,0.3h-0.2l0.1-0.1
				v-0.1l-0.2-0.1v0.1l0,0.1l-0.4,0.1v-0.2l-0.2,0.2h-0.1v-0.2l-0.5,0.2l-0.5-0.2l-0.2,0.1l-0.3-0.1v0.1l-0.2-0.2v0.1l0-0.1
				l-0.2,0.1l-0.9-0.2l-0.1,0.1h0l-0.2-0.1l-0.1,0.1h-0.1l0-0.1V26l-0.1-0.1h-0.1l0,0.1l-0.5-0.3v0.1l0.1,0.1h-0.5v-0.2l0,0.1h-0.1
				l-0.1-0.1L99,25.9l-0.2-0.2l-0.2,0.1l-0.2-0.1l-0.2,0.1l-1.1-0.1l-0.1,0.1h-0.1l-0.3-0.2l-0.1,0.1h-0.1l-0.3-0.3L96,25.7v-0.1
				l0,0.1h-0.1l-0.1-0.2l0.3-0.2l0.1,0.1h0.3l0.1-0.1l-0.1-0.1h0.1l0.1,0.1l0-0.1h0.1l0.2,0.1h0.1v-0.1c-0.3,0-0.5-0.2-0.5-0.5
				c0-0.5-0.1-0.8-0.1-0.8h-0.1v-0.1h0.1l0-0.1v-0.1l0-0.3l0-0.1v-0.1l0.1-0.3l-0.1,0.1h-0.1c0-0.2,0-0.3-0.1-0.3l0.1-0.2l-0.1-0.4
				l0.1-0.1h-0.1l0.1-0.1v-0.4h-0.1v-0.2h0l0.1,0.1h0.1v-0.2l-0.1-0.2v-0.1h0.1v-0.1l-0.1-0.1v-0.1l0.1-0.3h0l-0.1,0.1l-0.1-0.1
				v-0.3l0.1-0.2c-0.1,0-0.1-0.1-0.2-0.4l0.1-0.2V19h-0.1l0-0.1v-0.2l-0.2-0.3v-0.1l0.2-0.3l0-0.1l0-0.4v-0.1l-0.1-0.3v-0.1l0.2-0.1
				l-0.1-0.1v-0.2l0.1-0.1v-0.1h-0.1l0-0.1v-0.1l-0.1-0.3c0.1,0,0.1-0.2,0.2-0.6c-0.1,0-0.2,0-0.2-0.2l0.1-0.3l0,0.1h0.1v-0.1
				l-0.1-0.1h0l0.1-0.6l-0.2-0.3V14h0.1l-0.1-0.3l0.1-0.1l0.1,0.1h0.1v-0.2l-0.1,0.1h0l-0.1-0.1v-0.2h0.1l0,0.1h0.1v-0.2l-0.1-0.3
				L96,13.2l0.1-0.1L96,13.1v-0.2l0.2,0.2h0.1V13c-0.1,0-0.2-0.1-0.2-0.2v-0.1l0.1,0.1h0l0-0.1v-0.2c0-0.1,0-0.2,0.2-0.2l-0.1-0.4
				l0.1-0.1h-0.1l0,0.1v-0.1l0-0.1l0-0.1v-0.1l0-0.3l-0.1-0.2l0.2-0.1v-0.5l-0.1-0.1l0.1-0.1v-0.1l-0.1-0.1v-0.1l0.1-0.1h-0.1V9.9
				h0.1V9.9h-0.1V9.7l0,0.1h0.2l-0.2-0.3c0.1,0,0.1-0.3,0.2-0.8h0.1l-0.1-0.1V8.6l0.1-0.2h-0.1V8.1l0.1,0.1h0.1l-0.2-0.6l0.1-0.4
				L96.4,7V6.7l0.1-0.3l-0.1-0.2h0.1L96.4,6V5.9l0.1-0.2L96.2,6V5.8l0-0.2h0.1l-0.1-0.1h0.1V5.1l0-0.1V4.9h0.1V4.9l1,0V4.8l0.1,0.1
				h0.2c1-0.1,1.8-0.1,2.6-0.1l0.1-0.1l0,0.1V4.7c0.2,0.1,0.4,0.2,0.7,0.2h0.2l0.1,0.1h0.1V4.9L103,5V4.9l0.3,0.2V5l0,0.1h0.2
				l0.1-0.1h0.1l0,0.1v0.1l0.1-0.1l0.5-0.1l0-0.1l0.1,0.1v0.1l0.2-0.3l0.5,0C105,4.9,105,5,105,5h0L104.9,5h-0.1v0.2l0.2,0.1V5
				l0.3,0.1c0,0.1-0.1,0.2-0.2,0.2v0.1h0.1l0.2-0.1l0.1,0.1v2l-0.1,0.1l0.1,0.1v0.3l-0.1,1.2l0.1,0.2l-0.1,0.7v1l0,0.6h0l0,0.1v0.2
				l0,0.1l-0.1,0.8h0.1l-0.1,0.1v1.6l-0.1,0.6h0.1l-0.1,0.8l0,0.1l0,1v0.7l-0.1,0.1l0.1,0.1V18l-0.1,0.6h0.1l-0.1,0.1v0.9l-0.1,0.1
				v0.1h0.1l-0.1,0.1v0.1l0.3,0.1l-0.1,1.8l0.1,0.1l-0.1,0.4l-0.1,2.9h0l0,0.1L105.2,25.5L105.2,25.5z M104.9,20.5l-2-6.5h0.1
				c1-0.6,1.6-1.7,1.6-3.2v-0.6c0-2.6-1.3-3.8-3.9-3.8h-3.3v14.1h2.1l0.2-0.2v-5.8h1.1l1.8,6H104.9z"/>
			<path id="XMLID_162_" class="st0" d="M105.1,4.7L105.1,4.7L105.1,4.7C105,4.8,105.1,4.7,105.1,4.7z"/>
			<path id="XMLID_159_" class="st10" d="M102.8,14l2,6.5h-2.4l-1.8-6h-1.1v5.8l-0.2,0.2h-2.1V6.4h3.3c2.6,0,3.9,1.3,3.9,3.8v0.6
				C104.5,12.4,103.9,13.5,102.8,14L102.8,14z M102.2,10.9v-0.7c0-1.1-0.5-1.7-1.6-1.7h-0.9v4.2h0.9C101.6,12.6,102.2,12,102.2,10.9
				z"/>
			<path id="XMLID_158_" class="st0" d="M102.2,10.1v0.7c0,1.2-0.5,1.7-1.6,1.7h-0.9V8.4h0.9C101.6,8.4,102.2,9,102.2,10.1z"/>
			<polygon id="XMLID_157_" class="st0" points="96.3,5.4 96.3,5.4 96.2,5.6 96.2,5.6 			"/>
			<path id="XMLID_154_" class="st0" d="M95.5,6.4c0.1,0.1,0.1,0.6,0,1.4c0,0.6,0,1.2,0,1.8c0,1,0,3-0.1,6v3.3c0,0.2,0,0.7-0.1,1.5
				c-0.1,0.8-0.1,2.1,0,3.9l-0.1,1.3l0,0l0,0c0,0.1-0.8,0.2-2.2,0.3c-1.1,0-1.8-0.1-2.1-0.2c-2.4,0.1-3.7,0-3.8-0.1
				c0.1-1.1,0.2-4.3,0.3-9.6c-0.1-2.1-0.2-3.6-0.1-4.6c0-2.6,0-4.2,0-4.8c0.3-0.1,1.1-0.1,2.3,0c0.2,0,0.7,0,1.5,0l1.9-0.1
				C93.8,6.3,94.7,6.3,95.5,6.4z M94.1,22.5l0-1.9l-3.7-0.1l-0.1,0l0.1-4l3-0.1c0-1.3,0-2,0-2l-2.9,0l0,0l0-3.8c2.2,0,3.4,0,3.7-0.1
				c0.1-1.1,0.1-1.7,0-1.9c-3.2-0.1-5.2-0.1-5.9,0c0,9.1,0,13.7,0.1,14C91.9,22.6,93.9,22.6,94.1,22.5L94.1,22.5z"/>
			<path id="XMLID_153_" class="st10" d="M94.2,20.6l0,1.9l0,0.1c-0.3,0.1-2.2,0.1-5.8,0.1c-0.1-0.3-0.1-4.9-0.1-14
				c0.7-0.1,2.6-0.1,5.9,0c0.1,0.2,0.1,0.9,0,1.9c-0.3,0-1.5,0.1-3.7,0.1l0,3.8l0,0l2.9,0c0.1,0,0.1,0.7,0,2l-3,0.1l-0.1,4l0.1,0
				L94.2,20.6z"/>
			<path id="XMLID_152_" class="st0" d="M88.9,50.8l0.1,0.3l-0.1,0.7l0.1,0.1l-0.1,0.1h-0.1l0.1,0.1l0,0.7l-0.2,0l-0.1-0.1l-0.1,0.1
				l-0.8,0l-0.1,0.1l-0.1,0l0-0.2l0,0.1l-0.6,0l-0.4-0.1l-0.1,0.1l-0.1-0.1v0.1l-0.1-0.1l-0.4,0l0,0.1l-0.4-0.2l-0.2,0.1l-0.2-0.1
				L85,52.7l-0.6-0.2l-0.1,0.1l-0.3-0.1l-0.6,0l-0.2-0.1l-0.1,0.1l-1.1-0.1l0,0.1l-0.4-0.2l0,0.1l-2.1-0.3v0.1
				c-0.2-0.1-0.6-0.2-1.3-0.1l-0.1-0.3h0.1l-0.2-1l0-0.8L78,49.9l0.1-0.1H78l0-0.1v-0.1l0-3.9h0l0-0.1l0-1l0-0.6l-0.1-0.1l0.1-0.5
				l-0.1-0.3l0-0.5l0-0.8l0.1-0.1l-0.1-0.1l0-5.3l-0.1,0l0.1-0.1v-0.3L77.9,36l0.1-0.1l-0.1-1.5l0-0.5l-0.1,0l0.1-0.1l0-0.7l0.3,0
				v0.2h0.1v-0.2l0.2,0l0.1,0.1l0.1-0.1l0.3,0.1l0.2-0.1l0.7,0.2l0.1-0.1h0l1,0.1l0-0.1l0,0.2H81l0.2-0.2l0.2,0.1l0-0.1l0.3,0.1
				l0.4,0l0.1,0.1l0.2-0.1l0.1,0l0,0.1l-0.1,0v0.1l0.3-0.1l0.5,0L83,33.4l0,0.1H83l0.1-0.1v-0.1l0.3,0.1h0.1l0.2-0.1l0.3,0.2l0-0.1
				l0.4,0l0.1,0.1l0.1-0.1l0.1,0l0.4,0.2l0.3-0.1l0.2,0l0.1,0.1l0.1-0.1l0.3,0l0.1,0.1l0-0.1l1,0l0.1-0.1H87l0.1,0.1v0.1l0.1-0.1
				l0.1,0l0.1,0.1h0.1l0-0.2l0.2,0l0.1,0.1l0.6-0.2v0.2l-0.1,0v0.1l0.1,0l0.2-0.3l0,0c0,0.2,0.1,0.3,0.1,0.3l0,0.1v0.2l0.1,0.1v0.1
				l0,0.1h0.1L88.5,34l0.1,0.5l0,0.9l0,0.6l0.1,0.1v0.1l-0.1,1.6l0.1,0.1L88.6,38l0.1,0.1l-0.1,0.1h-0.1h-0.2v0
				c-0.2-1.8-1.1-2.8-2.7-2.8l-0.4-0.1c-1.4,0-2.3,0.5-2.8,1.6c-0.2,0.4-0.3,0.8-0.3,1.3v0.7c0,1.7,1,3.2,3.1,4.7
				c0.9,0.8,1.3,1.7,1.3,2.7c0,0.9-0.3,1.4-1,1.4H85c-0.5,0-0.9-0.4-0.9-1.2v-1l-2,0.2v1.1c0.2,1.9,1.1,2.8,2.6,2.8l0.7,0.1h0.1
				c2.2,0,3.2-1.2,3.2-3.5c0,0,0,0,0,0h0.2l0.1,0.1l0,0.1c0,0.8,0,1.2-0.1,1.2l0.1,0.6h-0.1l0.1,0.4l0,0.5h0.1l-0.1,0.5l0.1,0.2
				l-0.1,0.2v0.1l0.1,0.6L88.9,50.8z"/>
			<path id="XMLID_151_" class="st0" d="M88.8,45.9l0,0.2l-0.1,0.1h-0.2c0-2-1.1-3.7-3.1-5.1c-0.9-0.8-1.3-1.7-1.3-2.6v-0.2
				c0.1-0.7,0.4-1,0.9-1h0.3c0.5,0,0.8,0.4,1,1V39l2-0.2v-0.6h0.2l0.1,0.5l-0.1,0.6h0.1l0,0.1v0.1l0.1,0.1l0,0.5l0,1.7l0,1h0.1
				l-0.1,0.1l0.1,1.2l-0.1,0.4l0.1,0.1v0.1l0,0.3l0.1,0.6h-0.1l0.1,0.1l0,0.2V45.9L88.8,45.9z"/>
			<path id="XMLID_150_" class="st10" d="M88.6,46.1C88.6,46.2,88.6,46.2,88.6,46.1c0,2.4-1.1,3.5-3.2,3.5h-0.1l-0.7-0.1
				c-1.5,0-2.3-0.9-2.6-2.8v-1.1l2-0.2v1c0.1,0.8,0.4,1.2,0.9,1.2h0.5c0.7,0,1-0.5,1-1.4c0-1-0.4-1.8-1.3-2.7
				c-2.1-1.5-3.1-3.1-3.1-4.7v-0.7c0-0.5,0.1-0.9,0.3-1.3c0.5-1.1,1.4-1.6,2.8-1.6l0.4,0.1c1.7,0,2.6,0.9,2.7,2.8v0v0.6l-2,0.2v-0.7
				c-0.1-0.7-0.4-1-1-1h-0.3c-0.5,0-0.8,0.4-0.9,1v0.2c0,0.9,0.4,1.7,1.3,2.6C87.6,42.4,88.6,44.1,88.6,46.1z"/>
			<path id="XMLID_147_" class="st0" d="M87,13.8L87,13.8l0,0.3l0,0.1l0,0.9v1.5l0,0.1l0,0v0.1l0,0.4l0,0.5v0.8l0,0.1L87,18.7V19
				l0,0.5l-0.1,0.5l0.1,0.1l0,0.3v0.3l0,0L86.9,21l0,0.1l0,0.5l0,0.3l0,0.4v0l0,0.1l0,0v0.1l0,0.5l0,0.4l0,1v0.1l0,0.1l0,0.1v0.3
				l-0.2,0l-0.3-0.1l-0.1,0.1l-7.8-0.9v-0.3l-0.1-0.2c-0.1,0-0.2,0-0.2,0l0,0c0.1,0,0.3-5.5,0.5-16.4c0-0.2,0-0.3,0-0.5
				c0.6,0.1,1,0.2,1.2,0.2l0.2-0.1l0.4,0.1l0-0.1L82,6.9l0.2-0.1l0.5,0.1l0.3,0l0.3,0v0c0.1,0.1,0.3,0.1,0.5,0.1h0.3l0-0.1l0,0.1
				h0.1c0.3,0,0.6,0.1,0.8,0.2L85,7l0.5,0.1L85.7,7l0.3,0.1l0.2,0v0l0,0h0.1l0.2,0l0.3,0C86.9,7.3,87,7.9,87,8.8l0,0v0.1L87,9V9
				l0,0.6l0,0.4l0,0.4h0l0,0.1v0.1l0,0.2l0,0.2l0,0.2l0,0.2l0,1.2l0,0.3l0,0.2l0,0l0,0.3V13.8L87,13.8z M85,19.6
				c0.6-5,0.9-7.7,0.9-8.2c0-2.2-1.3-3.3-4-3.3l-1.6-0.2c-1.1,8.9-1.6,13.5-1.6,14h0.1l3.3,0.4C83.6,22.3,84.6,21.4,85,19.6z"/>
			<path id="XMLID_144_" class="st10" d="M85.9,11.4c0,0.4-0.3,3.2-0.9,8.2c-0.4,1.8-1.4,2.7-3,2.7l-3.3-0.4h-0.1
				c0-0.5,0.5-5.1,1.6-14l1.6,0.2C84.6,8.1,85.9,9.2,85.9,11.4z M83.9,11.6l-0.1-0.7c-0.3-0.5-0.9-0.7-1.6-0.7l0,0.1
				c-0.1,0.4-0.5,3.7-1.2,9.8c0.1,0.1,0.5,0.2,1,0.2c0.3,0,0.7-0.2,1-0.7C83,19.2,83.4,16.6,83.9,11.6z"/>
			<path id="XMLID_142_" class="st0" d="M83.7,10.9l0.1,0.7c-0.5,5-0.9,7.6-1,7.9c-0.3,0.5-0.6,0.7-1,0.7c-0.6,0-0.9-0.1-1-0.2
				c0.7-6.1,1.1-9.4,1.2-9.8l0-0.1C82.9,10.2,83.4,10.4,83.7,10.9z"/>
			<path id="XMLID_139_" class="st0" d="M78.9,6.6c0,0.2,0,0.3,0,0.5c-0.3,10.9-0.5,16.4-0.5,16.4l0,0c0,0-0.1,0-0.1,0l-0.5,0h-0.3
				c-0.4-0.1-0.7-0.2-0.7-0.3l0-0.3l0-0.3H77v-6c0-0.6,0.1-1,0.1-1.2l0-0.1l0.4-5.5h0l0.2-2.3h0L77.7,7h-0.1
				c0.1-0.4,0.1-0.6,0.2-0.6C78.2,6.5,78.6,6.5,78.9,6.6z"/>
			<path id="XMLID_137_" class="st0" d="M78.8,5.7c0.1,0.3,0.1,0.6,0.1,0.9c-0.3,0-0.6-0.1-1-0.1c-0.1,0-0.2,0.2-0.2,0.6h0.1
				l-0.1,0.5h0l-0.2,2.3h0l-0.4,5.5l0,0.1c0,0.1,0,0.5-0.1,1.2V8.2H75v8.1h-0.1c-0.1-0.1-0.9-2.7-2.4-7.9l0-0.1c0-0.1,0-0.1-0.1-0.1
				H70v14.3H72v-9h0.1c0.1,0,0.9,2.6,2.4,7.9c0.2,0.7,0.4,1.1,0.4,1.1h1.9l0,0.3l0,0.3c0,0.1,0.2,0.3,0.7,0.3h-0.4l-0.4-0.1l0,0.1
				l-0.4-0.1h-1.3l-0.4,0l0,0l-0.2,0h-0.4l-0.3-0.1l-0.2,0.1l-1.4-0.1h-0.2l-0.4,0l-0.1,0l-0.2,0l-0.1,0l-0.6-0.1L68,23.5
				c0-0.2,0-0.3,0-0.5l-0.1-0.1l0.1-1.8l-0.1,0l0.1-0.1L68,20.9l0.1-1.7L68,19.1l0.1,0l0.2-3.2h-0.1l0.1-2.4l-0.1-0.1l0-0.2l0-0.1
				l-0.1,0V13l0.1-0.1l0-0.3l-0.1-0.1h0.1c0-1.8,0-2.6,0.1-2.6l-0.1,0l0.2-1h-0.1l0-0.1l0.1-0.1l0-0.2l-0.1-0.1h0.1l-0.2-0.2
				l0.1-0.5l-0.1,0l0-0.5L68.2,7l0.1-0.1l-0.1,0l0-0.1l0.1-0.1l0-0.8l-0.1-0.1l0.1,0c0-0.1,0-0.1-0.1-0.1l0-0.2l0.1-0.3l0.3,0h0l0,0
				l0.1,0l0.1,0l0.2,0l0.3,0l0.2-0.1L70,5.2l0.3-0.1l0,0.1h0l0.2-0.1l1.3,0.1h0.1l0.4,0l0,0h0l0.7,0h0.5l0.4,0.1l0-0.1
				C77.2,5.5,78.8,5.6,78.8,5.7z"/>
			<path id="XMLID_136_" class="st0" d="M78.3,23.5L78.3,23.5L78.3,23.5C78.2,23.5,78.3,23.5,78.3,23.5z"/>
			<path id="XMLID_135_" class="st0" d="M77.8,23.4l0.5,0c-0.3,0-0.5,0-0.7,0H77.8z"/>
			<path id="XMLID_132_" class="st0" d="M77.8,33.6c0.1,0.1,0.1,0.6,0,1.4c0,0.6,0,1.2,0,1.8c0,1,0,3-0.1,6v3.3c0,0.2,0,0.7-0.1,1.5
				c-0.1,0.8-0.1,2.1,0,3.9l-0.1,1.3l-0.1,0l0,0c0,0.1-0.8,0.2-2.2,0.3c-1.1,0-1.8-0.1-2-0.2c-2.4,0.1-3.7,0-3.8,0
				c0.1-1.1,0.2-4.3,0.3-9.6c-0.1-2.1-0.2-3.6-0.1-4.6c0-2.6,0-4.2,0-4.8c0.3-0.1,1.1-0.1,2.3,0c0.2,0,0.7,0,1.5,0l1.8-0.1
				C76.1,33.5,77,33.5,77.8,33.6z M76.4,49.7l0-1.9l-3.7-0.1l-0.1,0l0.1-4l3-0.1c0-1.3,0-2,0-2l-2.9,0l-0.1,0l0-3.8
				c2.2,0,3.4,0,3.7-0.1c0.1-1.1,0.1-1.7,0-1.9c-3.2-0.1-5.2-0.1-5.9,0c0,9,0,13.7,0.1,14C74.2,49.8,76.1,49.8,76.4,49.7L76.4,49.7z
				"/>
			<path id="XMLID_131_" class="st0" d="M77,16.5v6h-0.2l0.1-0.9h0l0-0.1v0l0.1-1.1l-0.1,0l0.1-0.2C77,18.6,77,17.4,77,16.5z"/>
			<path id="XMLID_130_" class="st10" d="M77,8.2v8.3c0,0.8-0.1,2.1-0.1,3.7l-0.1,0.2l0.1,0l-0.1,1.1v0l0,0.1h0l-0.1,0.9h-1.9
				c0,0-0.2-0.4-0.4-1.1c-1.5-5.2-2.3-7.9-2.4-7.9H72v9H70V8.2h2.4c0.1,0,0.1,0.1,0.1,0.1l0,0.1c1.5,5.2,2.3,7.8,2.4,7.9H75V8.2H77z
				"/>
			<path id="XMLID_129_" class="st10" d="M76.4,47.8l0,1.9l0,0.1c-0.3,0.1-2.2,0.1-5.8,0.1c-0.1-0.3-0.1-4.9-0.1-14
				c0.7-0.1,2.6-0.1,5.9,0c0.1,0.2,0.1,0.9,0,1.9c-0.3,0.1-1.5,0.1-3.7,0.1l0,3.8l0.1,0l2.9,0c0.1,0,0.1,0.7,0,2l-3,0.1l-0.1,4
				l0.1,0L76.4,47.8z"/>
			<path id="XMLID_126_" class="st0" d="M64.1,53.5L64.1,53.5L64,53.6l-0.2-0.1l-0.5,0.1l-0.2-0.1v0.1l0-0.1h-0.2l-0.2,0.1l-0.4-0.1
				h-0.5l-0.5,0.1l-0.1-0.1H61l-0.2,0.1l0-0.1l-0.3,0.1h-0.3L60,53.4L60,53.5c0-0.3,0-0.4-0.1-0.4l0-0.1v-0.4l0-0.1l0-0.1v-0.4
				l0-0.1v-0.1h0l0-0.1v-1l-0.1-0.1l0.1-0.1v-0.1c0-0.8-0.1-1.2-0.1-1.2l0.1-0.1l-0.1-0.8l0-0.1v-0.2l0-0.1l0-0.1v-0.3h-0.1l0.1-0.1
				l-0.1-0.1V47l0.1-0.1l-0.1-0.6h-0.1l0.1-0.1v-0.2l-0.1-0.2L59.4,46l-0.1-0.1v-0.1c0.1,0,0.1-0.1,0.1-0.3l-0.1-0.3l0.1-0.2h-0.1
				v-0.1l0.1-0.5c-0.1,0-0.1,0-0.1-0.1c0-0.1,0-0.2,0-0.3h0v0.2h0.1l0-0.1V44l0-0.1l-0.1-0.4c0-0.1,0-0.2,0-0.3l0.1,0l-0.1-0.1
				c0-0.1,0-0.2,0-0.2l0,0v-0.1c0,0,0,0,0,0c0-1.6,0-3.3,0-5c0.1-1.5-0.1-2.4-0.4-2.7h0l0.1-0.2l0.1,0.1c0-0.2,0.1-0.3,0.2-0.3v-0.1
				l0.1,0.1l0.3-0.1l0.2,0.1l0.3-0.1h1.1l3.9-0.2v-0.1l0.1,0.1h0.1l0-0.1l0.1,0.1l0.3-0.1H66l0.7-0.1l0.1,0.1h0.1
				c0.3,0,0.5-0.1,0.5-0.2l0.1,0.1h0.8l0,0.1l0.1-0.1h0.5l0.1,0.1l0.1-0.1H69l0.1,0.1l0-0.1h0.1c0.1,0.1,0.2,0.3,0.2,0.6l-0.1,0.5
				v0.2h0.1l-0.1,1v1.3l0,0.1l0,0.1V38l0,0.1l0.1,0.5l-0.1,0.1v0.1l0.1,0.6l-0.1,0.3l0.1,0.5l-0.1,0.6l0.1,0.1l-0.1,0.7v2.2l0,0.1
				l0,0.1v1.5l0,0.1l0,0.1v0.5l0,0.1l0,0.1v0.1l0,0.1l0,0.1v0.3l0,0.1l0,0.1v0.5l0,0.4l0,0.4v0.3l0,0.1l0,0.1v0.1
				c0,1.1,0,1.6-0.1,1.6l0.1,0.5v0.8l0,0.1l0,0.1V52l0,0.5h0l0,0.1v0.1l0,0.1v0.1l0,0.1l0,0.1l-0.1-0.1h-0.1l-0.2,0.3l-0.1-0.1
				c-0.3,0-0.4,0.1-0.4,0.2l-0.1-0.1l-0.6,0.2l-0.1-0.1l-0.4,0.1h-0.4l-0.1,0.1l-0.1-0.1h-0.1l-0.2,0.1v-0.1l-0.1,0.1h-0.5l-0.2,0.1
				l-0.2-0.1l-0.3,0.1l-0.1-0.1l-0.3,0.1h-0.1l-0.1-0.1l0,0.1h-0.3l0-0.1L64.1,53.5L64.1,53.5L64.1,53.5z M67.6,45.9v-6.6
				c0-2-0.7-3.2-2-3.7l-1.2-0.2h-0.6c-1.7,0-2.8,1-3.2,2.9v8.3c0,1.8,0.9,2.9,2.8,3.3h1c1.4,0,2.4-0.7,3-2.2L67.6,45.9z"/>
			<path id="XMLID_125_" class="st0" d="M68.2,8.3l0.2,0.2h-0.1l0.1,0.1l0,0.2l-0.1,0.1l0,0.1h0.1l-0.2,1l0.1,0
				c-0.1,0-0.1,0.9-0.1,2.6h-0.1l0.1,0.1l0,0.3L68.1,13v0.1l0.1,0l0,0.1l0,0.2l0.1,0.1l-0.1,2.4h0.1L68,19.1l-0.1,0l0.1,0.1L68,20.9
				l0.1,0.1L68,21.1l0.1,0l-0.1,1.8L68,23c0,0.2,0,0.4,0,0.5l-0.2,0l0,0v-0.3l0-0.5c-0.1,0-0.1-0.1-0.1-0.3v-0.4l0.1-0.9l-0.1-0.3
				l0-0.1v0l-0.1-0.2l0.1-0.3v-0.1h0l0-0.6v-0.8l0-0.5l0.1-0.6l0-0.3l0-0.4l0,0l0-0.3v0l0-0.5c0.1-0.2,0.1-0.4,0.1-0.6l0-0.4
				l0.1-0.3l0-0.2l0-1.6h0l-0.1-0.3l0-0.2l0-0.2l0.1-1.6h0l-0.1-0.5L68,9.6l0,0l0-0.4v-1l0-0.1l0-0.1v0l0-0.3l0-0.1V7.6l0-0.3l0-0.5
				L68,6.4V6l0-0.3c0.1,0,0.1,0.1,0.1,0.1l-0.1,0l0.1,0.1l0,0.8l-0.1,0.1l0,0.1l0.1,0L68.2,7l0.1,0.4l0,0.5l0.1,0L68.2,8.3z"/>
			<path id="XMLID_122_" class="st0" d="M68,6v0.4L68,6.8l0,0.5l0,0.3v0.1l0,0.1L68,8v0l0,0.1l0,0.1v1l0,0.4l0,0l-0.1,0.4l0.1,0.5h0
				l-0.1,1.6l0,0.2l0,0.2l0.1,0.3h0l0,1.6l0,0.2L67.8,15l0,0.4c0,0.3,0,0.4-0.1,0.6l0,0.5v0l0,0.3l0,0l0,0.4l0,0.3l-0.1,0.6l0,0.5
				v0.8l0,0.6h0v0.1l-0.1,0.3l0.1,0.2v0l0,0.1l0.1,0.3l-0.1,0.9v0.4c0,0.2,0,0.3,0.1,0.3l0,0.5v0.3l0,0l0.2,0
				c-0.1,1.2-0.1,1.7-0.2,1.8c-1.4-0.2-3.6-0.4-6.5-0.4v0.1l-0.1-0.1l-0.1,0L61,24.9L61,24.8l-0.1,0l-2.3-0.1v-0.1l0.1,0l0-0.1
				l-0.1-0.1l0.1-0.3l-0.1-0.8l0.1-0.1v-0.1l-0.2-0.3l0.1-0.4l-0.1-0.1l0-0.2l0.1-0.3l-0.1-0.3c0.1-2.7,0.1-4.3,0.1-4.8l0.1,0l0,0
				c0.1-2.8,0.1-5.6,0.1-8.6c0.1-1.8-0.1-2.7-0.6-2.8L58,5.6l0-0.3l0-0.9l8.2,0.7l0,0.2l-0.1,0.1l0,0.1l0.2,0.1
				c0.8,0,1.4,0.1,1.6,0.2L68,6z M66,19.6l0.5-10.9l-2.1-0.1c-0.3,6.8-0.5,10.7-0.6,11.5c-0.3,0.3-0.6,0.5-0.8,0.5l-0.2,0
				c-0.8-0.1-1.3-0.4-1.3-1.1l0.6-11L60,8.4l-0.4,11.4c0.1,1.4,0.9,2.3,2.4,2.7l1,0l0.3,0C64.8,22.5,65.7,21.5,66,19.6z"/>
			<path id="XMLID_119_" class="st10" d="M67.6,39.3v6.6l-0.2,1.7c-0.6,1.5-1.5,2.2-3,2.2h-1c-1.8-0.4-2.8-1.5-2.8-3.3v-8.3
				c0.4-1.9,1.5-2.9,3.2-2.9h0.6l1.2,0.2C66.9,36.1,67.6,37.3,67.6,39.3z M65.5,45.3v-5.5c0-1.7-0.4-2.6-1.2-2.6
				c-0.9,0-1.4,0.5-1.4,1.4v7.7c0.2,1,0.5,1.5,1.1,1.5l0.5-0.1C65.2,47.8,65.5,46.9,65.5,45.3z"/>
			<path id="XMLID_118_" class="st10" d="M66.5,8.7L66,19.6c-0.3,1.9-1.2,2.9-2.8,3l-0.3,0l-1,0c-1.5-0.5-2.3-1.4-2.4-2.7L60,8.4
				L62,8.5l-0.6,11c0,0.7,0.5,1,1.3,1.1l0.2,0c0.2,0,0.5-0.2,0.8-0.5c0.1-0.9,0.3-4.7,0.6-11.5L66.5,8.7z"/>
			<path id="XMLID_117_" class="st0" d="M65.5,39.8v5.5c0,1.7-0.3,2.5-1,2.5L64,47.9c-0.6,0-1-0.5-1.1-1.5v-7.7
				c0.1-1,0.5-1.4,1.4-1.4C65.1,37.3,65.5,38.1,65.5,39.8z"/>
			<path id="XMLID_116_" class="st0" d="M58.9,35.1c0.4,0.3,0.5,1.2,0.4,2.7c0,1.7,0,3.3,0,5c-0.1,0-0.2-0.3-0.2-0.8h-0.1l0.1-0.6
				c0-0.2-0.2-0.3-0.5-0.4l0.1-0.2l0.1,0.1c0-0.2,0.1-0.3,0.2-0.3c0-0.2-0.1-0.3-0.2-0.3l-0.1-0.1V40l0.2-0.1l0.1,0.1l-0.1-0.4H59
				l0.2,0.1c0-0.1-0.1-0.2-0.2-0.2l0.1-0.1v-0.1h-0.1v-0.1h0.1v-0.1h-0.2v-0.1c0.2,0,0.2-0.1,0.2-0.3l-0.2-0.4l-0.2,0.1l0-0.1v-0.1
				h0l0.1,0.1h0.1l0.1-0.2v-0.3L58.9,38h-0.1l-0.1-0.5l0.3-0.4l-0.4,0.2c0-0.3,0.1-0.5,0.4-0.7v-0.1h-0.2v-0.1l0.1-0.1v-0.1h-0.1
				l-0.1,0.1h0l-0.1-0.1v0.1l0.1,0.2v0.1h-0.2l0.1,0.1v0.1l-0.1,0.2l0,0.1h0l0,0.1v0.3l0,0.1l0,0.1v0.2h-0.1l-0.1-0.6l0.1-0.1h-0.1
				l0.1-0.1v-0.1l-0.1-0.5l0.2-0.3l-0.1-0.4l0.1-0.1v-0.1l-0.1-0.4h0.1l0,0.1l0,0.3h0.1v-0.2h0.1l0.1,0.1h0.1l-0.1-0.1v-0.2h0.1
				L58.9,35.1l-0.1,0.1V35C58.8,35,58.8,35,58.9,35.1L58.9,35.1L58.9,35.1z"/>
			<path id="XMLID_109_" class="st0" d="M59.3,42.8l-0.2,0.1l0.1,0.3h0V43l0,0.1c0,0.1,0,0.1,0,0.2l-0.1,0l0.1,0.2
				c0,0.2,0,0.4,0,0.5h0l0,0.1c0,0.1,0,0.2,0.1,0.2c0,0.7,0,1.3,0,1.9l0,0l-0.1,0c0,0.5,0,2.2-0.1,5l0,0l-0.1,0v0.1L59,53.8
				c-3,0.1-6,0.2-8.8,0.2l-0.3-0.1l-0.1,0l0-0.1c0-0.3,0.5-0.7,1.3-1.2l-0.1-0.1l-0.3,0.1l-0.2-0.1c-0.5-0.1-1.1-0.1-1.6-0.1l0,0
				l0.3-0.3L48.9,52c-0.1,0-0.1,0-0.1,0.1l-0.3,0c-0.1,0-0.1,0.1-0.1,0.2l-0.2,0v0l0.1-0.2L48.1,52c-0.2,0.2-0.4,0.3-0.5,0.3
				l-0.6-0.1l-0.3-0.1v-0.1l0.1-0.1l0-0.1l-0.1-0.1v-0.1l0.1-0.4l-0.1-0.1l0-0.1l0.1-0.1l0-0.1l-0.1-0.4l0.1-0.1l0.1-1.1h-0.2
				l0.2-0.5l-0.1-0.1l0.1-0.1h-0.1l0.2-0.5l-0.2,0l0,0.2h-0.1l0-0.1l0.1-0.4l-0.1-0.4V47h0.1v0.2h0.1l0-0.6l-0.1-0.1v-0.1H47
				l-0.3-0.8l0.2-0.2l0.1,0.1l0-0.1l-0.3-1l0.2,0l-0.2-0.5l0.1-0.5l-0.1-0.2h0.2l0-0.8l0.1-0.1c-0.2,0-0.2-0.1-0.2-0.2l0.1-0.3
				L46.6,41l0.2-0.8l-0.2,0v-0.1l0.2-0.3l0-0.1h-0.2l0.1-0.1v-0.1L46.7,38l0.1-0.1l-0.1,0l0.1-0.3l-0.1-0.1l0-0.1l0.2-0.5h-0.2v-1.6
				l0.1,0L46.8,35l0-0.2l0,0l0,0l0-0.3c0,0,0,0,0,0l0-0.2c0,0,0,0-0.1,0l0-0.3l0-0.2l0,0l0,0l0.3,0c0,0.2,0.1,0.3,0.2,0.3l0.2,0
				c0,0.1,0.1,0.2,0.1,0.2l0.1,0c0-0.1,0.2-0.2,0.4-0.2l0,0c0.1,0,0.1,0.1,0.1,0.2l0.2,0c0-0.1,0.1-0.2,0.1-0.2l0.3,0.3l0.1,0
				c0-0.2,0.1-0.2,0.2-0.2l0,0.1l-0.1,0.1l0,0.1v0.1C49,34.9,48.9,35,48.8,35c0-0.1-0.1-0.2-0.3-0.3c-0.1,0-0.1,0-0.1,0.1
				c-0.3,0-0.5-0.1-0.6-0.3c-0.1,0-0.1,0-0.1,0.1l0,0.2l-0.4,0.1h0l0-0.1h0l0,0.1l0.1,0.1v0.1h0.1l0.3,0.3l0,0l0,0l0.1,0l0.1-0.3
				l-0.1-0.2v0L48,35l0.4,0.1l0.2,0l0.1,0.1H49l0,0.2l0.1-0.1l0,0l0.2,0.1l0.4-0.2c0.1,0,0.2,0.1,0.3,0.3l0.5,0.1l0.5-0.1l0.3,0.1
				l0.3-0.1l0.4,0.2l0-0.1c0.6,0,0.9,0,0.9-0.1l-0.1-0.2l0-0.2l0.4,0l0,0.2l0.1,0c0.1,0,0.1,0,0.1-0.2h0l0.2,0.1l0.1,0l0.2-0.1h0.1
				l0.1,0.1l0.1,0h0.1l0.4,0.1c0.2-0.1,0.2-0.2,0.3-0.3l0.4,0.2l0.1,0c0-0.1,0.2-0.2,0.5-0.3h0v0l-0.1,0.3l0.1,0l0.2-0.1l0.4,0.1v0
				l0.1-0.1l0-0.1h-0.1l-0.2,0l0-0.2l0.2,0c0.4,0.1,0.6,0.2,0.6,0.4l0.2,0c0-0.1,0.1-0.3,0.3-0.4l0.3,0.2l0-0.1l0.3,0l0,0.1l0.1,0
				l0.2,0l0.2,0.2l0.2-0.2c0,0,0,0,0.1,0v0.2h0.1v0.2h-0.1v0.2l0.1,0.1h-0.1l-0.1-0.1h-0.1v0.2h-0.1l0-0.3l0-0.1h-0.1l0.1,0.4v0.1
				l-0.1,0.1l0.1,0.4l-0.2,0.3l0.1,0.5v0.1l-0.1,0.1h0.1l-0.1,0.1l0.1,0.6h0.1v-0.2l0-0.1l0-0.1v-0.3l0-0.1h0l0-0.1l0.1-0.2v-0.1
				l-0.1-0.1h0.2v-0.1l-0.1-0.2v-0.1l0.1,0.1h0l0.1-0.1h0.1v0.1l-0.1,0.1v0.1h0.2v0.1c-0.2,0.1-0.4,0.4-0.4,0.7l0.4-0.2l-0.3,0.4
				l0.1,0.5h0.1l0.1-0.1v0.3l-0.1,0.2h-0.1l-0.1-0.1h0v0.1l0,0.1l0.2-0.1l0.2,0.4c0,0.2-0.1,0.3-0.2,0.3v0.1h0.2v0.1h-0.1v0.1h0.1
				v0.1L59,39.6c0.1,0,0.2,0.1,0.2,0.2L59,39.6h-0.1l0.1,0.4L59,39.9L58.8,40v0.2l0.1,0.1c0.2,0,0.2,0.1,0.2,0.3
				c-0.2,0-0.2,0.1-0.2,0.3l-0.1-0.1L58.7,41c0.3,0,0.5,0.2,0.5,0.4l-0.1,0.6h0.1c0,0.5,0,0.7,0.2,0.8
				C59.3,42.7,59.3,42.8,59.3,42.8z M55.1,50.9V36.9h-2.2v5.8l-0.2,0.1h-2.2l-0.2-0.1v-5.8h-0.8l-0.7,0l-0.6,0h-0.2v14.1h2.2V45
				l0.2-0.2h2.2l0.2,0.2v5.9H55.1z M49.6,35.4L49.6,35.4l-0.2,0v0.2h0.1L49.6,35.4z M49.3,35.7L49.3,35.7l-0.1-0.1L49.3,35.7
				L49.3,35.7z M48.3,35.5v-0.1h-0.2v0.1H48.3z M48,35.7L48,35.7l-0.1,0v0.1L48,35.7z"/>
			<path id="XMLID_108_" class="st0" d="M59.2,42.9l0.2-0.1c0,0.1,0,0.2,0,0.2l0-0.1v0.2h0L59.2,42.9z"/>
			<path id="XMLID_107_" class="st0" d="M59.3,43.2c0,0.1,0,0.2,0,0.3V43.2L59.3,43.2z"/>
			<path id="XMLID_106_" class="st0" d="M59.3,44c0,0.1,0,0.2,0,0.3C59.3,44.3,59.2,44.2,59.3,44L59.3,44L59.3,44z"/>
			<path id="XMLID_105_" class="st0" d="M58.9,35.1L58.9,35.1L58.9,35.1C58.9,35,58.9,35,58.9,35.1z"/>
			<path id="XMLID_104_" class="st0" d="M58.8,35L58.8,35C58.8,35,58.8,35,58.8,35L58.8,35L58.8,35z"/>
			<path id="XMLID_103_" class="st0" d="M58.1,5.5c0.5,0.1,0.7,1,0.6,2.8c0,2.9,0,5.8-0.1,8.6l0,0l-0.1,0c0,0.5,0,2.1-0.1,4.8l0-0.2
				l0-0.2l0.1-0.5l-0.1-0.1h0.1l-0.1-0.1l0.1-0.5l-0.1-1.2l0.1-0.1l-0.1-0.1l0-0.2l0-0.5L58.4,18h0.1l-0.1-0.1l0-0.5l-0.1-0.1
				l0.1-0.1l-0.1-2l0-0.7l-0.1-0.1l0.1,0l-0.1-0.1l0-0.1l0-0.7h-0.1l0.1-0.1L58.2,12l0-0.6l-0.1-0.1l0-0.1l0-0.6h-0.1l0-0.1l0-0.8
				l0-1l-0.1-0.1l0-0.1c0-0.4,0-0.7,0.1-0.7l-0.2-0.3l0.1-0.1l-0.1-1.1l0.1-0.1V6.3H58l0.1-0.1V5.5L58.1,5.5z"/>
			<path id="XMLID_96_" class="st0" d="M58.6,21.9L58.6,21.9L58.6,21.9l-0.2,2.5c-3,0.1-6,0.2-8.8,0.1l-0.3-0.1l-0.2,0l0-0.1
				c0-0.2,0.5-0.6,1.3-1.2l-0.1-0.1L50,23.2l-0.2-0.1c-0.5-0.1-1.1-0.1-1.6-0.1l0,0l0.3-0.3l-0.1-0.1c-0.1,0-0.1,0-0.1,0.1l-0.3,0
				c-0.1,0-0.1,0.1-0.1,0.2l-0.2,0v-0.1l0.1-0.2l-0.1-0.1c-0.2,0.2-0.4,0.3-0.5,0.3l-0.6-0.1l-0.7-0.2l0,0l0-0.1l0.1-0.4l0-0.5
				l0.1,0l-0.1-0.5l0.1-0.2l-0.1,0l0.1-0.1v-0.2l0-0.1v-0.1h0.1l-0.2-1.1h0.1c-0.1,0-0.1-1-0.1-3h0l0-0.1l0-0.3l-0.1-0.1l0-0.1h0.1
				l-0.1-0.1v-0.2l0.1-0.1l-0.1-2.7v-0.1h0.1l0-0.8l0-0.1l0-0.1v-0.1l0,0l0-0.1l0-0.9l0.1-0.1c0-0.4,0-0.6-0.1-0.6l0-0.1l0-0.1
				l0-1.6L46,7.4l0,0l0.2-0.5l-0.4-0.7l0.1-0.3l0-0.1l0-0.1l0.4-0.4l-0.1-0.1l0,0l-0.1,0l-0.1-0.1v0L46,5.1l0.2,0.1
				c0-0.1,0.1-0.1,0.2-0.1l0-0.2c-0.2,0-0.3-0.2-0.3-0.5c0.1,0,0.2-0.1,0.2-0.1l0,0.1l0,0l0.3,0c0,0.2,0.1,0.3,0.2,0.3l0.1,0
				c0,0.1,0.1,0.2,0.1,0.2l0.1,0c0-0.1,0.2-0.2,0.4-0.2l0,0c0.1,0,0.1,0.1,0.1,0.2l0.2,0c0-0.1,0.1-0.2,0.1-0.2l0.3,0.3l0.1,0
				c0.1-0.2,0.1-0.2,0.2-0.2l0,0.1l-0.1,0.1l0,0.1v0c-0.2,0.2-0.3,0.3-0.4,0.4c0-0.1-0.1-0.2-0.3-0.3c-0.1,0-0.1,0-0.1,0.1
				c-0.3,0-0.5-0.1-0.6-0.3c-0.1,0-0.1,0-0.1,0.1l0,0.2l-0.4,0.1h-0.1l0-0.1h0l0,0.2l0.1,0.1v0.1h0.1L47,6.1l0,0.1l0,0.1l0.2,0
				L47.3,6l-0.1-0.2v0l0.2-0.2l0.4,0.1l0.1,0l0.1,0.1h0.4l0,0.2l0.1,0l0,0L48.8,6l0.4-0.2c0.1,0,0.2,0.1,0.3,0.3l0.5,0.1L50.5,6
				l0.3,0.1l0.3-0.1l0.4,0.2l0-0.1c0.6,0,0.9,0,0.9-0.1l-0.1-0.2l0-0.2l0.4,0l0,0.2l0.1,0c0.1,0,0.1,0,0.1-0.2h0l0.1,0.1l0.1,0
				l0.2-0.1h0l0.1,0.1l0.1,0h0l0.4,0.1c0.1-0.1,0.2-0.2,0.2-0.3l0.4,0.2l0.1,0c0-0.1,0.2-0.2,0.5-0.3h0v0l-0.1,0.3l0.1,0l0.2-0.1
				l0.4,0.2V5.8L56,5.6l0-0.1h-0.1l-0.2,0l0-0.1l0.2,0c0.4,0.1,0.6,0.2,0.6,0.3l0.2,0c0-0.1,0.1-0.3,0.3-0.4l0.3,0.2l0-0.1l0.3,0
				l0,0.1l0.1,0l0.2,0l0.2,0.2L58,5.6l0.1,0.6L58,6.3h0.1v0.1l-0.1,0.1l0.1,1.1l-0.1,0.1l0.2,0.3c-0.1,0-0.1,0.2-0.1,0.7l0,0.1
				l0.1,0.1l0,1l0,0.8l0,0.1h0.1l0,0.6l0,0.1l0.1,0.1l0,0.6l0.1,1.6l-0.1,0.1h0.1l0,0.7l0,0.1l0.1,0.1l-0.1,0l0.1,0.1l0,0.7l0.1,2
				l-0.1,0.1l0.1,0.1l0,0.5l0.1,0.1h-0.1l0.1,0.1l0,0.5l0,0.2l0.1,0.1l-0.1,0.1l0.1,1.2l-0.1,0.5l0.1,0.1h-0.1l0.1,0.1l-0.1,0.5
				l0,0.2l0,0.2C58.5,21.8,58.5,21.9,58.6,21.9L58.6,21.9z M54.5,21.5v-14h-2.1v5.8l-0.2,0.1H50l-0.1-0.1V7.4h-0.8l-0.7-0.1
				l-0.6,0.1h-0.2v14h2.2v-5.9l0.1-0.2h2.2l0.2,0.2v5.9H54.5z M49,6L49,6l-0.1,0v0.1L49,6L49,6z M48.7,6.3V6.2h-0.2L48.7,6.3
				L48.7,6.3z M47.8,6.1L47.8,6.1L47.6,6v0.1H47.8z M47.4,6.3L47.4,6.3l-0.1-0.1v0.2L47.4,6.3z"/>
			<polygon id="XMLID_95_" class="st10" points="55.1,36.9 55.1,50.9 52.9,50.9 52.9,45 52.8,44.8 50.6,44.8 50.4,45 50.4,50.9 
				48.3,50.9 48.3,36.9 48.4,36.9 49,36.8 49.7,36.9 50.4,36.9 50.4,42.6 50.6,42.8 52.8,42.8 52.9,42.6 52.9,36.9 			"/>
			<polygon id="XMLID_94_" class="st10" points="54.5,7.4 54.5,21.5 52.4,21.5 52.4,15.6 52.2,15.4 50,15.4 49.9,15.6 49.9,21.5 
				47.7,21.5 47.7,7.4 47.9,7.4 48.4,7.4 49.1,7.4 49.9,7.4 49.9,13.2 50,13.4 52.2,13.4 52.4,13.2 52.4,7.4 			"/>
			<polygon id="XMLID_93_" class="st0" points="49.6,35.3 49.6,35.4 49.5,35.5 49.5,35.5 49.5,35.4 			"/>
			<polygon id="XMLID_92_" class="st0" points="49.3,35.6 49.3,35.7 49.3,35.7 49.2,35.6 			"/>
			<polygon id="XMLID_91_" class="st0" points="49,5.9 49,6 48.9,6.1 48.9,6.1 48.9,6 			"/>
			<polygon id="XMLID_90_" class="st0" points="48.7,6.2 48.7,6.3 48.7,6.3 48.6,6.2 			"/>
			<rect id="XMLID_89_" x="48.2" y="35.4" class="st0" width="0.2" height="0.1"/>
			<polygon id="XMLID_88_" class="st0" points="48,35.6 48,35.7 47.9,35.8 47.9,35.6 			"/>
			<rect id="XMLID_87_" x="47.6" y="6" class="st0" width="0.2" height="0.1"/>
			<polygon id="XMLID_86_" class="st0" points="47.4,6.2 47.4,6.3 47.3,6.4 47.3,6.2 			"/>
			<polygon id="XMLID_85_" class="st0" points="47.4,35.1 47.4,35.2 47.3,35.2 47.2,35.2 47.2,35.1 			"/>
			<path id="XMLID_84_" class="st0" d="M47,47.8l-0.2,0.5h0.1l-0.1,0.1l0.1,0.1l-0.2,0.5h0.2l-0.1,1.1l-0.1,0.1l0.1,0.4l0,0.1
				L46.8,51l0,0.1l0.1,0.1l-0.1,0.4v0.1l0.1,0.1l0,0.1l-0.1,0.1v0.1l-0.4-0.1l0,0l0,0c-0.7-0.1-1-0.2-0.9-0.4l0-0.8l0.1-0.2l0.1-1.1
				l0.2-0.4c-0.1-0.1-0.1-0.3,0-0.6l0-0.3l0.1-0.2c0-0.1-0.1-0.3,0-0.5l0,0l0.1,0l0-0.1l0-0.3l0.1-0.2l0.3-5l0.1,0l0,0l0-0.4
				l0.1-0.5l0-0.2l0.1,0l0,0l0-0.9l0.1-0.1c0-0.4,0-0.6-0.1-0.6l0.1-0.1l0-0.1l0-1.6l0.3-0.6l0,0l0.2-0.5l-0.4-0.7l0.1-0.3l0,0l0,0
				l0.3-0.4l0,0.2l0.1,0.1l-0.1,0v1.6H47l-0.2,0.5l0,0.1l0.1,0.1l-0.1,0.3l0.1,0L46.7,38l0.1,1.5v0.1l-0.1,0.1h0.2l0,0.1l-0.2,0.3
				v0.1l0.2,0L46.6,41l0.1,0.8l-0.1,0.3c0,0.2,0.1,0.2,0.2,0.2l-0.1,0.1l0,0.8h-0.2l0.1,0.2l-0.1,0.5l0.2,0.5l-0.2,0l0.3,1l0,0.1
				l-0.1-0.1l-0.2,0.2l0.3,0.8h-0.1v0.1l0.1,0.1l0,0.6h-0.1V47h-0.1v0.1l0.1,0.4l-0.1,0.4l0,0.1h0.1l0-0.2L47,47.8z"/>
			<path id="XMLID_83_" class="st0" d="M46.9,32.1l-0.1,0.1l0.1,1.1l-0.1,0l0,0.5l0,0c0,0-0.1,0.1-0.2,0.1c0,0.3,0,0.4,0.2,0.4v0.2
				c-0.1,0-0.1,0-0.1,0.1l-0.1-0.1l-0.1,0.1v0l0.1,0.1l0.1,0l0,0l0.1,0v0l-0.3,0.4l0,0l0,0l-0.1,0.3l0.4,0.7l-0.2,0.5l0,0l-0.3,0.6
				l0,1.6l0,0.1l-0.1,0.1c0,0,0.1,0.2,0.1,0.6l-0.1,0.1l0,0.9l0,0l-0.1,0l0,0.2l-0.1,0.5l0,0.4l0,0l-0.1,0l-0.3,5l-0.1,0.2l-0.2,0
				c0-0.3,0-0.6,0-0.9c0-2.3-1.2-4.2-3.5-5.8c-1-1-1.5-1.9-1.5-2.9v-0.2c0.1-0.8,0.5-1.2,1.1-1.2H42c0.6,0,0.9,0.4,1.1,1.2v0.8
				l2.2-0.2v-0.7c-0.2-2.1-1.2-3.1-3.1-3.1l-0.4-0.1c-1.6,0-2.6,0.6-3.2,1.8c-0.2,0.5-0.3,1-0.3,1.5v0.1h-0.5l0-0.6l0-0.2l0.1-0.1
				l-0.1,0l0.1-0.3l0-0.1l-0.1-0.1l0-0.1l0.1-0.1l0-0.1l-0.1-0.1h0.1l-0.1-0.3l0.1-0.5l-0.1-0.1l0.1-0.1l0-0.5L38,34h-0.1l0.2-0.4
				L38,32.5l0.1-0.1L38,32.3l0-0.1l0.1-0.1l0.1,0.1c0.2-0.1,0.3-0.2,0.3-0.3l-0.2,0l0-0.1l0.8-0.1l0.1,0.1l1.7-0.3l0,0.1h0.1
				l0.1-0.1l0.2,0l0.1,0.1l0-0.1l0.1-0.1l0.1,0.1h0.1l0.1-0.1h0.1l1.1,0l0.1,0l0.1,0.1c0-0.1,0.5-0.2,1.6-0.3l0.1,0.1l0.8-0.2l0,0.1
				l0.4-0.1h0.1l0.1,0.1l0.1-0.1l0.3,0l0.1,0.1l0.1-0.1l0.3,0C46.8,31.2,46.9,31.5,46.9,32.1z"/>
			<path id="XMLID_82_" class="st0" d="M46.8,33.8l0,0.2l0,0.3c-0.2,0-0.3-0.2-0.2-0.4C46.8,33.9,46.8,33.9,46.8,33.8L46.8,33.8z"/>
			<path id="XMLID_81_" class="st0" d="M46.8,34.5l0,0.3l-0.1,0l0,0l-0.1,0l-0.1-0.1v0l0.1-0.1l0.1,0.1
				C46.7,34.5,46.8,34.5,46.8,34.5z"/>
			<polygon id="XMLID_80_" class="st0" points="46.8,5.7 46.8,5.8 46.7,5.8 46.6,5.7 46.6,5.7 			"/>
			<path id="XMLID_79_" class="st0" d="M46.7,52.2v1.2l0,0.1l-0.1,0.1l0.1,0.1v0.2L45.4,54l-0.1-0.1l-4,0.4l0-0.1l-2.6,0.3l-0.1-0.1
				l0,0.1l-1.7,0h-0.1l0-0.2l0.1-0.1h-0.1l0.1-0.1l-0.1-1.3l0-0.1l0.1-0.1v-0.1l-0.1-0.1l0.1-0.1l0.1-0.9L37,51.3l0.1-0.1l0-0.4
				l-0.1-0.5l0.1-0.3v-0.1l-0.1-0.1l0.1-0.1v-0.1l-0.1-0.1l0.1,0l-0.1-0.1l0.1-0.6v-0.1l-0.1-0.1l0-0.1l0.1-0.1l-0.1-0.5l0.1-1.5
				l0.1-0.1L37.3,46v-0.2l0.1-0.1l-0.1-0.1l0.1-2.4l0.1-0.1h-0.1L37.4,43l0.1-0.5v-0.1l-0.1-0.1l0.1-0.1l0-0.7l0-0.8l0.2,0l-0.2-0.2
				l0.2-1l-0.1,0l0-0.3l0.1-0.1L37.6,39v-0.2l0.1-0.1l-0.1-0.1l0-0.3l0.1-0.5l-0.1-0.1l0.1,0h0.5v0.6c0,1.9,1.2,3.7,3.5,5.3
				c1,0.9,1.5,1.9,1.5,3c0,1.1-0.4,1.6-1.2,1.6h-0.5c-0.6,0-1-0.5-1.1-1.4v-1.2l-2.3,0.2V47c0.2,2.1,1.2,3.2,2.9,3.2l0.7,0.1H42
				c2.1,0,3.3-1,3.6-3.1l0.2,0l0,0.3l0,0.1l-0.1,0l0,0c0,0.2,0,0.4,0,0.5l-0.1,0.2l0,0.3c0,0.2,0,0.4,0,0.6l-0.2,0.4l-0.1,1.1
				l-0.1,0.2l0,0.8c0,0.2,0.3,0.3,0.9,0.4l0,0l0,0L46.7,52.2z"/>
			<path id="XMLID_78_" class="st0" d="M45.8,20.9l-0.1,0.2l0.1,0.5l-0.1,0l0,0.5l-0.1,0.4l0,0.1l-0.1,0c-0.6-0.1-1-0.2-0.9-0.4
				l0-0.8l0.1-0.1l0.1-1.1l0.2-0.4c0-0.1-0.1-0.3,0-0.6l0-0.3l0.1-0.2c0-0.1-0.1-0.3,0-0.5l0,0l0.1,0l0-0.1l0-0.3l0.1-0.1l0.3-5
				l0.1,0l0,0l0.1,2.7l-0.1,0.1v0.2l0.1,0.1h-0.1l0,0.1l0.1,0.1l0,0.3l0,0.1h0c0,2,0,3,0.1,3h-0.1l0.2,1.1h-0.1v0.1l0,0.1v0.2
				l-0.1,0.1L45.8,20.9z"/>
			<path id="XMLID_77_" class="st0" d="M45.8,22.7L45.8,22.7l-0.1,0v0.1l0.1,0.1l0,0.9l-0.1,0.1h0.1c0,0.2-0.5,0.3-1.6,0.3l-0.2,0.1
				l0,0.1l0.1,0.1l0,0.2l-7.5,0.8l0-1.1l0.1-0.9l-0.1-0.1h0.1l0-0.1l-0.1-0.1l0.1-1.3l-0.1-0.1l0.1-0.3c-0.1,0-0.1-0.3-0.1-0.7v-0.1
				l0.1-0.1l0-1.1l0-0.9l0-0.1l0.1,0l0-0.6v-0.1l0.1-0.1l0-0.6l0.1-1.8L36.6,15l0.1,0l0-0.7v-0.1l0.1-0.1h-0.1l0.1-0.1l0-0.8
				l0.1-2.2l-0.1-0.1l0.1-0.1l0-0.5l0.1-0.1h-0.1l0.1-0.1l0-0.5l0-0.2l0-0.1l0-0.1l0-1.4l0-0.5l0.1-0.1h-0.1L36.9,7l-0.1-0.5l0-0.2
				L37,5.7l0.4,0v2.1L37.6,8H40v13.6h2.5l-0.1-0.1v-0.1l0.1-0.4h-0.1l0.1-0.1v-0.1l-0.1-0.1l0.1-0.1v-0.2l-0.1-0.1l0.1-0.1l-0.1-0.5
				l0.1-0.1l-0.1-0.1v-0.4l0.1-0.1l-0.1-0.1v-0.1l0.1-0.1l-0.1-0.8V17l0.1-0.1l-0.1-0.1v-1l0.1-0.1l-0.1-0.1v-0.1l0.1-0.1l-0.1-0.1
				v-1l0.1-0.3l-0.1-0.5v-1.7l0.1-0.1l-0.1-0.1V8.2L42.6,8H45V6.9h0.5l0.1,1.9l-0.1,0.1h0.1l0.1,2.5l0,0l0,0.1l0,0.2l-0.1,0.5l0,0.4
				l0,0l-0.1,0l-0.3,5l-0.1,0.1l0,0.3l0,0.1l-0.1,0l0,0c0,0.2,0,0.4,0,0.5l-0.1,0.2l0,0.3c0,0.2,0,0.4,0,0.6l-0.2,0.4l-0.1,1.1
				l-0.1,0.1l0,0.8C44.7,22.4,45.1,22.6,45.8,22.7L45.8,22.7z"/>
			<polygon id="XMLID_76_" class="st0" points="45.6,11.7 45.7,12.5 45.6,12.5 45.6,12.6 45.6,12.2 			"/>
			<polygon id="XMLID_75_" class="st0" points="45.6,11.5 45.6,11.4 45.6,11.4 			"/>
			<path id="XMLID_74_" class="st10" d="M45.6,46.4c0,0.3,0,0.6,0,0.9c-0.3,2-1.5,3.1-3.6,3.1h-0.1l-0.7-0.1c-1.7,0-2.6-1.1-2.9-3.2
				v-1.3l2.3-0.2v1.2c0.1,0.9,0.4,1.4,1.1,1.4h0.5c0.8,0,1.2-0.5,1.2-1.6c0-1.1-0.5-2.1-1.5-3c-2.3-1.7-3.5-3.5-3.5-5.3v-0.6v-0.1
				c0-0.5,0.1-1,0.3-1.5c0.6-1.2,1.6-1.8,3.2-1.8l0.4,0.1c1.9,0,2.9,1,3.1,3.1v0.7L43,38.3v-0.8c-0.1-0.8-0.5-1.2-1.1-1.2h-0.3
				c-0.6,0-0.9,0.4-1.1,1.2v0.2c0,1,0.5,1.9,1.5,2.9C44.4,42.2,45.6,44.1,45.6,46.4z"/>
			<path id="XMLID_73_" class="st0" d="M45.5,4.7l0.1,2h-0.1l0.1,0.1l-0.1,0.1H45V5.7h-7.6l-0.4,0l-0.1-0.3l0-0.2L37,5.1l-0.1-0.4
				L37,4.4l0-0.1L37,4.1l0.1-1l0-0.3l0.1-0.1V2.7H37V2.6L39,2.5h0.1l0.1-0.1l0.1,0.1h0.1l0.1-0.1v0.1C42,2.4,44,2.3,45.3,2
				c0.1,0,0.2,0.9,0.2,2.5L45.5,4.7z"/>
			<polygon id="XMLID_72_" class="st10" points="45,6.9 45,8 42.6,8 42.4,8.2 42.4,11.5 42.5,11.6 42.4,11.7 42.4,13.4 42.5,14 
				42.4,14.3 42.4,15.3 42.5,15.4 42.4,15.5 42.4,15.6 42.5,15.7 42.4,15.8 42.4,16.8 42.5,16.9 42.4,17 42.4,17.7 42.5,18.5 
				42.4,18.6 42.4,18.7 42.5,18.8 42.4,18.9 42.4,19.4 42.5,19.5 42.4,19.6 42.5,20.1 42.4,20.2 42.5,20.3 42.5,20.6 42.4,20.7 
				42.5,20.8 42.5,20.9 42.4,21 42.5,21 42.4,21.4 42.4,21.5 42.5,21.6 40,21.6 40,8 37.6,8 37.4,7.8 37.4,5.7 45,5.7 			"/>
		</g>
		<g id="XMLID_71_">
		</g>
	</g>
</g>
</svg>
