<?xml version="1.0" encoding="UTF-8" standalone="no"?>
<svg
   xmlns:dc="http://purl.org/dc/elements/1.1/"
   xmlns:cc="http://creativecommons.org/ns#"
   xmlns:rdf="http://www.w3.org/1999/02/22-rdf-syntax-ns#"
   xmlns:svg="http://www.w3.org/2000/svg"
   xmlns="http://www.w3.org/2000/svg"
   xmlns:sodipodi="http://sodipodi.sourceforge.net/DTD/sodipodi-0.dtd"
   xmlns:inkscape="http://www.inkscape.org/namespaces/inkscape"
   inkscape:version="1.0 (4035a4fb49, 2020-05-01)"
   sodipodi:docname="NewIconoThunderShoes.svg"
   xml:space="preserve"
   style="enable-background:new 0 0 110.2 184.7;"
   viewBox="0 0 110.2 184.7"
   y="0px"
   x="0px"
   id="Layer_1"
   version="1.1"><metadata
   id="metadata108"><rdf:RDF><cc:Work
       rdf:about=""><dc:format>image/svg+xml</dc:format><dc:type
         rdf:resource="http://purl.org/dc/dcmitype/StillImage" /><dc:title></dc:title></cc:Work></rdf:RDF></metadata><defs
   id="defs106">
	
	
</defs><sodipodi:namedview
   inkscape:current-layer="Layer_1"
   inkscape:window-maximized="1"
   inkscape:window-y="-8"
   inkscape:window-x="-8"
   inkscape:cy="68.235076"
   inkscape:cx="29.651811"
   inkscape:zoom="3.254146"
   showgrid="false"
   id="namedview104"
   inkscape:window-height="1017"
   inkscape:window-width="1920"
   inkscape:pageshadow="2"
   inkscape:pageopacity="0"
   guidetolerance="10"
   gridtolerance="10"
   objecttolerance="10"
   borderopacity="1"
   bordercolor="#666666"
   pagecolor="#ffffff" />
<style
   id="style2"
   type="text/css">
	.st0{fill:#212121;}
	.st1{fill:#FEDD00;}
	.st2{fill:#FBEF9C;}
	.st3{fill:#FABB15;}
	.st4{fill:#FBBA14;}
	.st5{fill:#2E313A;}
	.st6{fill:#535353;}
	.st7{fill:#515151;}
	.st8{fill:#505050;}
	.st9{fill:#4C4C4C;}
	.st10{fill:#FFFFFF;}
	.st11{fill:#FEFEFE;}
	.st12{fill:#FBFBFB;}
	.st13{fill:#F9F9F9;}
	.st14{fill:#F8F7F7;}
	.st15{fill:#F6F5F5;}
	.st16{fill:#F1F1F0;}
	.st17{fill:#F4F4F4;}
	.st18{fill:#E4E4E4;}
	.st19{fill:#DBDADA;}
	.st20{fill:#525252;}
</style>
<g
   transform="matrix(1.1095257,0,0,1.1095257,-6.8650134,-14.519452)"
   id="XMLID_310_">
		<g
   id="XMLID_325_">
			<g
   id="XMLID_62_">
				<path
   id="XMLID_64_"
   class="st0"
   d="m 94.6,83.1 c 0.5,0 0.9,0 1.7,0 -18.4,33.8 -36.6,67.4 -55,101.4 0.3,-5.1 0.6,-9.7 0.9,-14.2 0.8,-12.5 1.6,-25 2.4,-37.5 0.1,-2 0.2,-3.9 0.4,-5.9 0.1,-0.9 -0.1,-1.2 -0.6,-1.1 -0.3,0 -0.6,0 -0.9,0 -11,0 -21.9,0 -33.2,0 C 33.5,83.7 56.6,42 79.7,0.3 c 0,2.2 -0.6,4.1 -1,6 -5.8,25 -11.6,50.1 -17.4,75.1 -0.4,1.8 0,1.8 0.9,1.7 C 73,83 83.8,83 94.6,83.1 Z m -5.3,5 c -3.2,0 -6,-0.2 -8.9,0.1 -3,0 -5.9,-0.1 -8.9,-0.1 C 66.7,88 61.8,88 57,88 c -0.1,-0.4 -0.3,-0.5 -0.5,-0.5 0,-0.2 0,-0.4 0.1,-0.6 3.7,-15.9 7.4,-31.7 11,-47.6 1,-4.3 2.1,-8.5 2.9,-13 0,-0.3 0.1,-0.8 -0.2,-0.7 -0.4,0.1 -0.7,0.6 -0.6,1.4 v 0 c -0.3,-0.2 -0.3,0.2 -0.4,0.4 -0.2,0.4 -0.6,0.6 -0.5,1.2 -0.4,-0.1 -0.5,0.3 -0.5,0.8 -0.4,0.1 -0.5,0.6 -0.7,1 -14.9,27 -29.9,54 -44.8,81 -1.6,3 -3.3,5.9 -5.1,9.2 3.1,0 5.9,0 8.7,0 0.6,0 1.2,0.1 1.8,0.1 6.9,0 13.8,0 20.7,0.1 -0.8,12.5 -1.6,24.9 -2.4,37.4 -0.2,2.8 -0.6,5.6 -0.4,8.5 -0.1,0.3 -0.4,0.6 -0.2,1 0.2,0.3 0.4,0 0.5,-0.3 0.5,-0.9 0.9,-1.8 1.4,-2.8 0.4,-0.4 0.7,-0.9 0.8,-1.5 v 0 c 0.3,-0.5 0.6,-0.9 0.9,-1.4 11.8,-21.7 23.5,-43.4 35.3,-65 1.4,-2.9 2.8,-5.6 4.5,-8.6 z" />
			</g>
			<g
   id="XMLID_63_">
			</g>
		</g>
		<path
   id="XMLID_321_"
   class="st1"
   d="m 47.7,164.5 c -0.5,0.9 -0.9,1.9 -1.4,2.8 -0.1,0.2 -0.3,0.6 -0.5,0.3 -0.3,-0.4 0.1,-0.7 0.1,-1 0.4,-0.5 0.5,-1.2 0.6,-1.9 2.7,-10.7 5.3,-21.4 7.9,-32.1 1,-3.9 1.9,-8.1 2.9,-11.9 -3,0 -5.8,0 -8.7,0 -6.9,0 -13.8,0 -20.7,0 -0.6,0 -1.2,0 -1.8,0 1.2,-2.7 2.4,-5.4 3.6,-8 C 35.5,100.1 41.4,87.5 47.2,75 53.1,62.4 58.9,49.8 64.7,37.1 c 1.1,-2.4 2.6,-4.5 3.2,-7.5 v 0 c 0.4,0.1 0.5,-0.3 0.5,-0.8 v 0 c 0.2,-0.2 0.3,-0.3 0.5,-0.5 l 0.1,0.1 c 0,1 -0.4,1.9 -0.7,2.7 -3.2,8.7 -6.3,17.3 -9.5,26 -2.3,6.3 -4.7,12.6 -7,19 -1.3,3.6 -2.6,7.2 -3.9,10.8 -0.2,0.6 -0.6,1.5 0.3,1.4 2.7,-0.1 5.3,0.2 8,-0.2 0.2,0 0.4,-0.1 0.6,-0.1 4.8,0 9.7,0.1 14.5,0.1 3,0 5.9,0.1 8.9,0.1 -0.1,0.9 -0.5,1.5 -0.8,2.2 -2.7,6.1 -5.4,12.3 -8,18.4 -3.2,7.3 -6.3,14.7 -9.5,22.1 -4.2,10 -8.6,20.1 -12.9,30.1 -0.3,0.6 -0.6,1.1 -0.4,2 v 0 c -0.8,-0.2 -0.9,0.6 -0.9,1.5 z" />
		<path
   id="XMLID_320_"
   class="st2"
   d="m 68.1,29.4 c -0.6,2.9 -2.1,5 -3.2,7.5 -5.8,12.7 -11.7,25.3 -17.5,37.9 -5.8,12.6 -11.7,25.2 -17.5,37.8 -1.2,2.7 -2.4,5.1 -3.6,8.1 -2.8,0 -5.6,0 -8.7,0 1.8,-3 3.4,-6.3 5.1,-9.2 14.9,-27 29.9,-54 44.8,-81 0.1,-0.5 0.2,-1.1 0.6,-1.1 z" />
		<path
   id="XMLID_319_"
   class="st3"
   d="m 48.5,162.9 c -0.2,-0.8 0.2,-1.4 0.4,-2 4.4,-10 8.8,-20.1 13.1,-30.1 3.2,-7.3 6.3,-14.7 9.5,-22.1 2.7,-6.1 5.3,-12.3 8,-18.4 0.3,-0.7 0.7,-1.3 0.8,-2.2 2.9,-0.3 5.7,-0.1 8.9,-0.1 -1.6,3 -3.1,5.7 -4.5,8.4 -11.8,21.7 -23.5,43.4 -35.3,65 -0.2,0.7 -0.6,1.1 -0.9,1.5 z" />
		<path
   id="XMLID_318_"
   class="st4"
   d="m 56.4,88.1 c -2.7,0.4 -5.3,0.1 -8,0.2 -0.9,0 -0.5,-0.9 -0.3,-1.4 1.3,-3.6 2.6,-7.2 3.9,-10.8 2.3,-6.3 4.7,-12.6 7,-19 3.2,-8.7 6.3,-17.3 9.5,-26 0.3,-0.9 0.7,-1.7 0.7,-2.7 0.5,-0.1 0.5,-0.7 0.4,-1.3 0,0 0,0 0,0 0.3,-0.2 0.5,-0.5 0.8,-0.7 -0.7,4.5 -1.9,8.7 -2.9,13 -3.6,15.9 -7.3,31.8 -11,47.6 0,0.2 0,0.4 -0.1,0.6 0,0.1 0,0.3 0,0.5 z" />
		<path
   id="XMLID_317_"
   class="st2"
   d="m 48.7,120.6 c 2.8,0 5.7,0 8.7,0 -1,3.8 -1.9,8 -2.9,11.9 -2.6,10.7 -5.3,21.4 -7.9,32.1 -0.2,0.7 -0.3,1.4 -0.6,1.9 -0.2,-2.9 0.2,-5.7 0.4,-8.5 0.7,-12.4 1.5,-24.6 2.3,-37.4 z" />
		<path
   id="XMLID_316_"
   class="st1"
   d="m 70.4,26.3 c -0.3,0.2 -0.5,0.5 -0.8,0.7 -0.1,-0.8 0.2,-1.3 0.6,-1.4 0.3,-0.2 0.2,0.3 0.2,0.7 z" />
		<path
   id="XMLID_315_"
   class="st3"
   d="m 47.7,164.5 c 0,-0.9 0.1,-1.6 0.8,-1.5 -0.1,0.6 -0.4,1.1 -0.8,1.5 z" />
		<path
   id="XMLID_314_"
   class="st1"
   d="m 69.6,26.9 c 0.1,0.6 0.1,1.2 -0.4,1.3 l -0.1,-0.1 c 0,-0.3 0,-0.5 0,-0.8 0.1,-0.2 0.2,-0.6 0.5,-0.4 z" />
		<path
   id="XMLID_313_"
   class="st2"
   d="m 69.1,27.4 c 0,0.3 0,0.5 0,0.8 -0.2,0.2 -0.3,0.3 -0.5,0.5 -0.1,-0.8 0.3,-1 0.5,-1.3 z" />
		<path
   id="XMLID_312_"
   class="st2"
   d="m 68.6,28.6 c 0,0.5 -0.1,0.9 -0.5,0.8 0,-0.5 0.1,-0.9 0.5,-0.8 z" />
		<path
   id="XMLID_311_"
   class="st5"
   d="m 56.4,88.1 c 0,-0.2 0,-0.4 0.1,-0.6 0.2,0 0.4,0.1 0.5,0.5 -0.3,0 -0.4,0 -0.6,0.1 z" />
	</g>
</svg>
