<?xml version="1.0" encoding="utf-8"?>
<!-- Generator: Adobe Illustrator 19.0.0, SVG Export Plug-In . SVG Version: 6.00 Build 0)  -->
<svg version="1.1" id="Layer_1" xmlns="http://www.w3.org/2000/svg" xmlns:xlink="http://www.w3.org/1999/xlink" x="0px" y="0px"
	 viewBox="0 0 78.2 59.6" style="enable-background:new 0 0 78.2 59.6;" xml:space="preserve">
<style type="text/css">
	.st0{fill:#FFFFFF;}
	.st1{fill:#212121;}
</style>
<g id="XMLID_138_">
	<g id="XMLID_1_">
		<g id="XMLID_4_">
			<path id="XMLID_95_" class="st0" d="M2.3,50.9v-1.4l2.5-0.2v1.3c0.1,1,0.5,1.6,1.2,1.6h0.6c0.9,0,1.3-0.6,1.3-1.8
				c0-1.2-0.6-2.3-1.7-3.4c-2.6-1.9-4-3.9-4-6v-0.7v-0.2c0-0.6,0.1-1.2,0.4-1.7c0.6-1.4,1.8-2,3.6-2l0.5,0.1c2.1,0,3.3,1.2,3.5,3.5
				v0.8L7.7,41v-0.8c-0.2-0.9-0.6-1.3-1.2-1.3H6.1c-0.6,0-1,0.4-1.2,1.3v0.2c0,1.1,0.6,2.2,1.7,3.2c2.6,1.8,4,3.9,4,6.5
				c0,0.5,0,1-0.1,1.4c-0.4,2-1.7,3-4,3H6.3l-0.8-0.1C3.6,54.5,2.5,53.3,2.3,50.9z"/>
			<polygon id="XMLID_94_" class="st0" points="13.6,55.3 13.6,39.5 13.8,39.5 14.4,39.4 15.1,39.5 16,39.5 16,45.9 16.2,46.1 
				18.6,46.1 18.8,45.9 18.8,39.5 21.2,39.5 21.2,55.3 18.8,55.3 18.8,48.6 18.6,48.4 16.2,48.4 16,48.6 16,55.3 			"/>
			<path id="XMLID_91_" class="st0" d="M31.6,39.9c-1,0-1.5,0.5-1.6,1.6v8.7c0.2,1.1,0.6,1.6,1.3,1.6l0.5-0.1c0.8,0,1.2-0.9,1.2-2.8
				v-6.1C33,40.8,32.5,39.9,31.6,39.9z M30.7,54c-2.1-0.4-3.1-1.7-3.1-3.6V41c0.5-2.2,1.6-3.2,3.5-3.2h0.6l1.3,0.2
				c1.5,0.6,2.3,2,2.3,4.2v7.4l-0.2,1.9c-0.6,1.6-1.7,2.5-3.3,2.5H30.7z"/>
			<path id="XMLID_90_" class="st0" d="M45.2,53.9C44.9,54,42.7,54,38.6,54c-0.1-0.3-0.1-5.5-0.1-15.7c0.8-0.1,3-0.1,6.6,0
				c0.1,0.3,0.1,1,0,2.2c-0.3,0.1-1.7,0.1-4.1,0.1l0,4.2l0,0l3.3,0c0.1,0,0.1,0.8,0.1,2.3L41,47.2L41,51.6l0.1,0l4.2,0.1L45.2,53.9
				L45.2,53.9z"/>
			<path id="XMLID_89_" class="st0" d="M51.6,41.7V41c0-0.5,0.1-1,0.3-1.5c0.6-1.2,1.6-1.8,3.2-1.8l0.4,0.1c1.9,0,2.9,1,3.1,3.1v0.1
				v0.7l-2.2,0.2v-0.7c-0.1-0.8-0.5-1.2-1.1-1.2H55c-0.6,0-0.9,0.4-1.1,1.2v0.2c0,1,0.5,1.9,1.5,2.9c2.3,1.5,3.5,3.4,3.5,5.7
				c0,0,0,0,0,0c0,2.6-1.2,3.9-3.6,3.9h-0.1l-0.7-0.1c-1.7,0-2.6-1.1-2.9-3.2v-1.3l2.2-0.2v1.2c0.1,0.9,0.4,1.4,1.1,1.4h0.5
				c0.8,0,1.2-0.5,1.2-1.6c0-1.1-0.5-2.1-1.5-3C52.8,45.4,51.6,43.6,51.6,41.7z"/>
			<path id="XMLID_86_" class="st0" d="M71.3,12.1h1c1.2,0,1.8-0.6,1.8-1.9V9.4c0-1.3-0.6-1.9-1.8-1.9h-1V12.1z M71.3,14.3v6.6
				L71.2,21h-2.4V5.2h3.7c2.9,0,4.3,1.4,4.3,4.3v0.7c0,1.7-0.6,2.9-1.8,3.6h-0.1l2.3,7.3h-2.7l-2-6.7H71.3z"/>
			<path id="XMLID_85_" class="st0" d="M65.2,23.3c-0.3,0.1-2.5,0.1-6.6,0.1c-0.1-0.3-0.1-5.5-0.1-15.7c0.8-0.1,3-0.1,6.6,0
				c0.1,0.3,0.1,1,0,2.2c-0.3,0.1-1.7,0.1-4.1,0.1l0,4.2l0.1,0l3.3,0c0.1,0,0.1,0.8,0.1,2.3L61,16.5L60.9,21l0.1,0l4.2,0.1
				L65.2,23.3L65.2,23.3z"/>
			<path id="XMLID_82_" class="st0" d="M51.6,9.5c-0.1,0.4-0.6,4.1-1.3,11c0.1,0.1,0.5,0.2,1.2,0.2c0.4,0,0.7-0.3,1.1-0.8
				c0.2-0.3,0.5-3.3,1.2-8.9l-0.2-0.8C53.1,9.7,52.5,9.4,51.6,9.5L51.6,9.5z M47.8,22.6c0-0.5,0.6-5.8,1.8-15.8l1.8,0.2
				c3,0,4.5,1.3,4.5,3.7c0,0.5-0.3,3.6-1,9.2c-0.4,2-1.5,3-3.3,3L47.8,22.6L47.8,22.6z"/>
			<path id="XMLID_81_" class="st0" d="M38,23.4V7.2h2.7c0.1,0,0.1,0.1,0.1,0.2l0.1,0.1c1.7,5.8,2.6,8.8,2.7,8.9h0.1V7.2h2.3v9.4
				c0,0.9-0.1,2.3-0.1,4.2L45.7,21l0.1,0l-0.1,1.2v0.1l0,0h0l-0.1,1h-2.1c0,0-0.2-0.4-0.5-1.2c-1.7-5.9-2.6-8.9-2.7-8.9h-0.1v10.1
				H38z"/>
			<path id="XMLID_80_" class="st0" d="M26.2,20.3l0.5-12.8l2.3,0.1l-0.6,12.4c0,0.7,0.5,1.1,1.4,1.2l0.2,0c0.3,0,0.6-0.2,0.9-0.6
				c0.2-1,0.4-5.3,0.7-12.9L34,7.7L33.5,20c-0.3,2.1-1.3,3.2-3.1,3.3l-0.3,0l-1.2,0C27.2,22.8,26.3,21.8,26.2,20.3z"/>
			<polygon id="XMLID_79_" class="st0" points="12.9,22.1 12.9,6.3 13.1,6.3 13.8,6.3 14.5,6.3 15.4,6.3 15.4,12.8 15.5,13 18,13 
				18.2,12.8 18.2,6.3 20.6,6.3 20.6,22.1 18.2,22.1 18.2,15.5 18,15.3 15.5,15.3 15.4,15.5 15.4,22.1 			"/>
			<polygon id="XMLID_78_" class="st0" points="1.6,7 1.3,6.7 1.3,4.4 9.8,4.4 9.8,5.7 9.8,7 7.2,7 6.9,7.2 6.9,10.9 7,11 6.9,11.1 
				6.9,13.1 7,13.7 6.9,14 6.9,15.1 7,15.3 6.9,15.4 6.9,15.5 7,15.6 6.9,15.7 6.9,16.8 7,17 6.9,17.1 6.9,17.9 7,18.8 6.9,18.9 
				6.9,19 7,19.1 6.9,19.3 6.9,19.8 7,19.9 6.9,20 7,20.6 6.9,20.7 7,20.9 7,21.1 6.9,21.2 7,21.4 7,21.5 6.9,21.6 7,21.6 6.9,22.1 
				6.9,22.2 7,22.3 4.2,22.3 4.2,7 			"/>
			<polygon id="XMLID_77_" class="st1" points="77.7,26.7 77.7,26.7 77.5,26.7 			"/>
			<path id="XMLID_76_" class="st1" d="M77.5,3.3L77.5,3.3L77.5,3.3C77.4,3.3,77.5,3.3,77.5,3.3z"/>
			<path id="XMLID_75_" class="st1" d="M74.2,9.4v0.8c0,1.3-0.6,1.9-1.8,1.9h-1V7.4h1C73.6,7.4,74.2,8.1,74.2,9.4z"/>
			<polygon id="XMLID_74_" class="st1" points="67.6,4.1 67.6,4.1 67.5,4.3 67.5,4.3 			"/>
			<path id="XMLID_71_" class="st1" d="M72.4,5.2h-3.7V21h2.4l0.2-0.2v-6.6h1.2l2,6.7h2.7l-2.3-7.3H75c1.2-0.7,1.8-1.9,1.8-3.6V9.5
				C76.8,6.7,75.3,5.2,72.4,5.2z M67.3,26.8L67.3,26.8l-0.2,0.1L67,26.7l0.3-0.3l0.1,0.1h0.3l0.1-0.2l-0.1-0.1h0.1l0.1,0.1l0.1-0.1
				H68l0.3,0.1h0.1v-0.1c-0.4,0-0.5-0.2-0.5-0.5c0-0.6-0.1-0.8-0.1-0.8h-0.1v-0.1h0.1l-0.1-0.1v-0.1l0.1-0.4l-0.1-0.1V24l0.1-0.4
				l-0.1,0.1h-0.1c0-0.3,0-0.4-0.1-0.4l0.1-0.3l-0.1-0.5l0.1-0.1h-0.1l0.1-0.1V22h-0.1v-0.2h0.1l0.1,0.1h0.1v-0.2l-0.1-0.3v-0.1h0.1
				v-0.1l-0.1-0.1V21l0.1-0.4h-0.1l-0.1,0.1l-0.1-0.1v-0.3l0.1-0.3c-0.1,0-0.1-0.2-0.2-0.5l0.1-0.2v-0.1h-0.1l0.1-0.1v-0.2l-0.2-0.4
				v-0.1l0.2-0.4l-0.1-0.1l0.1-0.5v-0.2l-0.1-0.3v-0.1l0.2-0.1L67.6,17v-0.2l0.1-0.1v-0.1h-0.1l0.1-0.1v-0.1l-0.1-0.3
				c0.1,0,0.1-0.2,0.2-0.6c-0.1,0-0.2-0.1-0.2-0.2l0.1-0.3l0.1,0.1h0.1v-0.1L67.6,15h-0.1l0.1-0.6l-0.2-0.4v-0.2h0.1l-0.1-0.3
				l0.1-0.1l0.1,0.1h0.1v-0.2l-0.1,0.1h-0.1l-0.1-0.1v-0.2h0.1l0.1,0.1h0.1V13l-0.1-0.3l-0.2,0.1l0.1-0.1l-0.1-0.1v-0.2l0.3,0.2h0.1
				v-0.1c-0.1,0-0.2-0.1-0.2-0.2v-0.2l0.1,0.1h0.1l-0.1-0.1V12c0-0.1,0.1-0.2,0.2-0.2l-0.1-0.5l0.1-0.1h-0.1l-0.1,0.1v-0.1l0.1-0.1
				l-0.1-0.1V11l0.1-0.3l-0.1-0.2l0.2-0.1V9.9l-0.1-0.1l0.1-0.1V9.6l-0.1-0.1V9.4l0.1-0.1h-0.1V9.2h0.1V9.1h-0.1V8.9L67.6,9h0.2
				l-0.2-0.4c0.1,0,0.2-0.3,0.2-0.8h0.1l-0.1-0.1V7.6l0.1-0.3h-0.1V7.1l0.1,0.1h0.1l-0.2-0.7l0.1-0.5l-0.1-0.1V5.5l0.1-0.4l-0.1-0.3
				h0.1l-0.1-0.1V4.7l0.1-0.3l-0.4,0.3V4.5l0-0.3h0.1l-0.1-0.2h0.1V3.7l-0.1-0.1V3.5h0.1V3.4l1.1,0V3.3l0,0.1h0.3
				c1.1-0.1,2.1-0.1,2.9-0.1l0.1-0.1l0.1,0.1V3.3c0.2,0.1,0.4,0.2,0.8,0.2h0.2l0.1,0.1h0.1V3.5l1.9,0.2V3.5l0.3,0.2V3.6l0.1,0.1h0.2
				l0.1-0.1h0l0.1,0.1v0.1L76,3.7l0.6-0.1l0.1-0.1l0.1,0.1v0.1l0.2-0.4l0.6,0c-0.1,0.1-0.1,0.2-0.1,0.3h-0.1l-0.1-0.1h-0.1v0.2
				l0.2,0.1V3.5l0.4,0.1c0,0.1-0.1,0.2-0.2,0.2v0.1h0.1l0.3-0.1L78,3.9v2.3l-0.1,0.1L78,6.4v0.4l-0.1,1.4L78,8.4l-0.1,0.8v1.1
				L77.8,11h0.1l-0.1,0.1v0.2l0.1,0.1l-0.1,0.9h0.1l-0.1,0.1v1.8l-0.1,0.6h0.1l-0.1,0.9l0.1,0.1l-0.1,1.1v0.8l-0.1,0.1l0.1,0.1v0.3
				l-0.1,0.6h0.1l-0.1,0.1v1L77.6,20v0.1h0.1l-0.1,0.1v0.1l0.3,0.1l-0.1,2l0.1,0.1L77.8,23l-0.1,3.2h-0.1l0.1,0.1v0.4l-0.1,0l0,0
				l-0.2,0.1l0.2,0l-0.1,0.2l-0.1-0.1l-0.4,0.2l0.1,0.3h-0.1c-0.1,0-0.2,0.1-0.2,0.3h-0.2l0.1-0.1v-0.1l-0.2-0.1v0.1l0.1,0.1
				l-0.4,0.1v-0.2L76,27.5H76v-0.2l-0.5,0.2l-0.6-0.2l-0.2,0.1l-0.3-0.1v0.1l-0.3-0.2v0.1L74,27.2l-0.2,0.1l-1-0.2l-0.1,0.1h-0.1
				l-0.2-0.1l-0.1,0.1h-0.1l-0.1-0.1v0.1l-0.1-0.1h-0.1l-0.1,0.1l-0.6-0.3V27l0.1,0.1h-0.5v-0.2L71,27H71l-0.1-0.1l-0.2,0.2
				l-0.2-0.2L70.3,27l-0.2-0.2l-0.2,0.1l-1.3-0.1l-0.1,0.1h-0.1l-0.4-0.2l-0.1,0.1h-0.1l-0.4-0.3L67.3,26.8L67.3,26.8z"/>
			<path id="XMLID_68_" class="st1" d="M58.6,23.4c4.1,0,6.3,0,6.6-0.1l0-0.1l0-2.1L61,21l-0.1,0l0.1-4.5l3.4-0.1
				c0-1.5,0-2.2-0.1-2.3l-3.3,0l-0.1,0l0-4.2c2.4,0,3.8,0,4.1-0.1c0.1-1.2,0.1-1.9,0-2.2c-3.6-0.1-5.8-0.1-6.6,0
				C58.5,17.9,58.5,23.1,58.6,23.4z M57.3,26.7c0.2-1.2,0.3-4.8,0.3-10.8c-0.1-2.3-0.2-4.1-0.1-5.2c0-2.9,0-4.7,0-5.4
				c0.3-0.1,1.2-0.1,2.6,0c0.3,0,0.8-0.1,1.7,0l2.1-0.1c1,0,2,0,2.9,0.1c0.1,0.1,0.1,0.7,0,1.6c0,0.7,0,1.3,0,2c0,1.1,0,3.4-0.1,6.7
				v3.7c0,0.2,0,0.8-0.1,1.7c-0.1,0.9-0.1,2.4,0,4.4l-0.2,1.4l0,0l0,0c0,0.1-0.9,0.2-2.5,0.3c-1.3,0-2-0.1-2.3-0.2
				C58.9,26.9,57.4,26.8,57.3,26.7z"/>
			<path id="XMLID_67_" class="st1" d="M55.4,44.2c-1-1-1.5-1.9-1.5-2.9v-0.2c0.2-0.8,0.5-1.2,1.1-1.2h0.3c0.6,0,0.9,0.4,1.1,1.2
				v0.7l2.2-0.2v-0.7h0.2l0.2,0.5L59,42.1H59L59,42.2v0.1l0.1,0.1l0,0.5l0.1,1.9l0,1.1h0.1L59,46l0.1,1.4L59,47.8l0.1,0.1v0.1l0,0.3
				l0.1,0.6h-0.1l0.1,0.1l0,0.2l-0.1,0.1l0.1,0.1l0,0.2l-0.1,0.1H59C58.9,47.6,57.8,45.7,55.4,44.2z"/>
			<path id="XMLID_66_" class="st1" d="M50.3,20.5c0.8-6.9,1.2-10.6,1.3-11l0.1-0.1c0.9,0,1.5,0.3,1.8,0.8l0.2,0.8
				c-0.6,5.6-1,8.6-1.2,8.9c-0.3,0.5-0.7,0.8-1.1,0.8C50.8,20.7,50.4,20.6,50.3,20.5z"/>
			<path id="XMLID_63_" class="st1" d="M47.8,22.6l3.7,0.4c1.8,0,2.9-1,3.3-3c0.7-5.6,1-8.7,1-9.2c0-2.5-1.5-3.7-4.5-3.7l-1.8-0.2
				C48.4,16.9,47.8,22.1,47.8,22.6L47.8,22.6z M47.4,24.4c0.1,0,0.3-6.2,0.6-18.5c0-0.2,0-0.4,0-0.5c0.6,0.1,1.1,0.2,1.4,0.3
				l0.2-0.1l0.5,0.1l0-0.1l1.3,0.2l0.2-0.1l0.5,0.1l0.3,0l0.4,0v0c0.1,0.1,0.3,0.1,0.5,0.1h0.3l0.1-0.1l0,0.1h0.1
				c0.4,0,0.7,0.1,0.9,0.2l0.1-0.1l0.5,0.1l0.2,0L55.9,6l0.2-0.1V6l0-0.1h0.1L56.5,6l0.4-0.1c0.2,0.3,0.3,0.9,0.3,2l0,0.1V8l0,0.1
				v0.1l0,0.6l0,0.4l0,0.4h0l0,0.1v0.1l0,0.2l0,0.2l0,0.2l0,0.2l0,1.3l0,0.4l0,0.2l0,0.1l0,0.3l0,0.6l0,0v0.1l0,0.2l0,0.2l0,1v1.7
				l0,0.1l0,0.1v0.1l0,0.4l0,0.5v0.9l0,0.1l-0.1,0.3v0.2l0,0.5L57,20.4l0.1,0.2l0,0.3v0.3l0,0.1L57,21.6l0,0.2l0,0.5l0,0.3l0,0.5
				v0.1l0,0.1l0,0.1v0l0,0.6l0,0.4l0,1.1v0.1l0,0.1l0,0.1v0.3l-0.2,0.1l-0.3-0.1l-0.1,0l-8.8-1v-0.3l-0.1-0.2
				C47.5,24.4,47.4,24.4,47.4,24.4L47.4,24.4z"/>
			<path id="XMLID_62_" class="st1" d="M47.3,24.4L47.3,24.4L47.3,24.4C47.3,24.4,47.3,24.4,47.3,24.4z"/>
			<path id="XMLID_61_" class="st1" d="M46.7,24.4l0.5,0c-0.3,0-0.6,0-0.8,0H46.7z"/>
			<path id="XMLID_60_" class="st1" d="M48.8,56.8c-0.2-0.1-0.7-0.2-1.5-0.2l-0.2-0.3h0.1L47,55.2l0-1L47,54.1l0.1-0.1H47l0.1-0.1
				v-0.1l0-4.4H47l0.1-0.1l0-1.2l0-0.6L47,47.4l0.1-0.5l-0.1-0.3l0-0.5l0-0.8l0.1-0.1L46.9,45l0-6l-0.1,0l0-0.1v-0.3l-0.1-0.1
				l0.1-0.1l-0.1-1.7l0-0.6l-0.1,0l0.1-0.1l0-0.8l0.4,0v0.2h0.1v-0.2l0.2,0l0.1,0.1l0.1-0.1l0.3,0.1l0.2-0.1l0.8,0.2l0.1-0.1h0.1
				l1.1,0.1l0.1-0.1l0,0.2h0l0.2-0.2l0.2,0.1l0-0.1l0.3,0.1l0.5,0l0.1,0.1l0.2-0.1l0.1,0l0,0.1l-0.1,0v0.1l0.3-0.1l0.5,0l-0.1,0.1
				l0,0.1h0l0.1-0.1v-0.1l0.3,0.1h0l0.3-0.1l0.3,0.2l0-0.1l0.4,0l0.1,0.1l0.1-0.1l0.1,0l0.4,0.2l0.4-0.1l0.3,0l0.1,0.1l0.1-0.1
				l0.3,0l0.1,0.1l0.1-0.1l1.1,0l0.1-0.1h0.1l0.1,0.1v0.1l0-0.1l0.1,0l0.1,0.1h0.1l0-0.2l0.2,0l0.1,0.1l0.6-0.3v0.2l-0.1,0v0.1
				l0.1,0l0.2-0.3l0.1,0c0,0.2,0.1,0.3,0.1,0.3l0,0.1v0.2l0.1,0.1V36l-0.1,0.1h0.1l-0.1,0.1l0.1,0.5l0,1.1l0,0.6l0.1,0.1v0.1
				l-0.1,1.8l0.1,0.1l-0.1,0.1l0.1,0.1l-0.1,0.1h-0.1h-0.2v-0.1c-0.2-2.1-1.2-3.1-3.1-3.1l-0.4-0.1c-1.6,0-2.6,0.6-3.2,1.8
				c-0.2,0.5-0.3,0.9-0.3,1.5v0.8c0,1.9,1.2,3.6,3.5,5.3c1,0.9,1.5,1.9,1.5,3c0,1.1-0.4,1.6-1.2,1.6h-0.5c-0.6,0-1-0.5-1.1-1.4v-1.2
				l-2.2,0.2v1.3c0.2,2.1,1.2,3.2,2.9,3.2l0.7,0.1h0.1c2.4,0,3.6-1.3,3.6-3.9c0,0,0,0,0,0h0.2l0.1,0.1l0,0.1c0,0.9,0,1.4-0.1,1.4
				l0.2,0.6h-0.1l0.1,0.4l0,0.5h0.1l-0.1,0.5l0.2,0.2L59.2,54v0.1l0.1,0.6l-0.1,0.3l0.2,0.3l-0.2,0.8l0.1,0.1l-0.1,0.1h-0.1l0.1,0.1
				l0,0.7l-0.3,0l-0.1-0.1l-0.1,0.1l-0.8,0L58,57.4l-0.1,0l0-0.2l-0.1,0.1l-0.7,0l-0.5-0.1l-0.1,0.1l-0.1-0.1v0.1l-0.1-0.1l-0.5,0
				l-0.1,0.1l-0.5-0.2l-0.2,0.1L55,57.2l0,0.1l-0.7-0.2l-0.1,0.1l-0.3-0.1l-0.6,0l-0.3-0.1l0,0.1L51.6,57l0,0.1l-0.5-0.2L51.1,57
				L48.8,56.8L48.8,56.8z"/>
			<path id="XMLID_59_" class="st1" d="M45.8,20.8c0.1-1.9,0.1-3.3,0.1-4.2v6.8h-0.3l0.1-1h0l0,0v-0.1l0.1-1.2l-0.1,0L45.8,20.8z"/>
			<path id="XMLID_58_" class="st1" d="M46,15.2L46.4,9h0l0.2-2.6h0l0.1-0.5h-0.1c0.1-0.4,0.1-0.6,0.3-0.6c0.4,0,0.8,0.1,1.1,0.1
				c0,0.2,0,0.4,0,0.5c-0.3,12.3-0.5,18.5-0.6,18.5l0,0c0,0,0,0-0.1,0l-0.5,0h-0.3c-0.5-0.1-0.8-0.2-0.8-0.4l-0.1-0.3l0-0.4h0.3
				v-6.8C46,15.9,46,15.4,46,15.2L46,15.2z"/>
			<path id="XMLID_55_" class="st1" d="M38.6,54c4.1,0,6.3,0,6.6-0.1l0-0.1l0-2.1L41,51.6l-0.1,0l0.1-4.5l3.4-0.1
				c0-1.5,0-2.2-0.1-2.3l-3.3,0l0,0l0-4.2c2.4,0,3.8,0,4.1-0.1c0.1-1.2,0.1-1.9,0-2.2c-3.6-0.1-5.8-0.1-6.6,0
				C38.5,48.5,38.5,53.7,38.6,54z M37.6,46.5c-0.1-2.3-0.2-4.1-0.1-5.2c0-2.9,0-4.7,0-5.4c0.3-0.1,1.2-0.1,2.6,0c0.3,0,0.8,0,1.7,0
				l2.1-0.1c1,0,2,0,2.9,0.1c0,0,0.1,0.2,0.1,0.3c0,0.3,0,0.7,0,1.3c0,0.6,0,1.3,0,2c0,1.1,0,3.4-0.1,6.7v3.7c0,0.2,0,0.8-0.1,1.7
				c-0.1,0.9-0.1,2.4,0,4.4l-0.2,1.4l0,0l0,0c0,0.1-0.9,0.2-2.5,0.3c-1.3,0-2-0.1-2.3-0.2c-2.7,0.1-4.1,0.1-4.3,0
				C37.5,56.1,37.6,52.5,37.6,46.5z"/>
			<path id="XMLID_54_" class="st1" d="M35.8,19.5l0.2-3.6h-0.1l0.1-2.8L35.9,13l0-0.2l0.1-0.1l-0.1,0v-0.1l0.1-0.1l0-0.3L35.9,12
				h0.1c0-2,0-2.9,0.1-3l-0.1,0L36.1,8L36,8V7.9l0.1-0.1l0-0.2L36,7.5l0.2,0L36,7.3l0.1-0.5l-0.1,0l0-0.5L36,5.8l0.1-0.1l-0.2,0V5.6
				L36,5.5l-0.1-0.8l-0.1-0.1l0.1,0c0-0.1,0-0.1-0.1-0.2l0-0.2l0.2-0.3l0.4-0.1h0l0,0.1l0.1-0.1l0.1,0.1l0.2-0.1l0.3,0.1l0.3-0.1
				l0.7,0.1l0.3-0.1l0,0.1h0l0.2-0.1l1.4,0.1h0.1l0.5,0.1l0-0.1h0.1l0.8,0.1h0.6l0.4,0.1l0-0.1c3.5,0.3,5.2,0.4,5.2,0.5
				c0,0.3,0.1,0.7,0.1,1c-0.3-0.1-0.7-0.1-1.1-0.1c-0.1,0-0.2,0.2-0.3,0.6h0.1l-0.1,0.5h0L46.4,9h0L46,15.2l0,0.1
				c0,0.1,0,0.6-0.1,1.3V7.2h-2.3v9.1h-0.1c-0.1-0.1-1-3-2.7-8.9l-0.1-0.1c0-0.1,0-0.2-0.1-0.2H38v16.1h2.3V13.3h0.1
				c0.1,0,1,2.9,2.7,8.9c0.3,0.8,0.4,1.2,0.5,1.2h2.1l0,0.4l0.1,0.3c0,0.2,0.3,0.3,0.8,0.4H46l-0.5-0.1l0,0.1L45,24.3h-1.5l-0.4-0.1
				l0,0.1l-0.2-0.1h-0.4l-0.4-0.1l-0.2,0.1l-1.5-0.1h-0.2l-0.4-0.1l-0.2,0.1l-0.2-0.1l-0.1,0.1L38.5,24l-2.7,0.4c0-0.2,0-0.4,0-0.6
				l-0.1-0.1l0.1-2h-0.1l0.1-0.1l-0.1-0.1l0.1-1.9L35.8,19.5L35.8,19.5z"/>
			<path id="XMLID_53_" class="st1" d="M35.6,23.4c-0.1,0-0.1-0.1-0.1-0.3v-0.5l0.1-1l-0.1-0.3l0-0.1v-0.1L35.4,21l0.1-0.3v-0.1h0
				l0-0.7V19l0-0.6l0.1-0.7l0-0.3l0-0.5l0-0.1l0-0.3v0l0-0.6c0.1-0.2,0.1-0.4,0.1-0.7l0-0.4l0.1-0.4l0-0.2l0-1.8h0l-0.1-0.4l0-0.2
				l0-0.2l0.1-1.8h0l-0.1-0.6l0.1-0.5l0-0.1l0-0.4V7.2l0-0.1l0-0.1V7l0-0.3l0-0.1V6.5l0-0.4l0-0.6l0.1-0.4V4.8l0-0.4
				c0.1,0.1,0.1,0.1,0.1,0.2l-0.1,0l0.1,0.1L36,5.5l-0.1,0.1v0.1l0.2,0L36,5.8l0.1,0.4l0,0.5l0.1,0L36,7.3l0.2,0.2l-0.2,0l0.1,0.1
				l0,0.2L36,7.9V8l0.1,0L36,9.1l0.1,0c-0.1,0-0.1,1-0.1,3h-0.1l0.1,0.1l0,0.3l-0.1,0.1v0.1l0.1,0l-0.1,0.1l0,0.2l0.1,0.1l-0.1,2.8
				H36l-0.2,3.6h-0.1l0.1,0.1l-0.1,1.9l0.1,0.1l-0.1,0.1h0.1l-0.1,2l0.1,0.1c0,0.2,0,0.4,0,0.6l-0.2,0l0-0.1V24L35.6,23.4z"/>
			<path id="XMLID_52_" class="st1" d="M30,50.2v-8.7c0.1-1.1,0.6-1.6,1.6-1.6c0.9,0,1.4,1,1.4,2.9v6.1c0,1.9-0.4,2.8-1.2,2.8
				l-0.5,0.1C30.5,51.8,30.1,51.3,30,50.2z"/>
			<path id="XMLID_49_" class="st1" d="M27.6,50.3c0,2,1,3.2,3.1,3.6h1.1c1.6,0,2.7-0.8,3.3-2.5l0.2-1.9v-7.4c0-2.2-0.8-3.6-2.3-4.2
				l-1.3-0.2h-0.6c-1.9,0-3.1,1.1-3.5,3.2V50.3z M25.6,37.4l0.1-0.2l0.1,0.1c0-0.2,0.1-0.3,0.2-0.3v-0.1L26,37l0.3-0.1l0.2,0.1
				l0.3-0.1h1.2l4.4-0.2v-0.1l0.1,0.1h0.1l0.1-0.1l0.1,0.1l0.3-0.1h0.4l0.7-0.1l0.1,0.1h0.1c0.4,0,0.5-0.1,0.5-0.2l0.1,0.1h0.9
				l0.1,0.1l0.1-0.1h0.5l0.1,0.1l0.1-0.1h0.2l0.1,0.1l0.1-0.1h0.1c0.1,0.1,0.2,0.3,0.2,0.7l-0.1,0.5v0.2h0.1l-0.1,1.1v1.5l-0.1,0.1
				l0.1,0.1v0.1l-0.1,0.1l0.1,0.5l-0.1,0.1v0.1l0.1,0.7l-0.1,0.3l0.1,0.5l-0.1,0.6l0.1,0.1l-0.1,0.8v2.5l-0.1,0.1l0.1,0.1V49
				l-0.1,0.1l0.1,0.1v0.5l-0.1,0.1l0.1,0.1v0.1l-0.1,0.1l0.1,0.1v0.3l-0.1,0.1l0.1,0.1v0.5l-0.1,0.4l0.1,0.4v0.3l-0.1,0.1l0.1,0.1
				v0.1c0,1.2,0,1.8-0.1,1.8l0.1,0.5v0.9l0.1,0.1l-0.1,0.1v0.1l0.1,0.5h-0.1l0.1,0.1v0.1l-0.1,0.1v0.1l0.1,0.1l-0.1,0.1l-0.1-0.1H37
				l-0.3,0.3l-0.1-0.1c-0.3,0-0.5,0.1-0.5,0.2l0-0.1l-0.7,0.2L35.3,58l-0.5,0.1h-0.4l-0.1,0.1l-0.1-0.1h-0.1l-0.2,0.1v-0.1L34,58.2
				h-0.6l-0.3,0.1l-0.3-0.1l-0.3,0.1l-0.1-0.1l-0.3,0.1h-0.1L32,58.2l0,0.1h-0.4l-0.1-0.1h-0.1l-0.1,0.1v-0.1l-0.1,0.1h-0.1L31,58.2
				l-0.5,0.1l-0.2-0.1v0.1l-0.1-0.1H30l-0.3,0.1l-0.5-0.1h-0.6l-0.6,0.1L28,58.2h-0.1l-0.2,0.1l-0.1-0.1l-0.3,0.1H27l-0.2-0.2
				l-0.1,0.1c0-0.3,0-0.4-0.1-0.4l0-0.1v-0.4l0-0.1l0-0.1v-0.4l0-0.1v-0.1h0l0-0.1v-1.1L26.5,55l0.1-0.1v-0.1c0-0.9-0.1-1.4-0.1-1.4
				l0.1-0.1l-0.1-1l0.1-0.1V52l-0.1-0.1l0.1-0.1v-0.3h-0.1l0.1-0.1l-0.1-0.1v-0.4l0.1-0.1l-0.1-0.6h-0.1l0.1-0.1v-0.2l-0.1-0.2
				L26,49.7L26,49.6v-0.1c0.1,0,0.1-0.1,0.1-0.3L26,48.8l0.1-0.2H26v-0.1l0.1-0.5c-0.1,0-0.1,0-0.1,0c0-0.1,0-0.3,0-0.4h0v0.2h0.1
				l-0.1-0.1v-0.1l0.1-0.1L26,46.9c0-0.1,0-0.2,0-0.3l0.1,0L26,46.4c0-0.1,0-0.2,0-0.3l0,0V46c0,0,0,0,0,0c0-1.8,0-3.7,0-5.6
				C26.1,38.7,25.9,37.7,25.6,37.4L25.6,37.4z"/>
			<path id="XMLID_48_" class="st1" d="M26,46.6c0,0.1,0,0.2,0,0.3l-0.1-0.3L26,46.6z"/>
			<path id="XMLID_47_" class="st1" d="M26,47.9c0,0-0.1-0.2-0.1-0.3l0.1-0.1h0C26,47.7,26,47.8,26,47.9z"/>
			<path id="XMLID_46_" class="st1" d="M25.8,46.2l0.2-0.1c0,0.1,0,0.2,0,0.3l0-0.1v0.2h-0.1L25.8,46.2z"/>
			<path id="XMLID_45_" class="st1" d="M25.5,37.4L25.5,37.4L25.5,37.4C25.5,37.4,25.5,37.4,25.5,37.4z"/>
			<path id="XMLID_44_" class="st1" d="M25.4,37.3L25.4,37.3C25.5,37.3,25.4,37.3,25.4,37.3L25.4,37.3L25.4,37.3z"/>
			<path id="XMLID_43_" class="st1" d="M25.1,40.6H25L24.9,40l0.1-0.1h-0.1l0.1-0.1v-0.1l-0.1-0.5l0.2-0.3L25,38.4l0.1-0.1v-0.1
				L25,37.7h0.1L25,37.8l0.1,0.3h0.1v-0.2h0.1l0.1,0.1h0.1l-0.1-0.1v-0.2h0.1v-0.2h-0.1v-0.2c0,0,0.1,0,0.1,0.1l0,0h0
				c0.4,0.3,0.6,1.3,0.5,3c0,1.9,0,3.8,0,5.6c-0.1,0-0.2-0.3-0.2-0.9h-0.1l0.1-0.6c0-0.2-0.2-0.4-0.6-0.4l0.1-0.2l0.1,0.1
				c0-0.2,0.1-0.3,0.3-0.3c0-0.2-0.1-0.3-0.3-0.3l-0.1-0.1V43l0.2-0.1l0.1,0.1l-0.1-0.4h0.1l0.2,0.1c0-0.1-0.1-0.2-0.2-0.2l0.1-0.1
				v-0.1h-0.1v-0.1h0.1V42h-0.2v-0.1c0.2,0,0.3-0.1,0.3-0.3l-0.2-0.4l-0.3,0.1l-0.1-0.1v-0.1h0.1l0.1,0.1h0.1l0.1-0.2v-0.3l-0.1,0.1
				h-0.1l-0.1-0.5l0.3-0.4L25.2,40c0-0.3,0.1-0.6,0.4-0.8v-0.1h-0.2V39l0.1-0.1v-0.1h-0.1l-0.1,0.1h-0.1l-0.1-0.1v0.1l0.1,0.2v0.1
				h-0.2l0.1,0.1v0.1L25,39.7l0.1,0.1H25l0.1,0.1v0.3L25,40.3l0.1,0.1V40.6z"/>
			<path id="XMLID_42_" class="st1" d="M24.6,7.7c0-0.5,0.1-0.8,0.1-0.8l-0.2-0.3l0.1-0.1l-0.1-1.3l0.1-0.1l0-0.1l-0.1,0l0.1-0.1
				l-0.1-0.6l0.1-0.1c0.6,0.1,0.8,1.1,0.7,3.1c0,3.3,0,6.5-0.1,9.6l0,0L25.2,17c0,0.5,0,2.3-0.1,5.3l-0.1-0.3l0-0.2l0.1-0.5L25,21.3
				l0.1,0L25,21.2l0.1-0.5L25,19.3l0.1-0.1L25,19.1l0-0.2l0-0.5L25,18.2H25L25,18.1l0-0.5l-0.1-0.1l0.1-0.1l-0.1-2.2l0-0.8l-0.1-0.1
				l0.1,0l-0.1-0.1l0-0.1l0.1-0.7h-0.1l0.1-0.1l-0.1-1.8l0-0.7l-0.1-0.1v-0.1l0-0.6h-0.1l0.1-0.1l0-0.8l0-1.1l-0.1-0.1L24.6,7.7z"/>
			<path id="XMLID_39_" class="st1" d="M26.2,20.3c0.1,1.5,1,2.5,2.7,3l1.2,0l0.3,0c1.8-0.1,2.8-1.2,3.1-3.3L34,7.7l-2.3-0.1
				c-0.3,7.7-0.5,12-0.7,12.9c-0.4,0.4-0.6,0.6-0.9,0.6l-0.2,0c-0.9-0.1-1.4-0.5-1.4-1.2l0.6-12.4l-2.3-0.1L26.2,20.3z M24.6,4.2
				l-0.1,0.1l0-0.3l0-1.1l9.3,0.8l0,0.2L33.7,4v0.1L34,4.2c1,0,1.5,0.1,1.8,0.2l0,0.4v0.4l-0.1,0.4l0,0.6l0,0.4v0.1l0,0.1l0,0.3V7
				l0,0.1l0,0.1v1.2l0,0.4l0,0.1l-0.1,0.5l0.1,0.6h0l-0.1,1.8l0,0.2l0,0.2l0.1,0.4h0l0,1.8l0,0.2l-0.1,0.4l0,0.4
				c0,0.3,0,0.5-0.1,0.7l0,0.6v0l0,0.3l0,0.1l0,0.5l0,0.3l-0.1,0.7l0,0.6v0.8l0,0.7h0v0.1L35.4,21l0.1,0.2v0.1l0,0.1l0.1,0.3l-0.1,1
				v0.5c0,0.2,0.1,0.3,0.1,0.3l0,0.6v0.3l0,0.1l0.2,0c0,1.3-0.1,2-0.2,2c-1.6-0.3-4.1-0.4-7.4-0.5V26l-0.1-0.1H28L27.9,26l-0.1-0.1
				l-0.1,0l-2.6-0.1l0-0.1h0.2l0-0.1l-0.1-0.1l0.1-0.3l-0.1-0.9l0.1-0.1l0-0.1l-0.2-0.3l0.1-0.4l-0.1-0.1l0-0.2l0.1-0.3l-0.1-0.3
				c0.1-3,0.1-4.8,0.1-5.3l0.1-0.1l0,0c0.1-3.1,0.1-6.3,0.1-9.6C25.5,5.3,25.2,4.3,24.6,4.2z"/>
			<polygon id="XMLID_38_" class="st1" points="15.1,37.7 15.1,37.8 15,38 14.9,38 14.9,37.8 			"/>
			<polygon id="XMLID_37_" class="st1" points="14.7,38.1 14.7,38.2 14.7,38.2 14.6,38.1 			"/>
			<polygon id="XMLID_36_" class="st1" points="14.4,4.6 14.4,4.7 14.3,4.8 14.3,4.8 14.3,4.7 			"/>
			<polygon id="XMLID_35_" class="st1" points="13.9,5 14.1,5 14.1,5.1 14,5.1 			"/>
			<rect id="XMLID_34_" x="13.5" y="37.8" class="st1" width="0.2" height="0.1"/>
			<polygon id="XMLID_33_" class="st1" points="13.1,38.1 13.3,38.1 13.3,38.1 13.1,38.2 			"/>
			<rect id="XMLID_32_" x="12.8" y="4.7" class="st1" width="0.2" height="0.1"/>
			<polygon id="XMLID_31_" class="st1" points="12.5,5 12.6,5 12.6,5 12.5,5.1 			"/>
			<polygon id="XMLID_30_" class="st1" points="12.5,37.6 12.4,37.5 12.4,37.5 12.4,37.5 12.6,37.5 12.6,37.6 			"/>
			<path id="XMLID_29_" class="st1" d="M11.9,36.6c-0.2,0-0.3-0.2-0.3-0.5c0.2,0,0.3-0.1,0.3-0.1l0,0.3L11.9,36.6z"/>
			<polygon id="XMLID_28_" class="st1" points="11.7,4.4 11.9,4.4 11.9,4.5 11.8,4.5 11.8,4.5 11.7,4.4 			"/>
			<path id="XMLID_21_" class="st1" d="M15.1,37.8v-0.1l-0.2,0.1V38H15L15.1,37.8z M14.7,38.2v-0.1h-0.2L14.7,38.2L14.7,38.2z
				 M13.8,39.5h-0.2v15.8H16v-6.7l0.2-0.2h2.5l0.2,0.2v6.7h2.4V39.5h-2.4v6.5l-0.2,0.2h-2.5L16,45.9v-6.5h-0.9l-0.8-0.1L13.8,39.5z
				 M13.5,38h0.2v-0.1h-0.2V38z M13.3,38.1h-0.1v0.2L13.3,38.1L13.3,38.1z M12.1,49l-0.3-1.1l0.2,0l-0.2-0.5l0.1-0.6l-0.2-0.2h0.2
				l0-0.9l0.1-0.1c-0.2,0-0.3-0.1-0.3-0.2l0.1-0.4l-0.1-0.9l0.2-0.8l-0.2,0v-0.1l0.2-0.4l0-0.1h-0.2l0.1-0.1v-0.1l-0.1-1.7l0.1-0.1
				l-0.1,0l0.1-0.3L11.9,40l0-0.1l0.2-0.6h-0.2v-1.8l0.1,0l-0.1-0.1l0-0.2l0,0l0,0l0-0.3c0,0,0,0,0.1,0l0-0.2c0,0-0.1,0-0.1,0l0-0.3
				l0-0.3l0,0.1l0.1,0l0.3,0c0.1,0.2,0.1,0.3,0.2,0.3l0.2,0c0,0.2,0.1,0.2,0.1,0.3l0.1,0c0-0.1,0.2-0.2,0.4-0.2l0.1,0
				c0.1,0,0.1,0.1,0.1,0.3l0.2,0c0-0.2,0.1-0.2,0.1-0.2l0.3,0.3l0.1,0c0.1-0.2,0.1-0.3,0.2-0.3l0,0.1l-0.1,0.2l0,0.1V37
				c-0.2,0.2-0.3,0.4-0.5,0.4c0-0.1-0.1-0.2-0.3-0.4c-0.1,0-0.1,0-0.1,0.1c-0.3,0-0.6-0.1-0.7-0.3c-0.1,0-0.1,0-0.1,0.2l0,0.2
				l-0.4,0.2h-0.1l0-0.1h-0.1l0,0.2l0.1,0.1v0v0.1h0.1l0.3,0.4l0,0l0,0.1l0.2,0l0.1-0.3L13,37.7v-0.1l0.3-0.2l0.5,0.1l0.2,0l0.1,0.1
				h0.4l0,0.2l0.1,0l0.1,0l0.2,0.1l0.4-0.2c0.1,0,0.3,0.1,0.4,0.3l0.5,0.1l0.6-0.1L17,38l0.4-0.1l0.4,0.2l0-0.1c0.7,0,1,0,1.1-0.1
				l-0.1-0.2l0-0.2l0.5,0l0,0.2l0.1,0c0.1,0,0.1-0.1,0.2-0.2h0l0.2,0.1l0.1,0l0.2-0.1h0.1l0.1,0.1l0.1,0h0.1l0.4,0.1
				c0.2-0.1,0.3-0.3,0.3-0.4l0.4,0.2l0.1,0c0-0.1,0.2-0.2,0.5-0.3h0.1v0.1l-0.1,0.3l0.1,0l0.2-0.1l0.4,0.2v-0.1l0.1-0.2l0-0.1h-0.1
				l-0.2,0l0-0.2l0.2,0c0.4,0.1,0.6,0.3,0.6,0.4l0.2,0c0-0.1,0.1-0.3,0.4-0.5l0.3,0.2l0-0.1l0.3,0l0,0.1l0.1,0l0.2,0l0.2,0.2
				l0.2-0.3c0,0,0,0,0.1,0v0.2h0.1v0.2h-0.1v0.2l0.1,0.1h-0.1l-0.1-0.1h-0.1v0.2h-0.1L25,37.8l0.1-0.1H25l0.1,0.4v0.1L25,38.4
				l0.1,0.4l-0.2,0.3l0.1,0.5v0.1l-0.1,0.1H25L24.9,40l0.1,0.6h0.1v-0.2L25,40.3l0.1-0.1v-0.3L25,39.8h0.1L25,39.7l0.1-0.2v-0.1
				l-0.1-0.1h0.2v-0.1l-0.1-0.2v-0.1l0.1,0.1h0.1l0.1-0.1h0.1v0.1L25.4,39v0.1h0.2v0.1c-0.3,0.2-0.4,0.4-0.4,0.8l0.5-0.2l-0.3,0.4
				l0.1,0.5h0.1l0.1-0.1V41l-0.1,0.2h-0.1l-0.1-0.1h-0.1v0.1l0.1,0.1l0.3-0.1l0.2,0.4c0,0.2-0.1,0.3-0.3,0.3V42h0.2v0.1h-0.1v0.1
				h0.1v0.1l-0.1,0.1c0.1,0,0.2,0.1,0.2,0.2l-0.2-0.1h-0.1l0.1,0.4l-0.1-0.1L25.4,43v0.2l0.1,0.1c0.2,0,0.3,0.1,0.3,0.3
				c-0.2,0-0.3,0.2-0.3,0.3l-0.1-0.1l-0.1,0.2c0.4,0,0.6,0.2,0.6,0.4l-0.1,0.6h0.1c0,0.5,0.1,0.8,0.2,0.9c0,0,0,0.1,0,0.1l-0.2,0.1
				l0.1,0.3H26v-0.2l0,0.1c0,0.1,0,0.1,0,0.2l-0.1,0l0.1,0.3c0,0.2,0,0.4,0,0.6h0l-0.1,0.1c0,0.1,0,0.2,0.1,0.3c0,0.7,0,1.4,0,2.1
				l0,0.1l-0.1,0c0,0.6,0,2.4-0.1,5.6l0,0l-0.1,0v0l-0.1,2.7c-3.4,0.1-6.7,0.2-9.9,0.2l-0.3-0.1l-0.2,0l0-0.1c0-0.3,0.5-0.7,1.4-1.4
				l-0.1-0.1l-0.4,0.1L16,57.1C15.4,57,14.8,57,14.2,57l-0.1,0l0.3-0.3l-0.1-0.1c-0.1,0-0.1,0-0.1,0.2l-0.3,0
				c-0.1,0-0.1,0.1-0.2,0.3l-0.2,0v-0.1l0.1-0.2l-0.2-0.1c-0.2,0.2-0.4,0.3-0.6,0.3l-0.6-0.1l-0.4-0.1v-0.1l0.1-0.1l0-0.1l-0.1-0.1
				V56l0.1-0.5l-0.1-0.1l0-0.1l0.1-0.1l0-0.1l-0.2-0.5l0.1-0.1l0.1-1.2h-0.2l0.2-0.6L12,52.5l0.1-0.1H12l0.2-0.6l-0.2,0l0,0.3h-0.1
				l0-0.1l0.1-0.5l-0.2-0.5v-0.1H12V51h0.1l0-0.7L12,50.2v-0.1h0.1l-0.3-0.9L12.1,49l0,0.1L12.1,49z"/>
			<path id="XMLID_20_" class="st1" d="M11.6,37.1L11.5,37v-0.1l0.1-0.1l0.2,0.1c0-0.1,0.1-0.1,0.1-0.1l0,0.3l-0.1-0.1l-0.1,0
				L11.6,37.1z"/>
			<path id="XMLID_19_" class="st1" d="M11.3,56.6c-0.7-0.1-1.1-0.3-1-0.5l0-0.9l0.1-0.2l0.1-1.3l0.2-0.5c-0.1-0.2-0.1-0.4,0-0.6
				l0-0.3l0.1-0.2c-0.1-0.1-0.1-0.3,0-0.5l-0.1,0l0.1,0l0-0.1l0-0.3l0.1-0.2l0.4-5.6l0.1,0l0-0.1l-0.1-0.5l0.1-0.6l0-0.2l0.1,0
				l0-0.1l0-1l0.1-0.2c0-0.5,0-0.7-0.1-0.7l0.1-0.1l0-0.1l0-1.8l0.3-0.7l-0.1,0l0.3-0.5L11.5,38l0.1-0.3l0-0.1l0-0.1l0.4-0.4l0,0.2
				l0.1,0.1l-0.1,0v1.8h0.2l-0.2,0.6l0,0.1l0.1,0.2l-0.1,0.3l0.1,0l-0.1,0.1l0.1,1.7v0.1l-0.1,0.1H12l0,0.1l-0.2,0.4v0.1l0.2,0
				l-0.2,0.8l0.1,0.9l-0.1,0.4c0,0.2,0.1,0.2,0.3,0.2l-0.1,0.1l0,0.9h-0.2l0.2,0.2l-0.1,0.6l0.2,0.5l-0.2,0l0.3,1.1l0,0.1L12,49
				l-0.2,0.2l0.3,0.9H12v0.1l0.1,0.1l0,0.7H12v-0.3h-0.1v0.1l0.2,0.5l-0.1,0.5l0,0.1H12l0-0.3l0.2,0L12,52.4h0.1L12,52.5l0.1,0.1
				l-0.2,0.6H12l-0.1,1.2l-0.1,0.1l0.2,0.5l0,0.1l-0.1,0.1l0,0.1l0.1,0.1L11.9,56v0.1l0.1,0.1l0,0.1l-0.1,0.1v0.1l-0.4-0.1
				L11.3,56.6L11.3,56.6z"/>
			<path id="XMLID_12_" class="st1" d="M14.4,4.7V4.6l-0.2,0.1v0.2h0.1L14.4,4.7z M14.1,5h-0.2L14,5.1h0.1V5z M12.9,6.3v15.8h2.4
				v-6.7l0.2-0.2H18l0.2,0.2v6.7h2.4V6.3h-2.4v6.5L18,13h-2.5l-0.2-0.2V6.3h-0.9l-0.8-0.1l-0.6,0.1H12.9z M12.8,4.8H13V4.7h-0.2V4.8
				z M12.6,5h-0.1v0.2L12.6,5L12.6,5z M10.6,16.3L10.6,16.3v-0.1l0-0.4l-0.1-0.1l0-0.1h0.1l-0.1-0.1v-0.2l0.1-0.1l-0.1-3.1h0.1
				l0-0.9v0l0-0.1l0-0.2l0,0l0-0.1l0-1l0.1-0.2c0-0.5,0-0.7-0.1-0.7l0.1-0.1l0-0.1l0-1.8l0.3-0.6l-0.1,0l0.2-0.5l-0.4-0.8l0.1-0.3
				l0-0.1l0-0.1L11.3,4L11.1,4L11.1,4L11,4l-0.1-0.1v0L11,3.7l0.2,0.1c0-0.1,0.1-0.1,0.2-0.1l0-0.2c-0.3,0-0.4-0.2-0.3-0.5
				c0.2,0,0.3-0.1,0.3-0.1l0,0l0.1,0l0.4,0c0,0.2,0.1,0.3,0.2,0.3l0.2,0c0,0.2,0.1,0.2,0.2,0.3l0.1,0c0-0.1,0.2-0.2,0.4-0.2l0.1,0
				c0.1,0,0.1,0.1,0.1,0.3l0.2,0c0-0.2,0.1-0.2,0.2-0.2l0.3,0.3l0.1,0c0.1-0.2,0.1-0.3,0.2-0.3l0,0.1l-0.1,0.2l0,0.1v0.1
				c-0.2,0.2-0.3,0.4-0.5,0.4c0-0.1-0.1-0.2-0.3-0.4c-0.1,0-0.1,0-0.1,0.1c-0.4,0-0.6-0.2-0.7-0.3c-0.1,0-0.1,0-0.1,0.2l0,0.2
				l-0.4,0.2h-0.1l-0.1-0.1h-0.1l0,0.2l0.1,0.1v0.1h0.1h0l0.3,0.4l0,0l0,0.1l0.2,0l0.1-0.3l-0.1-0.2V4.5l0.3-0.2l0.5,0.1l0.2,0
				l0.1,0.1h0.4l0,0.2l0.1,0l0.1,0l0.2,0.1l0.5-0.2c0.1,0,0.2,0.1,0.4,0.3l0.5,0.1L16,4.8l0.3,0.1l0.4-0.1L17.2,5l0-0.1
				c0.7,0,1,0,1-0.1l-0.1-0.2l0-0.2l0.5,0l0,0.2l0.1,0c0.1,0,0.1-0.1,0.2-0.2h0l0.2,0.1l0.1,0l0.2-0.1h0.1l0.1,0.1l0.1,0h0.1
				l0.4,0.1c0.2-0.1,0.3-0.3,0.3-0.4l0.5,0.2l0.1,0c0-0.1,0.2-0.2,0.5-0.3h0.1v0.1l-0.1,0.3l0.1,0l0.2-0.1l0.5,0.2V4.5l0.1-0.2
				l-0.1-0.1h-0.1l-0.2,0l0-0.2l0.2,0c0.4,0.1,0.6,0.3,0.6,0.4l0.2,0c0-0.1,0.1-0.3,0.4-0.5l0.3,0.2l0-0.1l0.3,0l0.1,0.1l0.1,0
				l0.2,0l0.2,0.2l0.1-0.2l0.1,0.6L24.6,5l0.1,0l0,0.1l-0.1,0.1l0.1,1.3l-0.1,0.1l0.2,0.3c-0.1,0-0.1,0.3-0.1,0.8l0,0.1l0.1,0.1
				l0,1.1l0,0.8L24.7,10h0.1l0,0.6v0.1l0.1,0.1l0,0.7l0.1,1.8l-0.1,0.1h0.1l-0.1,0.7l0,0.1l0.1,0.1l-0.1,0l0.1,0.1l0,0.8l0.1,2.2
				l-0.1,0.1l0.1,0.1l0,0.5l0.1,0.1H25l0.1,0.1l0,0.5l0,0.2l0.1,0.1L25,19.3l0.1,1.4L25,21.2l0.1,0.1l-0.1,0l0.1,0.1l-0.1,0.5l0,0.2
				l0.1,0.3c0,0.1,0,0.2,0,0.3l0.1,0l-0.1,0v0.1L25,25.4c-3.4,0.1-6.7,0.2-9.9,0.2l-0.3-0.1l-0.2,0l0,0c0-0.3,0.5-0.7,1.4-1.4
				L15.9,24l-0.4,0.1L15.4,24c-0.6-0.1-1.2-0.1-1.8-0.1l-0.1-0.1l0.3-0.3l-0.1-0.1c-0.1,0-0.1,0-0.2,0.2l-0.3,0
				c-0.1,0-0.1,0.1-0.1,0.3l-0.2,0v-0.1l0.1-0.2l-0.2-0.1c-0.2,0.2-0.4,0.3-0.6,0.3l-0.6-0.1l-0.8-0.2l-0.1,0l-0.1-0.1l0.1-0.5
				l0-0.6l0.1,0l-0.1-0.6l0.1-0.2l-0.1,0l0.1-0.1v-0.2L10.7,21v-0.1h0.1l-0.2-1.2h0.1C10.6,19.6,10.6,18.5,10.6,16.3z"/>
			<polygon id="XMLID_11_" class="st1" points="10.6,11 10.6,10.9 10.6,10.8 			"/>
			<path id="XMLID_10_" class="st1" d="M10.7,23.5c-0.7-0.1-1.1-0.3-1-0.5l0-0.9l0.1-0.2l0.1-1.3l0.2-0.5c-0.1-0.1-0.1-0.4,0-0.6
				l0.1-0.3l0.1-0.2c0-0.1-0.1-0.3,0-0.5l-0.1,0l0.1,0l0-0.1l0-0.3l0.1-0.2l0.4-5.6l0.1,0l0-0.1l-0.1-0.5l0.1-0.5l0,0.9h-0.1
				l0.1,3.1l-0.1,0.1v0.2l0.1,0.1h-0.1l0,0.1l0.1,0.1l0,0.4l-0.1,0.1h0.1c-0.1,2.2,0,3.3,0.1,3.3h-0.1l0.2,1.2h-0.1V21l0.1,0.1v0.2
				l-0.1,0.1l0.1,0l-0.1,0.2l0.1,0.6l-0.1,0l0,0.6l-0.1,0.5L10.7,23.5L10.7,23.5z"/>
			<path id="XMLID_9_" class="st1" d="M2.3,40.1v0.2H1.8l0-0.6l0-0.3l0.1-0.1l-0.1,0l0.1-0.3l0-0.1l-0.1-0.1l0-0.1l0.1-0.1l0-0.1
				l-0.1-0.1h0.1l-0.1-0.3l0.1-0.6l-0.1-0.1L1.9,37l0-0.6L2,36.2H1.9l0.2-0.5L2,34.5l0.1-0.1L2,34.3l0-0.1L2.1,34l0.1,0.1
				c0.2-0.1,0.4-0.2,0.4-0.3l-0.3,0l0-0.1l0.9-0.1l0.1,0.1l1.9-0.4l0,0.1h0.1l0.1-0.1l0.3,0l0.1,0.1l0-0.1l0.1-0.1l0.1,0.1H6L6,33.3
				h0.1l1.3-0.1l0.1,0l0.1,0.1c0-0.1,0.6-0.2,1.8-0.3l0.1,0.1l0.9-0.2l0,0.1l0.4-0.1h0.1l0.1,0.2l0.1-0.1l0.3,0l0.1,0.1l0.1-0.1
				l0.4,0c0.1,0,0.2,0.3,0.2,1l-0.1,0.1l0.1,1.2l-0.1,0l0,0.6c0,0.1-0.1,0.1-0.3,0.1c0,0.3,0.1,0.4,0.3,0.5v0.2
				c-0.1,0-0.1,0-0.1,0.1l-0.2-0.1l-0.1,0.1V37l0.1,0.1l0.1,0l0.1,0l0.1,0.1v0l-0.4,0.4l0,0.1l0,0.1L11.5,38l0.4,0.8l-0.3,0.5l0.1,0
				L11.4,40l0,1.8l0,0.1L11.3,42c0.1,0,0.1,0.2,0.1,0.7l-0.1,0.2l0,1l0,0.1l-0.1,0l0,0.2l-0.1,0.6l0.1,0.5l0,0.1l-0.1,0L10.8,51
				l-0.1,0.2l0,0.3l0,0.1l-0.1,0l-0.2,0c0.1-0.4,0.1-0.9,0.1-1.4c0-2.6-1.3-4.7-4-6.5c-1.1-1.1-1.7-2.1-1.7-3.2v-0.2
				c0.2-0.9,0.6-1.3,1.2-1.3h0.4c0.6,0,1.1,0.4,1.2,1.3V41l2.5-0.2V40c-0.2-2.3-1.4-3.5-3.5-3.5l-0.5-0.1c-1.8,0-3,0.7-3.6,2
				C2.4,38.9,2.3,39.5,2.3,40.1z"/>
			<path id="XMLID_8_" class="st1" d="M0.8,5l0.1-0.6l0.5,0v2.3L1.6,7h2.7v15.4H7l-0.1-0.1v-0.1L7,21.6H6.9L7,21.5v-0.1l-0.1-0.1
				L7,21.1v-0.2l-0.1-0.1L7,20.6L6.9,20L7,19.9l-0.1-0.1v-0.5L7,19.1L6.9,19v-0.1L7,18.8l-0.1-0.9v-0.9L7,17l-0.1-0.1v-1.1L7,15.6
				l-0.1-0.1v-0.1L7,15.3l-0.1-0.1V14L7,13.7l-0.1-0.6v-2L7,11l-0.1-0.1V7.2L7.2,7h2.7V5.7h0.6l0.1,2.2L10.4,8h0.1l0.1,2.9l0,0
				l0,0.2l0,0.1l-0.1,0.5l0.1,0.5l0,0.1l-0.1,0l-0.4,5.6L10.1,18l0,0.3l0,0.1l-0.1,0l0.1,0c0,0.2,0,0.4,0,0.5L10,19.2l-0.1,0.3
				c0,0.3,0,0.5,0,0.6l-0.2,0.5l-0.1,1.3L9.7,22l0,0.9c0,0.2,0.3,0.4,1,0.5l0.1,0v0h-0.1v0.1l0.1,0.1l-0.1,1l-0.1,0.1h0.1
				c0,0.2-0.6,0.4-1.8,0.4l-0.2,0.1l0,0.1l0.1,0.1l0,0.2l-8.4,0.9l0-1.2l0.1-1l-0.1-0.1h0.1l0-0.1L0.3,24l0.1-1.4l-0.1-0.1l0.2-0.3
				c-0.1,0-0.1-0.3-0.1-0.8v-0.1L0.4,21l0-1.3l0-1l-0.1-0.1l0.1,0l0-0.7v-0.1l0.1-0.1l0-0.7l0.1-2l-0.1-0.1l0.1,0l0-0.8v-0.1
				l0.1-0.1H0.5l0.1-0.1l0-0.8l0.1-2.5l-0.1-0.1l0.1-0.1L0.6,9.5l0.1-0.1H0.6l0.1-0.1L0.7,8.7l0-0.3l0.1-0.1L0.7,8.2l0.1-1.5
				L0.7,6.1l0.1-0.1H0.7l0.1-0.1L0.7,5.2L0.8,5z"/>
			<path id="XMLID_7_" class="st1" d="M0.9,0.9l2.3-0.1h0.1l0.1-0.1l0.1,0.1h0.1l0.1-0.1v0.1c3-0.1,5.2-0.2,6.7-0.5
				c0.1,0,0.2,1,0.3,2.9l-0.1,0.1l0.1,2.3h-0.1l0.1,0.1l-0.1,0.1H9.8V4.4H1.3l-0.5,0L0.8,4.1l0-0.3l0.1-0.1L0.8,3.2l0.2-0.4l0-0.1
				L0.9,2.6L1,1.6L0.9,1.2L1,1.1V1H0.9V0.9z"/>
			<path id="XMLID_6_" class="st1" d="M0.9,59L0.9,59v-0.1l-0.1-1.5l0-0.1l0.1-0.1V57l-0.1-0.1l0.1-0.1l0.1-1l-0.1-0.1L1,55.6l0-0.5
				L1,54.5l0.1-0.4V54L1,53.8l0.1-0.1v-0.1L1,53.5l0.1,0L1,53.4l0.1-0.7v-0.1l-0.1-0.1l0-0.1l0.1-0.1l-0.1-0.5L1.2,50l0.1-0.1
				l-0.1-0.1v-0.2l0.1-0.1l-0.1-0.1l0.2-2.7l0.1-0.1H1.4l-0.1-0.1l0.1-0.6v-0.1l-0.1-0.1l0.1-0.1l0-0.7l0-0.9l0.2,0l-0.2-0.3
				l0.2-1.1l-0.2,0l0-0.4l0.1-0.1l-0.1-0.1v-0.2l0.1-0.1l-0.1-0.1l0-0.4l0.1-0.6l-0.1-0.1l0.1,0h0.5v0.7c0,2.1,1.3,4.1,4,6
				c1.1,1,1.7,2.2,1.7,3.4c0,1.2-0.4,1.8-1.3,1.8H6c-0.7,0-1.1-0.5-1.2-1.6v-1.3l-2.5,0.2v1.4c0.3,2.4,1.3,3.6,3.2,3.6l0.8,0.1h0.1
				c2.2,0,3.6-1,4-3l0.2,0l0.1,0c0,0.2,0,0.4,0,0.5l-0.1,0.2l0,0.3c0,0.3,0,0.5,0,0.6l-0.2,0.5L10.4,55l-0.1,0.2l0,0.9
				c0,0.2,0.3,0.4,1,0.5l0.1,0l0.1-0.1l0.4,0.1V58l0,0.1l-0.1,0.1l0.1,0.1v0.3l-1.4,0.2l-0.1-0.1l-4.5,0.5l0-0.1l-2.9,0.3l-0.1-0.1
				l0,0.1l-1.9,0H0.8l0-0.2L0.9,59z"/>
		</g>
		<g id="XMLID_5_">
		</g>
	</g>
</g>
</svg>
